<svg width="211" height="210" viewBox="0 0 211 210" fill="none" xmlns="http://www.w3.org/2000/svg">
<path d="M210 105C210 162.925 162.925 210 105 210C47.075 210 0 162.925 0 105C0 47.075 47.075 0 105 0C111.387 0 117.863 0.6125 124.075 1.75C128.8 2.625 131.95 7.175 131.075 11.9C130.2 16.625 125.65 19.775 120.925 18.9C115.762 17.9375 110.338 17.5 105 17.5C56.7875 17.5 17.5 56.7875 17.5 105C17.5 153.213 56.7875 192.5 105 192.5C153.213 192.5 192.5 153.213 192.5 105C192.5 99.6625 191.975 94.325 191.1 89.075C190.225 84.35 193.375 79.8 198.1 78.925C202.912 78.05 207.375 81.2 208.25 85.925C209.387 92.1375 210 98.6125 210 105ZM112.525 53.025C117.337 53.725 121.713 50.4 122.412 45.5875C123.112 40.775 119.788 36.4 114.975 35.7C111.65 35.2625 108.325 35 105 35C66.4125 35 35 66.4125 35 105C35 143.587 66.4125 175 105 175C143.587 175 175 143.587 175 105C175 101.675 174.738 98.35 174.3 95.025C173.6 90.2125 169.225 86.8875 164.413 87.5875C159.6 88.2875 156.275 92.6625 156.975 97.475C157.325 99.925 157.5 102.463 157.5 105C157.5 133.962 133.962 157.5 105 157.5C76.0375 157.5 52.5 133.962 52.5 105C52.5 76.0375 76.0375 52.5 105 52.5C107.537 52.5 110.075 52.675 112.525 53.025ZM94.0625 79.625C90.825 76.0375 85.3125 75.6875 81.725 78.925C74.2875 85.575 70.0875 95.1125 70.0875 105C70.0875 124.338 85.75 140 105.088 140C115.062 140 124.512 135.712 131.162 128.363C134.4 124.775 134.05 119.263 130.462 116.025C126.875 112.787 121.363 113.138 118.125 116.725C114.8 120.4 110.075 122.588 105.088 122.588C95.4625 122.588 87.5875 114.713 87.5875 105.088C87.5875 100.1 89.6875 95.375 93.45 92.05C97.0375 88.8125 97.3875 83.3 94.15 79.7125L94.0625 79.625ZM107.625 90.125C104.213 93.5375 104.213 99.05 107.625 102.463C109.375 104.213 111.562 105 113.838 105C116.113 105 118.3 104.125 120.05 102.463L161.262 61.25H183.925C186.288 61.25 188.475 60.2875 190.137 58.7125L207.637 41.2125C210.175 38.675 210.875 34.9125 209.562 31.675C208.25 28.4375 205.013 26.25 201.513 26.25H184.013V8.75C184.013 5.25 181.913 2.0125 178.587 0.7C175.262 -0.7 171.587 0.0875002 169.05 2.625L151.55 20.125C149.887 21.7875 149.013 23.975 149.013 26.3375V49L107.8 90.2125L107.625 90.125Z" fill="#C64242" fill-opacity="0.4"/>
</svg>
