<svg width="1055" height="690" viewBox="0 0 1055 690" fill="none" xmlns="http://www.w3.org/2000/svg">
<g clip-path="url(#clip0_4_7697)">
<mask id="mask0_4_7697" style="mask-type:luminance" maskUnits="userSpaceOnUse" x="0" y="0" width="1055" height="690">
<path d="M1055 0H0V690H1055V0Z" fill="white"/>
</mask>
<g mask="url(#mask0_4_7697)">
<path d="M909.027 419.716C910.902 417.437 908.913 413.622 904.978 410.703C894.011 402.605 872.855 387.559 861.599 379.801C857.581 376.991 852.651 376.74 850.292 379.603C847.941 382.457 849.182 387.202 853.349 389.821C865.174 397.267 886.539 411.294 897.994 419.191C902.046 421.953 907.157 421.982 909.027 419.716Z" fill="#FFB300" fill-opacity="0.5"/>
<path d="M835.346 369.895C837.809 366.892 836.305 362.502 832.247 359.727C827.714 356.668 822.025 352.852 817.463 349.822C813.383 347.081 807.997 347.382 805.213 350.771C805.213 350.771 805.208 350.772 805.21 350.771C802.429 354.149 803.449 359.153 807.707 361.676C812.42 364.514 818.324 368.082 823.016 370.945C827.232 373.513 832.883 372.887 835.346 369.895Z" fill="#FFB300" fill-opacity="0.5"/>
<path d="M790.039 341.339C792.947 337.802 791.817 332.94 787.718 330.223C779.386 324.783 766.164 316.227 757.789 310.853C753.665 308.168 747.626 309.262 744.199 313.426C740.776 317.585 741.426 323.028 745.748 325.476C754.457 330.452 768.197 338.368 776.844 343.43C781.135 345.916 787.129 344.876 790.039 341.339Z" fill="#C64242" fill-opacity="0.5"/>
<path d="M728.792 304.272C728.813 304.247 728.831 304.228 728.846 304.204C732.403 299.879 731.868 294.293 727.736 291.62C719.305 286.248 706.061 277.83 697.621 272.47C686.028 265.106 664.034 251.123 652.476 243.724C648.345 241.047 641.172 243.52 636.567 249.119C631.959 254.713 631.819 261.114 636.154 263.551C648.169 270.387 671.075 283.278 683.137 290.066C691.946 295.02 705.775 302.799 714.545 307.758C718.845 310.169 725.261 308.567 728.792 304.272Z" fill="#FFB300" fill-opacity="0.5"/>
<path d="M944.633 432.195C944.633 432.195 944.636 432.195 944.633 432.192C944.798 431.995 941.674 429.615 938.078 426.33C930.73 419.71 919.062 409.191 911.692 402.546C908.074 399.248 904.909 396.858 904.251 397.654C903.602 398.442 905.875 401.917 909.701 404.964C917.405 411.161 929.534 421.046 937.152 427.343C940.93 430.445 944.474 432.386 944.633 432.195Z" fill="#FFB300" fill-opacity="0.5"/>
<path d="M890.729 386.209C891.537 385.228 888.97 382.105 885.359 378.803C866.201 361.535 812.357 312.992 793.195 295.712C789.59 292.409 784.534 292.309 781.765 295.668C779.003 299.024 779.84 304.251 783.77 307.166C804.427 322.602 861.914 366.742 882.015 382.862C885.863 385.885 889.924 387.182 890.729 386.209Z" fill="#C64242" fill-opacity="0.5"/>
<path d="M768.063 284.429C771.056 280.798 770.461 275.281 766.853 271.97C756.725 262.842 737.478 245.481 727.357 236.358C727.357 236.358 727.352 236.352 727.347 236.35C723.305 232.705 718.234 228.139 714.19 224.487C710.582 221.177 704.01 222.918 699.552 228.333C695.106 233.736 694.733 240.419 698.673 243.328C703.034 246.596 708.51 250.688 712.874 253.949C723.794 262.117 744.529 277.641 755.436 285.831C759.37 288.754 765.078 288.06 768.063 284.429Z" fill="#FFB300" fill-opacity="0.5"/>
<path d="M961.947 494.753C961.947 494.753 961.949 494.753 961.949 494.751C965.13 490.881 964.231 485.737 960.385 482.717C940.826 466.325 880.603 425.375 857.798 412.278C853.588 409.697 847.673 410.656 844.255 414.802C844.236 414.825 844.217 414.842 844.198 414.865C840.823 418.965 841.255 424.626 845.484 427.133C868.132 439.682 929.292 480.386 948.859 496.725C952.727 499.72 958.778 498.602 961.947 494.753Z" fill="#FFB300" fill-opacity="0.5"/>
<path d="M828.716 405.811C828.737 405.792 828.749 405.77 828.767 405.749C832.208 401.562 831.302 396.441 827.021 393.935C818.374 388.889 804.562 381.05 795.768 376.171C791.426 373.743 785.17 375.107 781.571 379.481C777.977 383.846 778.457 389.506 782.857 391.852C791.774 396.619 805.778 404.297 814.517 409.231C818.812 411.651 825.298 409.968 828.716 405.811Z" fill="#E63E4B" fill-opacity="0.5"/>
<path d="M765.634 370.97C769.277 366.549 768.512 361.243 764.13 358.862C748.31 350.294 715.838 333.294 700.095 325.189C695.665 322.879 688.919 324.831 684.994 329.594C681.079 334.358 681.514 340.065 686.019 342.284C702.009 350.167 735.115 366.794 750.849 375.001C755.288 377.295 761.995 375.384 765.634 370.97Z" fill="#C64242" fill-opacity="0.5"/>
<path d="M668.771 321.452C671.249 318.438 672.022 315.066 671.166 312.398C670.653 310.791 669.558 309.45 667.895 308.582C644.601 296.718 578.802 262.548 555.791 249.699C551.438 247.296 544.144 249.914 539.731 255.277C539.708 255.304 539.688 255.33 539.669 255.355C535.283 260.675 535.465 266.641 539.855 268.951C562.689 281.28 629.841 314.695 653.406 326.18C653.971 326.453 654.576 326.669 655.196 326.81C659.596 327.823 665.288 325.668 668.771 321.452Z" fill="#FFB300" fill-opacity="0.5"/>
<path d="M845.048 469.557C845.069 469.53 845.097 469.501 845.118 469.47C849.76 463.832 849.847 457.543 845.674 454.975C837.157 449.716 823.564 441.644 814.823 436.615C810.522 434.145 803.59 436.33 799.031 441.866C794.488 447.381 794.016 454.199 798.259 456.732C806.9 461.853 820.315 470.06 828.763 475.404C832.922 478.05 840.378 475.232 845.048 469.557Z" fill="#C64242" fill-opacity="0.5"/>
<path d="M783.41 432.965H783.415C787.925 427.477 787.825 421.369 783.469 418.975C778.611 416.3 772.5 412.998 767.611 410.368C763.217 408.016 756.248 410.232 751.841 415.588L751.835 415.594C747.436 420.934 747.206 427.448 751.557 429.87C756.384 432.569 762.429 435.965 767.23 438.691C771.539 441.158 778.905 438.451 783.41 432.965Z" fill="#C64242" fill-opacity="0.5"/>
<path d="M735.901 407.086C740.27 401.777 740.037 395.816 735.599 393.518C710.226 380.324 671.534 361.109 638.157 344.696C622.5 337 588.558 320.219 573.026 312.353C568.553 310.098 561.77 312.094 558.028 316.641C554.282 321.187 554.944 326.62 559.354 328.956C574.693 337.048 608.213 354.341 623.674 362.289C623.674 362.289 623.679 362.293 623.679 362.289C623.676 362.291 623.676 362.291 623.679 362.289C647.025 374.253 695.416 399.278 719.915 412.57C724.296 414.947 731.543 412.384 735.901 407.086Z" fill="#E63E4B" fill-opacity="0.5"/>
<path d="M819.832 528.053C825.961 520.604 827.336 512.7 823.273 509.939C815.085 504.318 802.008 495.613 793.642 490.204C789.502 487.536 781.724 490.75 775.939 497.776C770.177 504.775 768.475 513.076 772.472 515.913C780.58 521.622 793.318 530.769 801.296 536.636C805.232 539.544 813.709 535.494 819.832 528.053Z" fill="#E63E4B" fill-opacity="0.5"/>
<path d="M761.094 487.946C766.769 481.053 767.724 473.67 763.526 471.066C739.778 455.756 664.823 412.303 639.78 398.468C635.432 396.046 628.524 398.209 624.282 403.364C620.047 408.51 619.926 414.889 624.066 417.559C648.182 432.684 720.115 479.386 743.281 495.652C747.316 498.446 755.433 494.823 761.094 487.946Z" fill="#FFB300" fill-opacity="0.5"/>
<path d="M608.881 394.192C608.892 394.185 608.897 394.169 608.905 394.167C608.921 394.15 608.932 394.131 608.941 394.118C613.01 389.177 612.797 383.238 608.49 380.846C596.232 373.951 573.705 361.269 561.439 354.296C557.115 351.86 550.763 353.331 547.368 357.457C543.977 361.572 544.664 366.977 548.795 369.652C560.355 377.056 582.351 391.051 593.944 398.407C598.084 401.074 604.776 399.173 608.881 394.192Z" fill="#C64242" fill-opacity="0.5"/>
<path d="M755.54 578.279C755.561 578.256 755.579 578.232 755.594 578.21C762.982 569.243 765.55 559.889 761.712 556.849C751.079 548.328 730.732 532.325 719.958 523.978C716.078 521.004 707.878 524.724 701.355 532.641C701.325 532.678 701.294 532.723 701.261 532.761C694.807 540.6 692.243 549.895 695.834 553.167C705.959 562.3 725.271 579.71 735.41 588.85C739.012 592.152 748.197 587.206 755.54 578.279Z" fill="#C64242" fill-opacity="0.5"/>
<path d="M687.741 521.321C694.059 513.643 695.803 505.281 691.914 502.325C684.055 496.299 671.617 486.813 663.723 480.832C659.793 477.908 652.295 480.791 646.78 487.482C641.278 494.163 639.602 502.429 643.215 505.737C650.571 512.372 662.196 522.85 669.552 529.481C673.155 532.792 681.423 528.991 687.741 521.321Z" fill="#E63E4B" fill-opacity="0.5"/>
<path d="M633.098 476.232C633.127 476.198 633.149 476.168 633.178 476.132C638.415 469.763 639.399 462.398 635.494 459.503C627.558 453.529 615.048 444.134 607.087 438.173C603.144 435.266 596.418 437.201 592.013 442.548C587.617 447.889 586.944 454.943 590.543 458.252C597.931 464.911 609.5 475.351 616.885 481.999C620.49 485.307 627.812 482.645 633.098 476.232Z" fill="#FFB300" fill-opacity="0.5"/>
<path d="M578.31 431.324C582.483 426.267 582.648 419.83 578.699 416.92C565.079 406.74 535.539 384.612 521.963 374.383C518.035 371.464 512.526 371.91 509.81 375.211C507.1 378.508 507.933 383.719 511.546 387.033C524.174 398.416 551.587 423.125 564.217 434.516C567.822 437.828 574.135 436.39 578.31 431.324Z" fill="#C64242" fill-opacity="0.5"/>
<path d="M1058.03 545.228C1059.6 543.316 1057.68 539.408 1054.19 535.963C1047.14 528.971 1035.78 518.154 1028.49 511.456C1024.88 508.14 1021.13 506.46 1019.65 508.261C1018.17 510.045 1019.54 514.63 1023.13 517.96C1030.41 524.682 1041.67 535.606 1048.63 542.721C1052.06 546.236 1056.47 547.127 1058.03 545.228Z" fill="#FFB300" fill-opacity="0.5"/>
<path d="M1006.41 496.47C1006.42 496.458 1006.43 496.452 1006.43 496.441C1007.91 494.64 1005.76 491.021 1002.08 487.802C994.616 481.289 982.758 471.271 975.081 464.985C975.06 464.97 975.043 464.951 975.022 464.937C964.542 456.227 944.247 440.179 933.376 431.941C929.492 428.967 925.211 427.928 923.407 430.116C921.622 432.289 923.075 436.759 927.055 439.617C938.175 447.552 958.818 463.193 969.409 471.761C977.206 477.942 989.247 487.899 996.75 494.391C1000.42 497.558 1004.95 498.242 1006.41 496.47Z" fill="#FFB300" fill-opacity="0.5"/>
<path d="M1140.49 612.253C1141.56 610.951 1139.19 607.59 1135.53 604.347C1116.38 587.073 1062.52 538.523 1043.37 521.255C1039.72 517.992 1037.3 514.68 1037.49 514.451C1037.68 514.218 1040.38 517.18 1043.97 520.514C1063.17 537.718 1114.84 588.929 1132.26 608.319C1135.6 611.957 1139.42 613.546 1140.49 612.253Z" fill="#E63E4B" fill-opacity="0.5"/>
<path d="M1024.36 502.532C1024.16 502.78 1020.66 500.79 1017.03 497.505C1006.9 488.375 987.652 471.026 977.529 461.896L977.521 461.894C973.48 458.241 968.409 453.672 964.364 450.028C960.729 446.739 958.103 443.704 958.025 443.794C957.957 443.866 960.59 446.903 964.34 450.047C968.497 453.559 973.693 457.994 977.822 461.53C977.83 461.535 977.827 461.54 977.827 461.54C988.196 470.38 1007.66 487.444 1017.78 496.589C1021.42 499.872 1024.57 502.277 1024.36 502.532Z" fill="#FFB300" fill-opacity="0.5"/>
<path d="M1086.45 622.163C1086.47 622.144 1086.48 622.126 1086.5 622.107C1089.82 618.076 1089.74 611.927 1086.67 607.959C1080.51 599.886 1070.41 587.557 1063.8 580.015C1060.53 576.277 1055.63 576.016 1052.42 579.911C1049.22 583.804 1048.91 590.401 1052.14 594.183C1058.71 601.797 1068.74 614.302 1074.82 622.473C1077.81 626.465 1083.17 626.149 1086.45 622.163Z" fill="#FFB300" fill-opacity="0.5"/>
<path d="M1040.38 566.656C1043.58 562.779 1043.06 557.174 1039.64 553.631C1027.46 540.623 1001.17 516.124 987.836 505.098C984.107 501.934 978.873 502.049 975.697 505.908C972.532 509.744 972.647 515.851 976.383 519.007C989.792 530.012 1016.23 554.754 1028.13 567.615C1031.53 571.179 1037.2 570.526 1040.38 566.656Z" fill="#C64242" fill-opacity="0.5"/>
<path d="M1087.54 704.424C1087.56 704.399 1087.59 704.367 1087.61 704.341C1092.1 698.88 1093.38 691.141 1090.71 686.758C1085.26 677.761 1076.28 664.104 1070.29 655.719C1067.37 651.579 1061.47 652.511 1056.76 658.219C1052.07 663.918 1050.4 672.177 1053.38 676.255C1059.44 684.512 1068.57 697.921 1074.15 706.76C1076.92 711.092 1083.03 709.912 1087.54 704.424Z" fill="#FFB300" fill-opacity="0.5"/>
<path d="M1045.75 643.723C1045.76 643.722 1045.76 643.722 1045.76 643.715C1050.49 637.964 1051.51 630.507 1048.39 626.599C1044.92 622.257 1040.48 616.9 1036.89 612.696C1033.67 608.925 1027.49 610.188 1022.69 616.017V616.018C1017.89 621.838 1016.32 629.981 1019.58 633.715C1023.2 637.884 1027.68 643.183 1031.19 647.486C1034.35 651.342 1041.03 649.46 1045.75 643.723Z" fill="#C64242" fill-opacity="0.5"/>
<path d="M1010.65 602.772C1015.47 596.919 1016.28 589.699 1012.88 586.134C993.547 565.593 962.41 537.217 933.613 515.24C920.326 504.66 890.167 483.291 875.751 474.07C871.629 471.379 864.784 473.448 860.069 479.179C855.371 484.892 854.565 492.104 858.648 494.842C872.94 504.202 902.929 525.786 916.173 536.421C916.176 536.425 916.17 536.421 916.17 536.421C916.176 536.429 916.173 536.421 916.175 536.425C936.699 551.8 976.673 587.085 995.424 607.339C998.848 610.882 1005.85 608.61 1010.65 602.772Z" fill="#FFB300" fill-opacity="0.5"/>
<path d="M1016.75 706.822C1022.82 699.447 1024.92 690.671 1021.78 686.786C1004.76 663.301 944.257 602.302 921.988 585.091C918.275 581.913 910.343 585.308 903.839 593.207C897.348 601.093 894.711 610.54 898.407 613.74C920.415 631.427 981.475 691.337 999.551 713.777C1002.83 717.491 1010.69 714.182 1016.75 706.822Z" fill="#FFB300" fill-opacity="0.5"/>
<path d="M884.003 587.808C884.368 587.534 884.732 587.306 885.09 587.012C885.131 586.971 885.17 586.94 885.201 586.911C886.944 585.473 888.657 583.766 890.238 581.849C890.274 581.812 890.303 581.772 890.336 581.729C896.757 573.928 898.542 565.581 894.754 562.546C883.985 553.84 863.68 538.453 852.35 530.356C848.366 527.501 840.428 530.903 834.21 538.453C828.018 545.98 825.816 554.888 829.697 557.868C840.569 566.099 860.866 582.159 871.348 590.868C873.983 593.045 879.006 591.558 884.003 587.808Z" fill="#E63E4B" fill-opacity="0.5"/>
<path d="M888.829 695.019C888.868 694.967 888.91 694.918 888.948 694.867C897.069 685.007 900.379 674.803 896.798 671.516C889.478 664.801 877.847 654.357 870.375 647.772C866.702 644.546 857.479 649.511 849.296 659.448C841.134 669.361 837.087 680.521 840.719 683.795C848.104 690.446 859.673 700.881 867.05 707.537C870.683 710.816 880.649 704.954 888.829 695.019Z" fill="#E63E4B" fill-opacity="0.5"/>
<path d="M832.925 651.187C833.979 650.096 835.017 648.924 836.031 647.699C844.162 637.815 847.369 627.693 843.654 624.505C830.805 613.385 802.498 589.762 789.289 579.085C785.479 576.027 776.62 580.547 769.086 589.689C761.573 598.819 758.093 609.281 761.719 612.57C774.348 623.96 801.758 648.673 814.39 660.054C815.297 660.87 816.587 661.134 818.155 660.896C822.065 660.316 827.645 656.674 832.925 651.187Z" fill="#C64242" fill-opacity="0.5"/>
<path d="M348.101 42.2129C354.614 34.3041 357.373 24.7172 353.819 21.3486C343.864 12.0019 325.494 -6.41283 316.116 -16.4523C312.727 -20.0334 304.559 -16.3461 298.277 -8.71605C291.983 -1.07499 289.878 7.72527 293.17 11.4182C302.466 21.9407 320.228 40.3485 330.281 49.9367C333.801 53.3495 341.583 50.1382 348.101 42.2129Z" fill="#FFB300" fill-opacity="0.5"/>
<path d="M429.045 -0.367153C429.088 -0.415453 429.124 -0.46375 429.166 -0.51481C437.297 -10.3887 441.343 -21.4963 437.732 -24.7435C430.387 -31.3702 418.711 -41.8817 411.347 -48.5305C407.707 -51.8122 397.789 -45.9913 389.665 -36.1243C389.66 -36.1216 389.657 -36.1216 389.657 -36.1216C381.515 -26.2242 378.2 -15.9612 381.775 -12.6036C389.02 -5.85679 400.589 4.70435 407.963 11.3077C411.607 14.5727 420.841 9.60197 429.045 -0.367153Z" fill="#FFB300" fill-opacity="0.5"/>
<path d="M373.342 150.878H373.345C378.144 145.039 379.253 137.456 375.398 134.449C354.592 119.578 300.81 70.7912 283.91 50.5286C280.575 46.891 273.662 49.0396 268.883 54.8522C268.856 54.8812 268.834 54.9115 268.808 54.9391C264.051 60.7103 263.187 67.9594 266.467 71.6068C282.871 91.752 337.025 140.953 357.955 155.634C361.835 158.619 368.531 156.727 373.342 150.878Z" fill="#C64242" fill-opacity="0.5"/>
<path d="M257.105 41.2951C257.128 41.262 257.151 41.2358 257.172 41.2082C261.934 35.4219 263.544 27.2343 260.377 23.3883C253.963 15.6313 244.152 2.93666 238.179 -5.3806C235.212 -9.4654 228.799 -7.91152 224.16 -2.27698C219.514 3.36032 218.357 10.9986 221.274 15.1566C227.16 23.6077 236.872 36.4941 243.222 44.3311C246.333 48.1896 252.373 47.0359 257.105 41.2951Z" fill="#C64242" fill-opacity="0.5"/>
<path d="M263.534 117.072C263.55 117.05 263.564 117.035 263.582 117.013C266.728 113.194 266.874 106.835 263.488 103.311C256.543 96.1238 245.952 84.4255 239.431 76.692C236.216 72.9094 230.673 73.3855 227.441 77.3185C224.195 81.2612 224.525 87.0999 227.768 90.8577C234.331 98.496 244.958 110.087 251.93 117.238C255.354 120.766 260.363 120.925 263.534 117.072Z" fill="#FFB300" fill-opacity="0.5"/>
<path d="M216.075 63.2536C216.075 63.2536 216.077 63.2536 216.08 63.2522C219.341 59.2916 219.825 52.4647 216.799 48.4586C213.427 43.9874 209.275 38.288 206.024 33.6691C203.119 29.5167 197.782 29.7541 194.426 33.8278C191.057 37.9154 190.995 44.2275 193.964 48.3178C197.267 52.8801 201.477 58.4967 204.89 62.9113C207.966 66.8692 212.808 67.2252 216.075 63.2536Z" fill="#FFB300" fill-opacity="0.5"/>
<path d="M184.161 18.4284C187.566 14.294 188.354 7.10691 185.649 2.69781C169.984 -22.3312 149.013 -63.1089 134.7 -102.702C132.757 -107.971 128.028 -108.418 124.052 -103.588C124.031 -103.564 124.011 -103.54 123.99 -103.515C119.98 -98.637 118.358 -90.4343 120.445 -85.2786C130.722 -57.4426 157.179 -5.77125 173.203 17.8171C175.975 22.1379 180.756 22.5671 184.161 18.4284Z" fill="#FFB300" fill-opacity="0.5"/>
<path d="M258.913 150.553C260.391 148.757 259.091 144.09 255.567 140.681C248.425 133.801 237.383 122.613 230.57 115.322C227.201 111.721 222.815 110.804 221.19 112.781C219.557 114.764 221.368 118.807 224.808 122.309C231.756 129.44 242.944 140.461 250.14 147.281C253.692 150.638 257.421 152.364 258.913 150.553Z" fill="#C64242" fill-opacity="0.5"/>
<path d="M209.084 99.618C210.781 97.5618 209.854 92.4516 206.63 88.6746C186.892 68.4866 136.182 -4.39952 123.062 -32.7226C120.576 -37.3884 115.763 -37.79 112.368 -33.6652C108.968 -29.5362 108.55 -22.7894 111.371 -18.5197C126.467 7.56094 180.176 76.4119 200.281 96.3791C203.626 100.014 207.387 101.682 209.084 99.618Z" fill="#C64242" fill-opacity="0.5"/>
<path d="M241.001 144.436C241.004 144.436 241.001 144.436 241.004 144.438C240.852 144.625 238.218 141.587 234.656 138.219C224.703 128.871 206.086 110.763 196.461 101.026C193.012 97.5232 189.605 95.4201 189.248 95.8438C189.248 95.8438 189.248 95.8493 189.246 95.852C188.886 96.2867 191.87 98.8577 195.489 102.095C205.612 111.22 224.929 128.631 235.07 137.779C238.702 141.022 241.14 144.265 241.001 144.436Z" fill="#E63E4B" fill-opacity="0.5"/>
<path d="M176.466 83.5161C176.984 82.8882 174.958 79.107 171.569 75.5287C164.684 68.3416 153.91 56.8172 147.183 49.4246C143.878 45.7414 139.868 44.3793 138.495 46.0477C137.112 47.7217 139.206 51.409 142.873 54.6617C150.227 61.2885 161.857 71.7723 169.207 78.4005C172.872 81.6421 175.937 84.1509 176.466 83.5161Z" fill="#C64242" fill-opacity="0.5"/>
<path d="M125.974 33.3821C125.981 33.3711 125.989 33.3614 125.997 33.3504C127.64 31.3549 126.575 26.4656 123.373 22.7258C116.753 15.1551 106.481 3.05526 100.039 -4.76796C96.9043 -8.65128 91.8641 -8.77272 88.8705 -5.13366C85.873 -1.49046 86.5218 3.95778 90.2051 7.17456C97.5848 13.8289 109.162 24.2659 116.534 30.9147C120.215 34.1439 124.313 35.3928 125.974 33.3821Z" fill="#FFB300" fill-opacity="0.5"/>
<path d="M621.239 239.865C625.981 234.113 626.592 227.125 622.471 224.434C610.948 217.006 589.159 202.73 577.78 195.12C573.708 192.371 565.839 195.709 560.44 202.251C555.051 208.801 554.327 215.916 558.575 218.448C570.582 225.684 592.773 238.711 604.953 245.708C609.268 248.164 616.497 245.626 621.239 239.865Z" fill="#FFB300" fill-opacity="0.5"/>
<path d="M545.411 192.651C545.414 192.648 545.416 192.644 545.416 192.644C550.921 185.958 552.321 178.009 548.286 175.226C543.773 172.144 538.133 168.255 533.645 165.142C529.632 162.328 521.419 166.068 515.629 173.104H515.626C509.826 180.152 508.77 187.666 512.932 190.306C517.561 193.244 523.387 196.912 528.046 199.812C532.254 202.394 539.901 199.338 545.411 192.651Z" fill="#C64242" fill-opacity="0.5"/>
<path d="M500.874 163.15C506.765 155.994 508.595 147.533 504.635 144.662C496.568 138.891 483.927 129.636 476.006 123.695C472.107 120.743 463.565 124.883 457.349 132.43C451.128 139.991 449.658 148.009 453.676 150.824C461.781 156.542 474.75 165.39 483.042 170.882C487.141 173.586 494.971 170.315 500.874 163.15Z" fill="#C64242" fill-opacity="0.5"/>
<path d="M443.019 121.973C443.052 121.94 443.079 121.898 443.112 121.861C449.398 114.229 451.71 105.186 447.854 102.17C440.042 96.0742 427.929 86.3728 420.274 80.0551C420.255 80.0358 420.245 80.0234 420.222 80.0027C409.651 71.4053 389.986 54.5734 379.882 45.4199C376.242 42.1479 367.634 46.3583 361.113 54.2822C354.587 62.2034 352.609 70.8436 356.258 74.117C366.362 83.2829 386.156 99.9451 396.871 108.373C404.629 114.599 417.008 124.142 424.987 130.054C428.893 132.944 436.774 129.55 443.019 121.973Z" fill="#E63E4B" fill-opacity="0.5"/>
<path d="M685.85 217.11C685.874 217.081 685.896 217.052 685.92 217.027C690.56 211.39 691.486 204.07 687.906 200.795C680.558 194.164 668.889 183.649 661.52 177.001C657.91 173.689 650.341 176.645 644.788 183.392C644.788 183.392 644.785 183.395 644.783 183.4C639.235 190.147 638.057 197.815 641.98 200.735C649.872 206.706 662.385 216.124 670.303 222.065C674.244 224.976 681.167 222.802 685.85 217.11Z" fill="#C64242" fill-opacity="0.5"/>
<path d="M631.122 172.133C636.886 165.128 638.795 156.576 635.184 153.264C616.026 135.996 562.177 87.4422 543.023 70.1825C539.404 66.876 530.027 72.0276 522.487 81.1921C514.938 90.3609 512.229 99.8842 516.04 102.945C535.96 119.279 593.13 163.804 613.738 179.314C617.656 182.252 625.353 179.139 631.122 172.133Z" fill="#FFB300" fill-opacity="0.5"/>
<path d="M509.019 69.6651C516.692 60.3487 520.313 49.7158 516.682 46.43C506.557 37.2958 487.302 19.9437 477.182 10.8178C477.182 10.8178 477.169 10.8178 477.174 10.8067C473.131 7.1649 468.064 2.59572 464.019 -1.05162C460.388 -4.34292 450.443 1.51242 442.271 11.4346C434.096 21.3706 430.826 31.5661 434.518 34.7801C438.618 38.3584 443.782 42.8172 447.916 46.3638C447.916 46.3638 447.916 46.3638 447.919 46.3666C458.237 55.2703 478.055 71.9104 488.589 80.5547C492.37 83.6417 501.341 79.0022 509.019 69.6651Z" fill="#FFB300" fill-opacity="0.5"/>
<path d="M523.822 246.736C523.846 246.708 523.865 246.683 523.889 246.66C528.343 241.256 528.648 234.636 524.337 232.183C515.598 227.242 501.888 219.274 493.311 214.139C489.066 211.599 481.643 214.379 477.051 219.964C472.454 225.551 472.464 231.778 476.748 234.259C485.436 239.297 499.331 247.112 508.166 251.935C512.499 254.301 519.396 252.107 523.822 246.736Z" fill="#FFB300" fill-opacity="0.5"/>
<path d="M461.706 210.726C466.33 205.105 466.979 198.085 462.806 195.459C447.633 186.092 417.693 166.015 403.754 155.727C399.792 152.849 392.353 155.646 387.563 161.459C382.767 167.285 382.461 173.898 386.45 176.742C400.498 186.976 430.899 206.902 445.954 215.931C450.167 218.504 457.066 216.361 461.706 210.726Z" fill="#E63E4B" fill-opacity="0.5"/>
<path d="M541.939 308.31C541.96 308.289 541.977 308.266 541.996 308.246C545.668 303.785 545.192 298.183 540.777 295.905C531.757 291.254 517.632 283.829 508.71 279.018C504.319 276.666 497.688 278.477 494.153 282.767C490.613 287.07 491.466 292.273 495.796 294.703C504.61 299.62 518.521 307.22 527.433 312.003C531.816 314.372 538.243 312.807 541.939 308.31Z" fill="#FFB300" fill-opacity="0.5"/>
<path d="M478.415 274.021C478.415 274.021 478.417 274.014 478.417 274.011C481.909 269.772 481.449 264.102 477.109 261.673C472.3 258.961 466.281 255.529 461.498 252.77C457.209 250.286 450.713 251.94 447.319 256.067H447.316C443.908 260.202 444.856 265.299 449.094 267.84C453.82 270.657 459.775 274.16 464.543 276.932C468.823 279.432 474.917 278.269 478.415 274.021Z" fill="#C64242" fill-opacity="0.5"/>
<path d="M431.974 246.842C435.335 242.757 434.922 237.023 430.704 234.451C406.553 219.773 371.254 196.429 342.715 174.156C329.1 163.972 300.956 140.15 288.727 128.275C285.154 124.914 279.349 125.73 276.196 129.564C273.029 133.416 273.71 138.814 277.285 142.173C289.538 154.014 317.631 177.894 331.181 188.158C331.192 188.164 331.187 188.16 331.187 188.16C351.105 204.279 395.017 234.767 418.59 249.166C422.762 251.796 428.599 250.943 431.974 246.842Z" fill="#C64242" fill-opacity="0.5"/>
<path d="M532.046 348.2C535.309 344.249 534.559 338.912 530.251 336.451C521.558 331.45 507.873 323.469 499.26 318.361C494.987 315.86 489.112 316.758 486.359 320.109C483.6 323.453 484.867 328.153 488.953 330.884C497.254 336.361 510.434 344.959 518.797 350.361C522.915 353.054 528.786 352.166 532.046 348.2Z" fill="#C64242" fill-opacity="0.5"/>
<path d="M471.255 310.591C473.887 307.396 472.785 302.482 468.561 299.929C443.912 285.712 372.228 238.312 350.227 220.763C346.301 217.836 341.46 217.484 339.836 219.454C338.206 221.436 340.349 225.067 344.187 228.101C366.008 246.026 435.484 295.71 459.326 311.148C463.386 313.903 468.615 313.801 471.255 310.591Z" fill="#FFB300" fill-opacity="0.5"/>
<path d="M323.861 209.36C324.008 209.357 324.158 209.365 324.294 209.351C324.312 209.346 324.321 209.35 324.337 209.346C324.97 209.244 325.512 208.977 325.893 208.508C325.904 208.497 325.909 208.49 325.92 208.479C327.486 206.586 326.015 202.171 322.213 199.156C311.336 190.596 291.855 174.199 281.545 164.858C277.903 161.588 273.39 160.829 271.922 162.619C270.441 164.415 272.563 168.077 276.206 171.348C286.31 180.5 305.972 197.333 316.544 205.937C319.192 208.105 321.902 209.412 323.861 209.36Z" fill="#E63E4B" fill-opacity="0.5"/>
<path d="M496.113 363.983C496.12 363.974 496.126 363.965 496.131 363.96C498.627 360.932 497.604 355.937 493.677 353.011C482.805 344.778 462.233 329.062 451.448 320.716C447.564 317.742 443 317.04 441.562 318.794C441.552 318.802 441.544 318.81 441.539 318.819C440.101 320.562 442.074 324.343 445.66 327.64C455.788 336.759 475.094 354.174 485.238 363.314C488.834 366.609 493.627 367 496.113 363.983Z" fill="#FFB300" fill-opacity="0.5"/>
<path d="M427.961 307.446C429.22 305.923 427.345 301.959 423.474 298.966C415.688 292.875 403.412 283.177 395.685 276.995C391.853 273.96 387.943 272.478 387.319 273.223C386.698 273.987 389.432 276.894 393.045 280.199C400.399 286.833 412.025 297.311 419.379 303.944C422.997 307.239 426.695 308.985 427.961 307.446Z" fill="#FFB300" fill-opacity="0.5"/>
<path d="M373.822 261.747C373.825 261.742 373.83 261.742 373.833 261.738C374.306 261.162 371.94 257.843 368.161 254.8C360.462 248.535 348.418 238.606 340.786 232.219C337.03 229.091 333.587 227.031 333.546 227.077C333.492 227.141 336.756 229.422 340.377 232.715C347.754 239.368 359.334 249.806 366.709 256.455C370.337 259.746 373.338 262.336 373.822 261.747Z" fill="#C64242" fill-opacity="0.5"/>
<path d="M320.088 215.281C320.169 215.378 320.196 215.43 320.194 215.436C320.155 215.481 317.467 212.502 313.746 209.336C300.799 198.34 273.143 173.924 260.648 162.379C257.037 159.07 253.892 156.655 254.081 156.42C254.264 156.209 257.74 158.213 261.372 161.493C273.995 172.873 301.413 197.594 314.042 208.976C314.956 209.801 315.788 210.605 316.541 211.364C318.411 213.258 319.712 214.797 320.088 215.281Z" fill="#FFB300" fill-opacity="0.5"/>
</g>
</g>
<defs>
<clipPath id="clip0_4_7697">
<rect width="1055" height="690" fill="white"/>
</clipPath>
</defs>
</svg>
