<svg width="1104" height="690" viewBox="0 0 1104 690" fill="none" xmlns="http://www.w3.org/2000/svg">
<g clip-path="url(#clip0_4_7697)">
<mask id="mask0_4_7697" style="mask-type:luminance" maskUnits="userSpaceOnUse" x="0" y="0" width="1104" height="690">
<path d="M1104 0H0V690H1104V0Z" fill="white"/>
</mask>
<g mask="url(#mask0_4_7697)">
<path d="M951.246 419.716C953.208 417.437 951.127 413.622 947.009 410.703C935.533 402.605 913.394 387.559 901.615 379.801C897.411 376.991 892.252 376.74 889.783 379.603C887.323 382.457 888.621 387.202 892.982 389.821C905.357 397.267 927.714 411.294 939.701 419.191C943.941 421.953 949.289 421.982 951.246 419.716Z" fill="#FFB300" fill-opacity="0.5"/>
<path d="M874.145 369.895C876.721 366.892 875.148 362.502 870.902 359.727C866.157 356.668 860.204 352.852 855.43 349.822C851.161 347.081 845.525 347.382 842.612 350.771C842.612 350.771 842.606 350.772 842.609 350.771C839.698 354.149 840.765 359.153 845.221 361.676C850.153 364.514 856.332 368.082 861.242 370.945C865.653 373.513 871.567 372.887 874.145 369.895Z" fill="#FFB300" fill-opacity="0.5"/>
<path d="M826.733 341.339C829.776 337.802 828.593 332.94 824.304 330.223C815.585 324.783 801.749 316.227 792.985 310.853C788.67 308.168 782.349 309.262 778.764 313.426C775.181 317.585 775.862 323.028 780.384 325.476C789.498 330.452 803.876 338.368 812.924 343.43C817.415 345.916 823.687 344.876 826.733 341.339Z" fill="#C64242" fill-opacity="0.5"/>
<path d="M762.642 304.272C762.664 304.247 762.682 304.228 762.698 304.204C766.42 299.879 765.86 294.293 761.536 291.62C752.714 286.248 738.855 277.83 730.023 272.47C717.891 265.106 694.875 251.123 682.781 243.724C678.458 241.047 670.952 243.52 666.133 249.119C661.311 254.713 661.165 261.114 665.701 263.551C678.274 270.387 702.243 283.278 714.866 290.066C724.084 295.02 738.555 302.799 747.732 307.758C752.232 310.169 758.946 308.567 762.642 304.272Z" fill="#FFB300" fill-opacity="0.5"/>
<path d="M988.507 432.195C988.507 432.195 988.51 432.195 988.507 432.192C988.68 431.995 985.411 429.615 981.647 426.33C973.958 419.71 961.748 409.191 954.036 402.546C950.25 399.248 946.938 396.858 946.249 397.654C945.57 398.442 947.949 401.917 951.952 404.964C960.014 411.161 972.706 421.046 980.679 427.343C984.632 430.445 988.34 432.386 988.507 432.195Z" fill="#FFB300" fill-opacity="0.5"/>
<path d="M932.098 386.209C932.944 385.228 930.257 382.105 926.479 378.803C906.432 361.535 850.086 312.992 830.035 295.712C826.262 292.409 820.971 292.309 818.073 295.668C815.183 299.024 816.06 304.251 820.172 307.166C841.788 322.602 901.945 366.742 922.979 382.862C927.006 385.885 931.257 387.182 932.098 386.209Z" fill="#C64242" fill-opacity="0.5"/>
<path d="M803.737 284.429C806.868 280.798 806.246 275.281 802.47 271.97C791.872 262.842 771.731 245.481 761.14 236.358C761.14 236.358 761.135 236.352 761.129 236.35C756.9 232.705 751.593 228.139 747.361 224.487C743.585 221.177 736.709 222.918 732.043 228.333C727.391 233.736 727.001 240.419 731.124 243.328C735.688 246.596 741.417 250.688 745.984 253.949C757.412 262.117 779.109 277.641 790.523 285.831C794.64 288.754 800.613 288.06 803.737 284.429Z" fill="#FFB300" fill-opacity="0.5"/>
<path d="M1006.62 494.753C1006.62 494.753 1006.63 494.753 1006.63 494.751C1009.96 490.881 1009.01 485.737 1004.99 482.717C984.522 466.325 921.503 425.375 897.639 412.278C893.232 409.697 887.043 410.656 883.466 414.802C883.447 414.825 883.426 414.842 883.407 414.865C879.875 418.965 880.327 424.626 884.752 427.133C908.452 439.682 972.453 480.386 992.929 496.725C996.977 499.72 1003.31 498.602 1006.62 494.753Z" fill="#FFB300" fill-opacity="0.5"/>
<path d="M867.205 405.811C867.227 405.792 867.24 405.77 867.259 405.749C870.859 401.562 869.911 396.441 865.432 393.935C856.383 388.889 841.929 381.05 832.727 376.171C828.183 373.743 821.636 375.107 817.87 379.481C814.11 383.846 814.612 389.506 819.216 391.852C828.547 396.619 843.202 404.297 852.347 409.231C856.841 411.651 863.628 409.968 867.205 405.811Z" fill="#E63E4B" fill-opacity="0.5"/>
<path d="M801.194 370.97C805.006 366.549 804.205 361.243 799.62 358.862C783.065 350.294 749.085 333.294 732.611 325.189C727.975 322.879 720.915 324.831 716.809 329.594C712.711 334.358 713.167 340.065 717.881 342.284C734.613 350.167 769.257 366.794 785.722 375.001C790.367 377.295 797.385 375.384 801.194 370.97Z" fill="#C64242" fill-opacity="0.5"/>
<path d="M699.832 321.452C702.425 318.438 703.234 315.066 702.338 312.398C701.802 310.791 700.656 309.45 698.916 308.582C674.54 296.718 605.685 262.548 581.605 249.699C577.05 247.296 569.417 249.914 564.799 255.277C564.774 255.304 564.754 255.33 564.734 255.355C560.145 260.675 560.335 266.641 564.929 268.951C588.824 281.28 659.095 314.695 683.754 326.18C684.345 326.453 684.978 326.669 685.627 326.81C690.232 327.823 696.188 325.668 699.832 321.452Z" fill="#FFB300" fill-opacity="0.5"/>
<path d="M884.296 469.557C884.318 469.53 884.347 469.501 884.37 469.47C889.227 463.832 889.318 457.543 884.952 454.975C876.038 449.716 861.815 441.644 852.668 436.615C848.167 434.145 840.913 436.33 836.143 441.866C831.389 447.381 830.894 454.199 835.334 456.732C844.377 461.853 858.414 470.06 867.255 475.404C871.607 478.05 879.41 475.232 884.296 469.557Z" fill="#C64242" fill-opacity="0.5"/>
<path d="M819.795 432.965H819.801C824.52 427.477 824.416 421.369 819.857 418.975C814.773 416.3 808.379 412.998 803.263 410.368C798.665 408.016 791.371 410.232 786.76 415.588L786.754 415.594C782.15 420.934 781.91 427.448 786.463 429.87C791.514 432.569 797.84 435.965 802.864 438.691C807.373 441.158 815.081 438.451 819.795 432.965Z" fill="#C64242" fill-opacity="0.5"/>
<path d="M770.08 407.086C774.651 401.777 774.409 395.816 769.763 393.518C743.212 380.324 702.723 361.109 667.797 344.696C651.412 337 615.894 320.219 599.64 312.353C594.959 310.098 587.862 312.094 583.945 316.641C580.026 321.187 580.719 326.62 585.333 328.956C601.384 337.048 636.461 354.341 652.64 362.289C652.64 362.289 652.646 362.293 652.646 362.289C652.643 362.291 652.643 362.291 652.646 362.289C677.076 374.253 727.715 399.278 753.351 412.57C757.936 414.947 765.52 412.384 770.08 407.086Z" fill="#E63E4B" fill-opacity="0.5"/>
<path d="M857.91 528.053C864.322 520.604 865.762 512.7 861.51 509.939C852.942 504.318 839.258 495.613 830.503 490.204C826.171 487.536 818.032 490.75 811.978 497.776C805.948 504.775 804.167 513.076 808.35 515.913C816.834 521.622 830.163 530.769 838.512 536.636C842.632 539.544 851.502 535.494 857.91 528.053Z" fill="#E63E4B" fill-opacity="0.5"/>
<path d="M796.443 487.946C802.381 481.053 803.381 473.67 798.988 471.066C774.137 455.756 695.701 412.303 669.494 398.468C664.944 396.046 657.716 398.209 653.277 403.364C648.845 408.51 648.718 414.889 653.05 417.559C678.286 432.684 753.561 479.386 777.802 495.652C782.025 498.446 790.519 494.823 796.443 487.946Z" fill="#FFB300" fill-opacity="0.5"/>
<path d="M637.161 394.192C637.172 394.185 637.177 394.169 637.186 394.167C637.202 394.15 637.213 394.131 637.223 394.118C641.482 389.177 641.258 383.238 636.751 380.846C623.924 373.951 600.351 361.269 587.515 354.296C582.99 351.86 576.343 353.331 572.791 357.457C569.241 361.572 569.96 366.977 574.284 369.652C586.381 377.056 609.398 391.051 621.529 398.407C625.861 401.074 632.865 399.173 637.161 394.192Z" fill="#C64242" fill-opacity="0.5"/>
<path d="M790.632 578.279C790.654 578.256 790.672 578.232 790.689 578.21C798.42 569.243 801.107 559.889 797.091 556.849C785.964 548.328 764.672 532.325 753.397 523.978C749.337 521.004 740.756 524.724 733.931 532.641C733.899 532.678 733.866 532.723 733.832 532.761C727.078 540.6 724.395 549.895 728.153 553.167C738.748 562.3 758.957 579.71 769.567 588.85C773.337 592.152 782.949 587.206 790.632 578.279Z" fill="#C64242" fill-opacity="0.5"/>
<path d="M719.683 521.321C726.295 513.643 728.119 505.281 724.05 502.325C715.826 496.299 702.81 486.813 694.549 480.832C690.437 477.908 682.59 480.791 676.819 487.482C671.062 494.163 669.308 502.429 673.089 505.737C680.787 512.372 692.951 522.85 700.649 529.481C704.419 532.792 713.072 528.991 719.683 521.321Z" fill="#E63E4B" fill-opacity="0.5"/>
<path d="M662.502 476.232C662.532 476.198 662.556 476.168 662.586 476.132C668.066 469.763 669.096 462.398 665.009 459.503C656.705 453.529 643.614 444.134 635.283 438.173C631.157 435.266 624.119 437.201 619.51 442.548C614.909 447.889 614.205 454.943 617.971 458.252C625.702 464.911 637.808 475.351 645.536 481.999C649.309 485.307 656.971 482.645 662.502 476.232Z" fill="#FFB300" fill-opacity="0.5"/>
<path d="M605.17 431.324C609.536 426.267 609.708 419.83 605.577 416.92C591.324 406.74 560.412 384.612 546.205 374.383C542.095 371.464 536.33 371.91 533.488 375.211C530.652 378.508 531.523 383.719 535.304 387.033C548.519 398.416 577.205 423.125 590.422 434.516C594.195 437.828 600.801 436.39 605.17 431.324Z" fill="#C64242" fill-opacity="0.5"/>
<path d="M1107.17 545.228C1108.82 543.316 1106.81 539.408 1103.15 535.963C1095.77 528.971 1083.89 518.154 1076.26 511.456C1072.48 508.14 1068.56 506.46 1067.01 508.261C1065.46 510.045 1066.89 514.63 1070.65 517.96C1078.27 524.682 1090.05 535.606 1097.33 542.721C1100.93 546.236 1105.54 547.127 1107.17 545.228Z" fill="#FFB300" fill-opacity="0.5"/>
<path d="M1053.15 496.47C1053.16 496.458 1053.17 496.452 1053.17 496.441C1054.72 494.64 1052.47 491.021 1048.62 487.802C1040.81 481.289 1028.4 471.271 1020.37 464.985C1020.35 464.97 1020.33 464.951 1020.31 464.937C1009.34 456.227 988.103 440.179 976.726 431.941C972.662 428.967 968.183 427.928 966.295 430.116C964.426 432.289 965.947 436.759 970.112 439.617C981.748 447.552 1003.35 463.193 1014.43 471.761C1022.59 477.942 1035.19 487.899 1043.04 494.391C1046.89 497.558 1051.62 498.242 1053.15 496.47Z" fill="#FFB300" fill-opacity="0.5"/>
<path d="M1193.46 612.253C1194.58 610.951 1192.1 607.59 1188.27 604.347C1168.23 587.073 1111.87 538.523 1091.83 521.255C1088.01 517.992 1085.48 514.68 1085.67 514.451C1085.88 514.218 1088.7 517.18 1092.45 520.514C1112.55 537.718 1166.62 588.929 1184.84 608.319C1188.34 611.957 1192.34 613.546 1193.46 612.253Z" fill="#E63E4B" fill-opacity="0.5"/>
<path d="M1071.93 502.532C1071.72 502.78 1068.06 500.79 1064.26 497.505C1053.66 488.375 1033.52 471.026 1022.93 461.896L1022.92 461.894C1018.69 458.241 1013.39 453.672 1009.15 450.028C1005.35 446.739 1002.6 443.704 1002.52 443.794C1002.45 443.866 1005.2 446.903 1009.13 450.047C1013.48 453.559 1018.92 457.994 1023.24 461.53C1023.24 461.535 1023.24 461.54 1023.24 461.54C1034.09 470.38 1054.46 487.444 1065.05 496.589C1068.86 499.872 1072.15 502.277 1071.93 502.532Z" fill="#FFB300" fill-opacity="0.5"/>
<path d="M1136.91 622.163C1136.93 622.144 1136.94 622.126 1136.96 622.107C1140.44 618.076 1140.36 611.927 1137.14 607.959C1130.69 599.886 1120.12 587.557 1113.21 580.015C1109.79 576.277 1104.66 576.016 1101.3 579.911C1097.95 583.804 1097.63 590.401 1101.01 594.183C1107.88 601.797 1118.37 614.302 1124.74 622.473C1127.87 626.465 1133.48 626.149 1136.91 622.163Z" fill="#FFB300" fill-opacity="0.5"/>
<path d="M1088.7 566.656C1092.05 562.779 1091.51 557.174 1087.93 553.631C1075.18 540.623 1047.67 516.124 1033.72 505.098C1029.81 501.934 1024.34 502.049 1021.01 505.908C1017.7 509.744 1017.82 515.851 1021.73 519.007C1035.76 530.012 1063.43 554.754 1075.88 567.615C1079.43 571.179 1085.38 570.526 1088.7 566.656Z" fill="#C64242" fill-opacity="0.5"/>
<path d="M1138.05 704.424C1138.07 704.399 1138.1 704.367 1138.12 704.341C1142.82 698.88 1144.16 691.141 1141.36 686.758C1135.67 677.761 1126.26 664.104 1120 655.719C1116.95 651.579 1110.77 652.511 1105.85 658.219C1100.93 663.918 1099.19 672.177 1102.31 676.255C1108.65 684.512 1118.2 697.921 1124.04 706.76C1126.93 711.092 1133.33 709.912 1138.05 704.424Z" fill="#FFB300" fill-opacity="0.5"/>
<path d="M1094.32 643.723C1094.33 643.722 1094.33 643.722 1094.33 643.715C1099.28 637.964 1100.34 630.507 1097.08 626.599C1093.45 622.257 1088.8 616.9 1085.05 612.696C1081.68 608.925 1075.21 610.188 1070.18 616.017V616.018C1065.17 621.838 1063.52 629.981 1066.94 633.715C1070.72 637.884 1075.41 643.183 1079.08 647.486C1082.39 651.342 1089.39 649.46 1094.32 643.723Z" fill="#C64242" fill-opacity="0.5"/>
<path d="M1057.59 602.772C1062.63 596.919 1063.49 589.699 1059.92 586.134C1039.69 565.593 1007.11 537.217 976.974 515.24C963.07 504.66 931.51 483.291 916.424 474.07C912.112 471.379 904.948 473.448 900.015 479.179C895.098 484.892 894.254 492.104 898.527 494.842C913.483 504.202 944.865 525.786 958.724 536.421C958.727 536.425 958.721 536.421 958.721 536.421C958.727 536.429 958.724 536.421 958.727 536.425C980.204 551.8 1022.03 587.085 1041.66 607.339C1045.24 610.882 1052.56 608.61 1057.59 602.772Z" fill="#FFB300" fill-opacity="0.5"/>
<path d="M1063.97 706.822C1070.32 699.447 1072.52 690.671 1069.24 686.786C1051.42 663.301 988.114 602.302 964.81 585.091C960.925 581.913 952.624 585.308 945.818 593.207C939.026 601.093 936.266 610.54 940.134 613.74C963.163 631.427 1027.06 691.337 1045.98 713.777C1049.41 717.491 1057.63 714.182 1063.97 706.822Z" fill="#FFB300" fill-opacity="0.5"/>
<path d="M925.06 587.808C925.443 587.534 925.824 587.306 926.198 587.012C926.24 586.971 926.282 586.94 926.313 586.911C928.138 585.473 929.93 583.766 931.585 581.849C931.622 581.812 931.653 581.772 931.687 581.729C938.406 573.928 940.275 565.581 936.31 562.546C925.041 553.84 903.793 538.453 891.938 530.356C887.769 527.501 879.461 530.903 872.954 538.453C866.475 545.98 864.171 554.888 868.232 557.868C879.609 566.099 900.848 582.159 911.818 590.868C914.575 593.045 919.832 591.558 925.06 587.808Z" fill="#E63E4B" fill-opacity="0.5"/>
<path d="M930.111 695.019C930.151 694.967 930.196 694.918 930.236 694.867C938.734 685.007 942.197 674.803 938.451 671.516C930.79 664.801 918.619 654.357 910.8 647.772C906.956 644.546 897.305 649.511 888.742 659.448C880.201 669.361 875.966 680.521 879.766 683.795C887.494 690.446 899.601 700.881 907.321 707.537C911.123 710.816 921.551 704.954 930.111 695.019Z" fill="#E63E4B" fill-opacity="0.5"/>
<path d="M871.611 651.187C872.713 650.096 873.8 648.924 874.861 647.699C883.37 637.815 886.726 627.693 882.839 624.505C869.392 613.385 839.77 589.762 825.948 579.085C821.961 576.027 812.69 580.547 804.806 589.689C796.945 598.819 793.303 609.281 797.098 612.57C810.313 623.96 838.996 648.673 852.215 660.054C853.164 660.87 854.514 661.134 856.155 660.896C860.247 660.316 866.085 656.674 871.611 651.187Z" fill="#C64242" fill-opacity="0.5"/>
<path d="M364.269 42.2129C371.085 34.3041 373.972 24.7172 370.253 21.3486C359.835 12.0019 340.612 -6.41283 330.798 -16.4523C327.252 -20.0334 318.704 -16.3461 312.131 -8.71605C305.544 -1.07499 303.342 7.72527 306.786 11.4182C316.514 21.9407 335.101 40.3485 345.621 49.9367C349.304 53.3494 357.448 50.1382 364.269 42.2129Z" fill="#FFB300" fill-opacity="0.5"/>
<path d="M448.972 -0.367153C449.017 -0.415451 449.055 -0.463749 449.099 -0.514809C457.608 -10.3887 461.842 -21.4963 458.063 -24.7435C450.377 -31.3702 438.158 -41.8817 430.452 -48.5305C426.643 -51.8122 416.264 -45.9913 407.764 -36.1243C407.758 -36.1216 407.755 -36.1216 407.755 -36.1216C399.235 -26.2242 395.766 -15.9612 399.507 -12.6036C407.089 -5.85679 419.194 4.70435 426.911 11.3077C430.724 14.5727 440.387 9.60197 448.972 -0.367153Z" fill="#FFB300" fill-opacity="0.5"/>
<path d="M390.682 150.878H390.685C395.707 145.039 396.867 137.456 392.833 134.449C371.061 119.578 314.781 70.7912 297.096 50.5286C293.606 46.891 286.372 49.0396 281.371 54.8522C281.343 54.8812 281.32 54.9115 281.292 54.9391C276.314 60.7103 275.411 67.9594 278.843 71.6068C296.008 91.752 352.678 140.953 374.58 155.634C378.64 158.619 385.648 156.727 390.682 150.878Z" fill="#C64242" fill-opacity="0.5"/>
<path d="M269.046 41.2951C269.071 41.262 269.094 41.2358 269.116 41.2082C274.1 35.4219 275.785 27.2343 272.47 23.3883C265.759 15.6313 255.492 2.93666 249.242 -5.3806C246.137 -9.4654 239.426 -7.91152 234.571 -2.27698C229.709 3.36032 228.499 10.9986 231.551 15.1566C237.71 23.6077 247.874 36.4941 254.519 44.3311C257.774 48.1896 264.095 47.0359 269.046 41.2951Z" fill="#C64242" fill-opacity="0.5"/>
<path d="M275.773 117.072C275.79 117.05 275.805 117.035 275.824 117.013C279.116 113.194 279.269 106.835 275.725 103.311C268.458 96.1239 257.375 84.4256 250.551 76.6921C247.187 72.9095 241.386 73.3856 238.004 77.3186C234.608 81.2613 234.953 87.1001 238.346 90.8578C245.215 98.4961 256.335 110.087 263.631 117.238C267.213 120.767 272.456 120.925 275.773 117.072Z" fill="#FFB300" fill-opacity="0.5"/>
<path d="M226.11 63.2536C226.11 63.2536 226.113 63.2536 226.116 63.2522C229.528 59.2916 230.035 52.4647 226.868 48.4586C223.339 43.9874 218.995 38.288 215.593 33.6691C212.553 29.5167 206.968 29.7541 203.456 33.8278C199.93 37.9154 199.865 44.2275 202.973 48.3178C206.429 52.8801 210.835 58.4967 214.406 62.9113C217.624 66.8692 222.692 67.2252 226.11 63.2536Z" fill="#FFB300" fill-opacity="0.5"/>
<path d="M192.714 18.4284C196.277 14.294 197.102 7.10691 194.272 2.69781C177.879 -22.3312 155.934 -63.1089 140.956 -102.702C138.923 -107.971 133.974 -108.418 129.814 -103.588C129.792 -103.564 129.771 -103.54 129.749 -103.515C125.552 -98.637 123.855 -90.4342 126.039 -85.2786C136.794 -57.4426 164.479 -5.77125 181.248 17.8171C184.148 22.1379 189.151 22.567 192.714 18.4284Z" fill="#FFB300" fill-opacity="0.5"/>
<path d="M270.938 150.553C272.485 148.757 271.124 144.09 267.437 140.681C259.963 133.801 248.408 122.613 241.279 115.322C237.753 111.721 233.163 110.804 231.463 112.781C229.755 114.764 231.649 118.807 235.25 122.309C242.52 129.44 254.228 140.461 261.758 147.281C265.475 150.638 269.377 152.364 270.938 150.553Z" fill="#C64242" fill-opacity="0.5"/>
<path d="M218.795 99.618C220.571 97.5618 219.601 92.4516 216.227 88.6746C195.572 68.4866 142.507 -4.39952 128.777 -32.7226C126.176 -37.3884 121.139 -37.79 117.587 -33.6652C114.029 -29.5362 113.592 -22.7894 116.544 -18.5197C132.341 7.56094 188.544 76.4119 209.583 96.3791C213.083 100.014 217.019 101.682 218.795 99.618Z" fill="#C64242" fill-opacity="0.5"/>
<path d="M252.195 144.436C252.198 144.436 252.195 144.436 252.198 144.438C252.039 144.625 249.282 141.587 245.554 138.219C235.139 128.871 215.658 110.763 205.585 101.026C201.977 97.5232 198.411 95.4201 198.038 95.8438C198.038 95.8438 198.038 95.8493 198.035 95.852C197.659 96.2867 200.781 98.8577 204.568 102.095C215.161 111.22 235.375 128.631 245.988 137.779C249.788 141.022 252.34 144.265 252.195 144.436Z" fill="#E63E4B" fill-opacity="0.5"/>
<path d="M184.662 83.5161C185.204 82.8882 183.085 79.107 179.538 75.5287C172.333 68.3416 161.058 56.8172 154.019 49.4246C150.561 45.7414 146.364 44.3793 144.928 46.0477C143.48 47.7217 145.671 51.409 149.509 54.6617C157.204 61.2885 169.374 71.7723 177.066 78.4005C180.901 81.6421 184.109 84.1509 184.662 83.5161Z" fill="#C64242" fill-opacity="0.5"/>
<path d="M131.824 33.3821C131.833 33.3711 131.841 33.3614 131.849 33.3504C133.569 31.3549 132.454 26.4656 129.103 22.7258C122.175 15.1551 111.426 3.05526 104.685 -4.76796C101.405 -8.65128 96.1306 -8.77272 92.998 -5.13366C89.8612 -1.49046 90.5402 3.95778 94.3945 7.17456C102.117 13.8289 114.232 24.2659 121.946 30.9147C125.798 34.1439 130.087 35.3928 131.824 33.3821Z" fill="#FFB300" fill-opacity="0.5"/>
<path d="M650.093 239.865C655.055 234.113 655.694 227.125 651.382 224.434C639.323 217.006 616.523 202.73 604.615 195.12C600.353 192.371 592.119 195.709 586.469 202.251C580.831 208.801 580.073 215.916 584.518 218.448C597.083 225.684 620.304 238.711 633.05 245.708C637.565 248.164 645.13 245.626 650.093 239.865Z" fill="#FFB300" fill-opacity="0.5"/>
<path d="M570.743 192.651C570.746 192.648 570.748 192.644 570.748 192.644C576.508 185.958 577.974 178.009 573.751 175.226C569.029 172.144 563.127 168.255 558.43 165.142C554.231 162.328 545.636 166.068 539.577 173.104H539.574C533.505 180.152 532.4 187.666 536.755 190.306C541.599 193.244 547.695 196.912 552.571 199.812C556.975 202.394 564.977 199.338 570.743 192.651Z" fill="#C64242" fill-opacity="0.5"/>
<path d="M524.138 163.15C530.302 155.994 532.218 147.533 528.074 144.662C519.632 138.891 506.403 129.636 498.115 123.695C494.034 120.743 485.096 124.883 478.591 132.43C472.081 139.991 470.543 148.009 474.748 150.824C483.229 156.542 496.8 165.39 505.477 170.882C509.766 173.586 517.961 170.315 524.138 163.15Z" fill="#C64242" fill-opacity="0.5"/>
<path d="M463.596 121.973C463.63 121.94 463.658 121.898 463.692 121.861C470.271 114.229 472.69 105.186 468.655 102.17C460.48 96.0742 447.804 86.3728 439.794 80.0551C439.774 80.0358 439.763 80.0234 439.74 80.0027C428.678 71.4053 408.099 54.5734 397.526 45.4199C393.717 42.1479 384.709 46.3583 377.885 54.2822C371.056 62.2034 368.986 70.8436 372.804 74.117C383.378 83.2829 404.092 99.9451 415.304 108.373C423.423 114.599 436.377 124.142 444.726 130.054C448.813 132.944 457.06 129.55 463.596 121.973Z" fill="#E63E4B" fill-opacity="0.5"/>
<path d="M717.704 217.11C717.729 217.081 717.753 217.052 717.778 217.027C722.634 211.39 723.603 204.07 719.856 200.795C712.167 194.164 699.956 183.649 692.245 177.001C688.466 173.689 680.547 176.645 674.735 183.392C674.735 183.392 674.733 183.395 674.73 183.4C668.924 190.147 667.692 197.815 671.797 200.735C680.055 206.706 693.15 216.124 701.436 222.065C705.559 224.976 712.804 222.802 717.704 217.11Z" fill="#C64242" fill-opacity="0.5"/>
<path d="M660.434 172.133C666.466 165.128 668.463 156.576 664.685 153.264C644.638 135.996 588.287 87.4423 568.244 70.1826C564.457 66.8761 554.644 72.0277 546.754 81.1923C538.854 90.361 536.019 99.8844 540.007 102.945C560.852 119.279 620.678 163.805 642.243 179.314C646.343 182.252 654.397 179.139 660.434 172.133Z" fill="#FFB300" fill-opacity="0.5"/>
<path d="M532.66 69.6651C540.689 60.3487 544.479 49.7158 540.679 46.43C530.084 37.2958 509.934 19.9437 499.344 10.8178C499.344 10.8178 499.331 10.8178 499.336 10.8067C495.105 7.1649 489.803 2.59572 485.571 -1.05162C481.77 -4.34292 471.363 1.51242 462.812 11.4346C454.257 21.3706 450.836 31.5661 454.699 34.7801C458.989 38.3584 464.393 42.8172 468.719 46.3638C468.719 46.3638 468.719 46.3638 468.722 46.3666C479.519 55.2703 500.258 71.9104 511.281 80.5547C515.238 83.6417 524.626 79.0022 532.66 69.6651Z" fill="#FFB300" fill-opacity="0.5"/>
<path d="M548.151 246.736C548.176 246.708 548.197 246.683 548.221 246.66C552.882 241.256 553.202 234.636 548.691 232.183C539.545 227.242 525.199 219.274 516.223 214.139C511.781 211.599 504.013 214.379 499.208 219.964C494.397 225.551 494.408 231.778 498.891 234.259C507.982 239.297 522.523 247.112 531.768 251.935C536.302 254.301 543.52 252.106 548.151 246.736Z" fill="#FFB300" fill-opacity="0.5"/>
<path d="M483.15 210.726C487.988 205.105 488.667 198.085 484.301 195.459C468.423 186.092 437.093 166.015 422.506 155.727C418.36 152.849 410.576 155.646 405.564 161.459C400.545 167.285 400.224 173.898 404.399 176.742C419.099 186.976 450.912 206.902 466.666 215.931C471.075 218.504 478.294 216.361 483.15 210.726Z" fill="#E63E4B" fill-opacity="0.5"/>
<path d="M567.109 308.31C567.131 308.289 567.149 308.266 567.169 308.246C571.012 303.785 570.514 298.183 565.894 295.905C556.454 291.254 541.673 283.829 532.338 279.018C527.742 276.666 520.804 278.477 517.104 282.767C513.4 287.07 514.293 292.273 518.823 294.703C528.047 299.62 542.603 307.22 551.929 312.003C556.517 314.372 563.241 312.807 567.109 308.31Z" fill="#FFB300" fill-opacity="0.5"/>
<path d="M500.635 274.021C500.635 274.021 500.638 274.014 500.638 274.011C504.292 269.772 503.81 264.102 499.269 261.673C494.236 258.961 487.937 255.529 482.932 252.77C478.444 250.286 471.647 251.94 468.094 256.067H468.092C464.526 260.202 465.518 265.299 469.952 267.84C474.898 270.657 481.13 274.16 486.119 276.932C490.598 279.432 496.975 278.269 500.635 274.021Z" fill="#C64242" fill-opacity="0.5"/>
<path d="M452.037 246.842C455.554 242.757 455.122 237.023 450.708 234.451C425.436 219.773 388.497 196.429 358.633 174.156C344.386 163.972 314.934 140.15 302.137 128.275C298.399 124.914 292.324 125.73 289.024 129.564C285.709 133.416 286.423 138.814 290.164 142.173C302.986 154.014 332.384 177.894 346.563 188.158C346.574 188.164 346.569 188.16 346.569 188.16C367.412 204.279 413.364 234.767 438.031 249.166C442.397 251.796 448.505 250.943 452.037 246.842Z" fill="#C64242" fill-opacity="0.5"/>
<path d="M556.757 348.2C560.172 344.249 559.387 338.912 554.879 336.451C545.782 331.45 531.461 323.469 522.449 318.361C517.977 315.86 511.83 316.758 508.948 320.109C506.061 323.453 507.387 328.153 511.663 330.884C520.35 336.361 534.141 344.959 542.893 350.361C547.202 353.054 553.345 352.166 556.757 348.2Z" fill="#C64242" fill-opacity="0.5"/>
<path d="M493.143 310.591C495.897 307.396 494.744 302.482 490.323 299.929C464.53 285.712 389.516 238.312 366.493 220.763C362.385 217.836 357.319 217.484 355.62 219.454C353.915 221.436 356.157 225.067 360.173 228.101C383.008 246.026 455.71 295.71 480.659 311.148C484.908 313.903 490.38 313.801 493.143 310.591Z" fill="#FFB300" fill-opacity="0.5"/>
<path d="M338.903 209.36C339.056 209.357 339.214 209.365 339.356 209.351C339.375 209.346 339.385 209.35 339.401 209.346C340.064 209.244 340.631 208.977 341.03 208.508C341.041 208.497 341.046 208.49 341.057 208.479C342.697 206.586 341.157 202.171 337.178 199.156C325.796 190.596 305.411 174.199 294.622 164.858C290.81 161.588 286.088 160.829 284.552 162.619C283.002 164.415 285.223 168.077 289.034 171.348C299.608 180.5 320.183 197.333 331.246 205.937C334.017 208.105 336.852 209.412 338.903 209.36Z" fill="#E63E4B" fill-opacity="0.5"/>
<path d="M519.155 363.983C519.163 363.974 519.168 363.965 519.174 363.96C521.786 360.932 520.715 355.937 516.606 353.011C505.229 344.778 483.701 329.062 472.415 320.716C468.351 317.742 463.575 317.04 462.071 318.794C462.06 318.802 462.052 318.81 462.046 318.819C460.542 320.562 462.606 324.343 466.359 327.64C476.957 336.759 497.16 354.174 507.775 363.314C511.538 366.609 516.553 367 519.155 363.983Z" fill="#FFB300" fill-opacity="0.5"/>
<path d="M447.838 307.446C449.155 305.923 447.193 301.959 443.143 298.966C434.995 292.875 422.149 283.177 414.063 276.995C410.053 273.96 405.961 272.478 405.309 273.223C404.659 273.987 407.52 276.894 411.301 280.199C418.996 286.833 431.162 297.311 438.858 303.944C442.643 307.239 446.513 308.985 447.838 307.446Z" fill="#FFB300" fill-opacity="0.5"/>
<path d="M391.184 261.747C391.187 261.742 391.193 261.742 391.195 261.738C391.691 261.162 389.215 257.843 385.26 254.8C377.204 248.535 364.6 238.606 356.614 232.219C352.684 229.091 349.081 227.031 349.038 227.077C348.981 227.141 352.397 229.422 356.186 232.715C363.906 239.368 376.024 249.806 383.741 256.455C387.537 259.746 390.678 262.336 391.184 261.747Z" fill="#C64242" fill-opacity="0.5"/>
<path d="M334.955 215.281C335.039 215.378 335.068 215.43 335.065 215.436C335.025 215.481 332.211 212.502 328.318 209.336C314.769 198.34 285.829 173.924 272.754 162.379C268.975 159.07 265.684 156.655 265.881 156.42C266.073 156.209 269.711 158.213 273.512 161.493C286.721 172.873 315.412 197.594 328.627 208.976C329.584 209.801 330.454 210.605 331.242 211.364C333.199 213.258 334.561 214.797 334.955 215.281Z" fill="#FFB300" fill-opacity="0.5"/>
</g>
</g>
<defs>
<clipPath id="clip0_4_7697">
<rect width="1104" height="690" fill="white"/>
</clipPath>
</defs>
</svg>
