<svg width="246" height="132" viewBox="0 0 246 132" fill="none" xmlns="http://www.w3.org/2000/svg">
<path d="M96.469 25.1696C93.9084 25.1696 91.825 23.1038 91.825 20.5642C91.825 18.0246 93.9084 15.9587 96.469 15.9587C99.0301 15.9587 101.113 18.0246 101.113 20.5642C101.113 23.1038 99.0301 25.1696 96.469 25.1696ZM96.469 16.4498C94.1816 16.4498 92.3202 18.2955 92.3202 20.5642C92.3202 22.8328 94.1816 24.6786 96.469 24.6786C98.7569 24.6786 100.618 22.8328 100.618 20.5642C100.618 18.2955 98.7569 16.4498 96.469 16.4498Z" fill="white"/>
<path d="M92.549 22.7484C92.5374 22.7484 92.5253 22.748 92.5137 22.746C92.3778 22.7268 92.2839 22.6026 92.3033 22.4684C92.3135 22.3979 92.3251 22.3283 92.3377 22.2593C92.3618 22.125 92.492 22.0354 92.6254 22.0612C92.7603 22.0852 92.8498 22.2133 92.8252 22.3466C92.8135 22.4099 92.803 22.4736 92.7937 22.5374C92.7762 22.6602 92.6704 22.7484 92.549 22.7484ZM93.0418 21.153C93.0055 21.153 92.9687 21.1453 92.9339 21.1285C92.8106 21.0695 92.7593 20.9228 92.8189 20.8005C92.9683 20.4936 93.1467 20.1978 93.3489 19.9215C93.4296 19.8113 93.5849 19.7872 93.6951 19.8669C93.8058 19.9465 93.8306 20.1004 93.7502 20.2103C93.565 20.463 93.402 20.7334 93.2647 21.0144C93.2221 21.1022 93.1336 21.153 93.0418 21.153ZM94.5699 19.2464C94.4979 19.2464 94.4263 19.2152 94.377 19.1553C94.2914 19.0498 94.3078 18.8949 94.4142 18.8095C94.6817 18.5956 94.9703 18.4038 95.2731 18.2398C95.3916 18.1741 95.5439 18.2177 95.6091 18.3372C95.6749 18.4561 95.6309 18.6057 95.5109 18.6705C95.2343 18.821 94.9698 18.9966 94.7256 19.1922C94.6797 19.2287 94.6246 19.2464 94.5699 19.2464ZM100.175 18.4312C100.144 18.4312 100.112 18.425 100.082 18.413C99.7898 18.295 99.4857 18.2025 99.1781 18.1378C99.0441 18.1099 98.9585 17.9795 98.9871 17.8467C99.0151 17.7139 99.1452 17.6271 99.2806 17.6573C99.6172 17.7278 99.9494 17.829 100.269 17.9575C100.395 18.0088 100.456 18.1522 100.405 18.2778C100.366 18.3732 100.273 18.4312 100.175 18.4312ZM96.7736 18.1737C96.6614 18.1737 96.5599 18.098 96.5328 17.9852C96.5008 17.8529 96.5831 17.7205 96.7161 17.6893C97.0497 17.6102 97.394 17.5608 97.7383 17.5412C97.8922 17.5503 97.9923 17.6376 97.9999 17.7728C98.0072 17.9085 97.9028 18.0245 97.7664 18.0322C97.4511 18.0494 97.1362 18.095 96.8311 18.1669C96.8118 18.1718 96.7925 18.1737 96.7736 18.1737Z" fill="white"/>
<path d="M93.579 22.3706C93.5481 22.3706 93.5166 22.3643 93.4861 22.3523C93.3594 22.3015 93.298 22.1581 93.3493 22.0325C93.4779 21.7174 93.6361 21.4105 93.8199 21.1208C93.8943 21.0062 94.0476 20.9736 94.1618 21.0437C94.2774 21.1161 94.3122 21.2681 94.2397 21.3827C94.0713 21.6479 93.9263 21.9284 93.8088 22.2166C93.7695 22.3121 93.6772 22.3706 93.579 22.3706ZM94.9781 20.3695C94.9113 20.3695 94.8446 20.3431 94.7958 20.2904C94.7029 20.1907 94.7097 20.0353 94.8103 19.9432C95.0642 19.7116 95.3398 19.5011 95.6286 19.3183C95.7446 19.2473 95.897 19.2795 95.971 19.3931C96.0445 19.5077 96.0106 19.6597 95.8956 19.7326C95.6305 19.9 95.3786 20.0922 95.146 20.3047C95.0985 20.3484 95.038 20.3695 94.9781 20.3695ZM100.517 19.1875C100.491 19.1875 100.465 19.1832 100.439 19.1745C100.139 19.0767 99.8299 19.0042 99.519 18.9606C99.3836 18.9419 99.2893 18.8172 99.3087 18.683C99.328 18.5487 99.4581 18.4571 99.5886 18.4744C99.9286 18.5218 100.267 18.6004 100.594 18.7084C100.725 18.7506 100.795 18.8896 100.752 19.0186C100.717 19.1217 100.621 19.1875 100.517 19.1875ZM97.1054 19.1534C96.9995 19.1534 96.9018 19.0858 96.8689 18.9803C96.8283 18.8503 96.9013 18.7127 97.0319 18.6729C97.3597 18.5722 97.6997 18.4998 98.0426 18.4581C98.1726 18.4419 98.3017 18.5373 98.3187 18.6725C98.3351 18.8072 98.2384 18.9295 98.1025 18.9463C97.7892 18.9842 97.4782 19.0498 97.1788 19.1419C97.1542 19.1496 97.1295 19.1534 97.1054 19.1534Z" fill="white"/>
<path d="M76.7203 122.443C76.6311 122.885 76.2845 123.19 76.0468 123.357C76.1161 123.543 76.1755 123.818 76.0964 124.084C76.027 124.319 75.8685 124.506 75.6209 124.624C75.2644 124.8 74.9178 124.751 74.6305 124.614C74.5216 124.565 74.4325 124.496 74.3433 124.427C74.2442 124.349 74.1551 124.26 74.0758 124.182C74.0362 124.133 73.9966 124.074 73.957 124.005C73.9471 123.995 73.9471 123.985 73.9372 123.975C73.9075 123.867 73.9372 123.74 74.0363 123.671C74.165 123.583 74.3433 123.602 74.4325 123.73C74.4523 123.759 74.4721 123.779 74.4919 123.799C74.6305 123.956 75.0069 124.309 75.3634 124.133C75.5021 124.064 75.5418 123.975 75.5615 123.926C75.621 123.73 75.5021 123.475 75.4526 123.386C75.413 123.317 75.4031 123.239 75.423 123.16C75.4427 123.092 75.5022 123.023 75.5715 122.993H75.5814C75.6408 122.964 75.8586 122.846 76.0172 122.64C76.0865 122.551 76.1459 122.443 76.1657 122.326C76.2252 122.07 76.1062 121.785 75.8191 121.471C74.9872 120.538 74.3731 119.517 73.254 117.651C72.7983 116.895 72.2536 116.001 71.5802 114.911C70.045 112.407 69.5399 111.1 69.1636 109.951C69.124 109.814 69.0745 109.686 69.0349 109.549C69.0151 109.48 68.9952 109.411 68.9655 109.342C68.8467 108.959 68.7179 108.576 68.5397 108.144C68.4703 107.967 68.3911 107.801 68.302 107.643C68.193 107.437 68.084 107.26 67.9652 107.093C67.4997 106.426 66.9946 106.003 66.6876 105.777C66.5292 105.669 66.4301 105.611 66.4202 105.611C66.3607 105.581 66.3212 105.522 66.2915 105.463C66.2915 105.463 66.2716 105.424 66.2518 105.365C66.0637 104.923 65.1426 103.008 62.8548 101.574C62.7755 101.525 62.7062 101.476 62.6269 101.446H62.617C62.2308 101.221 61.8742 101.113 61.5573 101.093C61.2305 101.054 60.9234 101.103 60.6264 101.211C60.4579 101.27 60.2896 101.348 60.1213 101.446C59.8439 101.594 59.5666 101.78 59.2596 101.997C59.2299 102.016 59.1903 102.036 59.1507 102.065C59.0318 102.144 58.9031 102.232 58.7743 102.321C58.4575 102.527 58.1107 102.743 57.7344 102.939C57.5661 103.028 57.3977 103.106 57.2194 103.185C56.9619 103.293 56.6846 103.391 56.3974 103.47C56.2587 103.509 56.1299 103.548 56.0012 103.597C55.813 103.647 55.6347 103.705 55.4664 103.784C54.9415 103.971 54.4562 104.216 54.0501 104.501C53.8818 104.599 53.7233 104.707 53.5846 104.825C53.0696 105.247 52.713 105.719 52.5446 106.21C52.2772 106.966 52.4653 107.771 53.0893 108.606C53.8222 109.568 54.2283 110.001 54.6245 110.413C55.0206 110.835 55.3871 111.218 56.0309 112.092C56.1398 112.249 56.2686 112.426 56.3973 112.613C56.526 112.799 56.6746 113.006 56.8232 113.241C56.9421 113.399 57.051 113.575 57.1698 113.762C57.3877 114.076 57.6155 114.43 57.873 114.823C57.9225 114.891 57.9622 114.96 58.0116 115.029C58.1304 115.225 58.2493 115.402 58.3781 115.569C59.4575 117.16 60.2895 118.063 60.9828 118.82C62.0624 119.998 62.8447 120.843 63.7559 123.288C65.1029 126.853 65.6377 127.835 66.3013 127.904H66.3112C66.44 127.923 66.5786 127.904 66.7371 127.855C66.7767 127.845 66.8164 127.825 66.8559 127.806C67.6482 127.501 67.7968 126.529 67.8166 126.274C67.8265 126.234 67.8265 126.215 67.8265 126.215C67.8364 126.087 67.9255 125.979 68.0444 125.949C68.0444 125.949 68.1236 125.93 68.2524 125.89C68.6882 125.763 69.7677 125.37 70.8374 124.486C71.8872 123.622 72.8281 123.2 73.3232 123.023C73.5313 122.944 73.66 122.915 73.6798 122.905C73.7986 122.875 73.9175 122.925 73.9868 123.023C74.0066 123.052 74.0165 123.082 74.0264 123.111C74.0562 123.258 73.967 123.416 73.8184 123.455C73.8184 123.455 73.7491 123.475 73.6302 123.514C73.244 123.641 72.2734 124.034 71.1939 124.908C69.9954 125.89 68.8267 126.313 68.3712 126.44C68.3613 126.529 68.3415 126.627 68.3117 126.745V126.755C68.282 126.873 68.2425 127 68.1929 127.138C67.9949 127.629 67.6284 128.179 66.9054 128.395C66.7173 128.444 66.539 128.473 66.3806 128.473C65.2218 128.473 64.578 127.049 63.2311 123.484C62.3497 121.147 61.6068 120.322 60.567 119.193C59.7647 118.319 58.7644 117.219 57.3977 115.117C57.051 114.577 56.744 114.115 56.4865 113.722C56.4667 113.703 56.4469 113.683 56.437 113.654C56.1597 113.251 55.9319 112.917 55.7239 112.632C55.6843 112.563 55.6348 112.514 55.5952 112.456C54.9712 111.591 54.6147 111.208 54.2185 110.796C53.8322 110.383 53.3964 109.932 52.6438 108.94C52.1387 108.262 51.8812 107.584 51.8713 106.917C51.8613 106.612 51.9109 106.318 52.0099 106.023C52.0099 106.013 52.0198 106.003 52.0198 105.993C52.2674 105.316 52.7923 104.687 53.5351 104.167C54.06 103.784 54.7038 103.45 55.4366 103.195C55.4565 103.175 55.4862 103.175 55.506 103.165C55.7437 103.077 55.9913 102.998 56.2488 102.929C57.2987 102.645 58.1107 102.095 58.8338 101.604C59.7251 100.995 60.5867 100.405 61.6762 100.543C61.7059 100.543 61.7257 100.543 61.7554 100.553C61.7653 100.553 61.7852 100.563 61.7951 100.563C61.9733 100.582 62.1417 100.631 62.3299 100.7C62.5874 100.788 62.8646 100.926 63.1519 101.103C65.6477 102.654 66.5886 104.707 66.7867 105.178C67.0541 105.345 67.8266 105.876 68.4803 106.858C68.5199 106.907 68.5496 106.956 68.5693 107.005C68.5693 107.015 68.5693 107.025 68.5793 107.034C68.7575 107.309 68.9259 107.594 69.0646 107.938C69.2528 108.419 69.4013 108.842 69.54 109.274C69.5498 109.313 69.5598 109.342 69.5697 109.382C69.9659 110.609 70.3719 111.866 72.0655 114.616C72.7389 115.706 73.2837 116.61 73.7294 117.366C74.8683 119.261 75.4427 120.214 76.235 121.098C76.6509 121.55 76.8094 122.002 76.7203 122.443Z" fill="white"/>
<path d="M66.2716 106.386C66.3013 106.544 66.2022 106.681 66.0438 106.711C66.0239 106.72 66.0141 106.72 65.9942 106.72C65.8655 106.72 65.7565 106.632 65.7169 106.504C65.7169 106.494 65.7169 106.494 65.7169 106.494C65.5783 105.748 63.1221 102.831 61.5573 101.093C61.5275 101.063 61.5077 101.034 61.478 101.005C61.3691 100.887 61.3789 100.72 61.4977 100.612C61.5473 100.563 61.6166 100.543 61.6761 100.543C61.7058 100.543 61.7256 100.543 61.7553 100.553C61.7652 100.553 61.785 100.563 61.795 100.563C61.8247 100.582 61.8643 100.602 61.8939 100.631C61.9534 100.69 62.0623 100.818 62.2208 100.995C62.3297 101.122 62.4684 101.27 62.6169 101.446H62.6268C63.647 102.615 65.4197 104.697 66.0437 105.846C66.1626 106.062 66.2419 106.249 66.2716 106.386Z" fill="white"/>
<path d="M65.3108 108.076C65.2613 108.115 65.192 108.135 65.1326 108.135C65.0534 108.135 64.9741 108.105 64.9146 108.036C64.875 107.987 64.8453 107.948 64.8057 107.909C64.3006 107.28 63.8352 106.75 63.3795 106.239C62.1613 104.864 61.1016 103.676 60.1211 101.447C60.0914 101.397 60.0716 101.348 60.0518 101.299C59.9923 101.162 60.0518 100.995 60.2003 100.936C60.3389 100.867 60.5073 100.936 60.5668 101.083C60.5865 101.132 60.6064 101.172 60.6262 101.211C61.577 103.371 62.5674 104.481 63.8054 105.876C64.2313 106.357 64.6769 106.858 65.1425 107.437C65.2118 107.516 65.2811 107.594 65.3504 107.683C65.4495 107.801 65.4297 107.977 65.3108 108.076Z" fill="white"/>
<path d="M63.8451 109.637C63.7955 109.686 63.7262 109.706 63.6667 109.706C63.5875 109.706 63.5083 109.667 63.4489 109.608C63.4489 109.608 63.4093 109.559 63.34 109.48C63.0231 109.097 62.0327 107.918 61.1017 106.681C60.1311 105.404 59.1011 103.067 58.7742 102.321C58.7148 102.193 58.6851 102.105 58.6752 102.085C58.6157 101.938 58.6851 101.781 58.8336 101.722C58.9722 101.663 59.1406 101.731 59.2001 101.869C59.2001 101.869 59.2199 101.918 59.2595 101.997C59.5071 102.586 60.5866 105.07 61.5473 106.347C62.4486 107.545 63.4291 108.714 63.7559 109.107C63.8253 109.195 63.8747 109.244 63.8747 109.244C63.9837 109.362 63.964 109.539 63.8451 109.637Z" fill="white"/>
<path d="M61.9633 110.875C61.9039 110.924 61.8445 110.943 61.7751 110.943C61.6958 110.943 61.6167 110.914 61.5671 110.845C61.5573 110.835 61.4978 110.767 61.3988 110.639C61.1115 110.276 60.5074 109.46 59.8339 108.243C59.0713 106.868 57.6451 104.02 57.2193 103.185C57.1499 103.038 57.1004 102.949 57.1004 102.949C57.0311 102.812 57.0905 102.645 57.2291 102.576C57.3678 102.507 57.5362 102.556 57.6055 102.694C57.6055 102.704 57.655 102.792 57.7342 102.939C58.1601 103.794 59.5764 106.612 60.3291 107.977C61.0422 109.284 61.7058 110.128 61.9138 110.393C61.9633 110.452 61.993 110.482 61.993 110.482C62.092 110.6 62.0821 110.776 61.9633 110.875Z" fill="white"/>
<path d="M60.1211 111.336C60.1806 111.483 60.1013 111.641 59.9626 111.69C59.923 111.709 59.8933 111.709 59.8636 111.709C59.7448 111.709 59.6358 111.641 59.5961 111.533C59.5961 111.533 59.5764 111.474 59.5169 111.346C59.398 111.051 59.091 110.364 58.4968 109.126C57.7738 107.604 55.9514 104.599 55.4661 103.784C55.3869 103.656 55.3374 103.588 55.3374 103.578C55.2581 103.45 55.2978 103.273 55.4365 103.195C55.4563 103.175 55.486 103.175 55.5058 103.165C55.6246 103.136 55.7534 103.175 55.8227 103.293C55.8327 103.312 55.902 103.43 56.001 103.597C56.5754 104.54 58.2888 107.378 59.0118 108.891C59.6358 110.187 59.9329 110.884 60.0518 111.169C60.1014 111.277 60.1211 111.326 60.1211 111.336Z" fill="white"/>
<path d="M57.8135 112.24C57.7739 112.269 57.7243 112.279 57.6749 112.279C57.5758 112.279 57.4867 112.23 57.4372 112.141C57.4273 112.132 57.3777 112.043 57.2886 111.886C57.1104 111.572 56.7934 110.963 56.4072 110.099C55.9318 109.018 54.1392 105.807 53.5846 104.825C53.4955 104.648 53.4361 104.55 53.4261 104.54C53.3568 104.412 53.3964 104.236 53.535 104.167C53.6737 104.088 53.8421 104.138 53.9213 104.265C53.9312 104.285 53.9808 104.373 54.0501 104.501C54.5749 105.434 56.4172 108.734 56.9222 109.873C57.3778 110.904 57.7442 111.562 57.8631 111.778C57.8928 111.827 57.9126 111.857 57.9126 111.857C57.9918 111.984 57.9522 112.161 57.8135 112.24Z" fill="white"/>
<path d="M59.517 111.346C58.9327 111.523 58.3682 111.67 57.8631 111.778C57.7442 111.562 57.3778 110.904 56.9222 109.873C56.4172 108.734 54.5749 105.434 54.0501 104.501C54.4561 104.216 54.9414 103.971 55.4664 103.784C55.9516 104.599 57.774 107.604 58.497 109.126C59.0911 110.364 59.3981 111.051 59.517 111.346Z" fill="#FFB300"/>
<path d="M63.34 109.48C63.0032 109.765 62.6269 110.03 62.2208 110.246C62.1218 110.305 62.0227 110.354 61.9138 110.393C61.7058 110.128 61.0422 109.284 60.3291 107.977C59.5765 106.612 58.1601 103.794 57.7343 102.939C58.1106 102.743 58.4573 102.527 58.7742 102.321C59.101 103.067 60.1311 105.404 61.1017 106.681C62.0327 107.918 63.023 109.097 63.34 109.48Z" fill="#FFB300"/>
<path d="M65.7169 106.494C65.7169 106.494 65.7169 106.494 65.7169 106.504C65.5585 106.779 65.3703 107.103 65.1425 107.437C64.6769 106.858 64.2313 106.357 63.8054 105.876C62.5674 104.481 61.577 103.371 60.6262 101.211C60.9233 101.103 61.2304 101.054 61.5572 101.093C63.1221 102.831 65.5783 105.748 65.7169 106.494Z" fill="#FFB300"/>
<path d="M66.7866 105.532C66.7766 105.552 66.747 105.64 66.6876 105.778C66.3409 106.612 65.0237 109.382 62.4882 110.737C60.2004 111.974 57.556 112.446 56.3973 112.613C56.1695 112.642 56.0011 112.662 55.9021 112.672H55.8723C55.8129 112.672 55.7634 112.652 55.7238 112.632C55.6841 112.564 55.6347 112.515 55.5951 112.456C55.5852 112.446 55.5852 112.436 55.5852 112.426C55.5653 112.269 55.6743 112.132 55.8229 112.122C55.8625 112.112 55.9318 112.102 56.0309 112.092C56.2884 112.063 56.7241 112.004 57.2886 111.886C57.4669 111.857 57.6551 111.817 57.8631 111.778C58.3682 111.67 58.9327 111.523 59.517 111.346C59.6953 111.287 59.8736 111.238 60.0518 111.169C60.4976 111.022 60.953 110.845 61.3988 110.639C61.577 110.57 61.7454 110.492 61.9138 110.393C62.0227 110.354 62.1217 110.305 62.2208 110.246C62.6268 110.03 63.0032 109.765 63.3399 109.48C63.4884 109.362 63.6272 109.244 63.7559 109.107C64.1619 108.734 64.5086 108.321 64.8057 107.909C64.9345 107.752 65.0434 107.594 65.1425 107.437C65.3703 107.103 65.5584 106.779 65.7169 106.504C65.7169 106.494 65.7169 106.494 65.7169 106.494C65.8555 106.249 65.9645 106.023 66.0437 105.846C66.1626 105.591 66.2319 105.424 66.2517 105.365C66.2616 105.355 66.2616 105.345 66.2616 105.345C66.3112 105.198 66.4696 105.12 66.6182 105.179C66.7667 105.228 66.8361 105.385 66.7866 105.532Z" fill="white"/>
<path d="M68.5791 107.035C68.5791 107.084 68.5692 107.133 68.5495 107.182C68.5395 107.211 68.4603 107.378 68.3018 107.644C67.7472 108.576 66.2418 110.698 63.3696 111.974C60.5371 113.232 58.1403 113.644 57.1697 113.762C56.9023 113.791 56.7438 113.811 56.7141 113.811C56.7042 113.811 56.6943 113.811 56.6943 113.811C56.5854 113.811 56.4862 113.752 56.4367 113.654C56.4268 113.624 56.417 113.595 56.407 113.556C56.3971 113.399 56.5159 113.261 56.6744 113.251C56.6744 113.251 56.7339 113.251 56.823 113.241C57.447 113.173 60.0616 112.839 63.1418 111.474C66.1724 110.118 67.6382 107.703 67.965 107.094C68.0046 107.005 68.0343 106.956 68.0343 106.956C68.1037 106.809 68.272 106.75 68.4107 106.819C68.4404 106.828 68.4602 106.838 68.48 106.858C68.5196 106.907 68.5493 106.956 68.5691 107.005C68.5693 107.015 68.5693 107.025 68.5791 107.035Z" fill="white"/>
<path d="M68.9655 109.342C68.4109 109.951 65.7566 112.721 63.033 113.821C60.448 114.862 58.5465 115.019 58.0116 115.029C57.9621 114.96 57.9224 114.891 57.873 114.822C57.6155 114.43 57.3877 114.076 57.1698 113.762C58.1404 113.644 60.5372 113.232 63.3697 111.974C66.2419 110.698 67.7474 108.576 68.302 107.643C68.391 107.801 68.4703 107.968 68.5397 108.144C68.7179 108.576 68.8466 108.959 68.9655 109.342Z" fill="#FFB300"/>
<path d="M69.5696 109.382C69.5696 109.46 69.5497 109.529 69.5002 109.588C69.4705 109.617 69.3517 109.745 69.1635 109.951C69.0348 110.089 68.8762 110.246 68.688 110.433C68.5593 110.56 68.4206 110.698 68.2721 110.845C68.0344 111.071 67.767 111.316 67.4698 111.572C67.3312 111.699 67.1826 111.827 67.0241 111.945C66.7369 112.19 66.4299 112.436 66.1031 112.672C65.9545 112.79 65.7862 112.898 65.6277 113.006C65.281 113.251 64.9344 113.467 64.5679 113.673C64.4094 113.772 64.2411 113.86 64.0727 113.948C63.8053 114.086 63.528 114.214 63.2507 114.331C63.2111 114.351 63.1813 114.361 63.1417 114.371C62.9634 114.449 62.7852 114.518 62.6168 114.577C62.181 114.734 61.7749 114.872 61.3887 114.98C61.1906 115.048 61.0024 115.097 60.8241 115.137C59.7149 115.431 58.873 115.539 58.3779 115.569C58.1203 115.598 57.952 115.598 57.8826 115.598C57.8727 115.598 57.8628 115.598 57.8628 115.598C57.7044 115.598 57.5855 115.471 57.5855 115.314C57.5855 115.166 57.7142 115.039 57.8628 115.039C57.8628 115.039 57.8628 115.039 57.8727 115.039C57.8926 115.039 57.9421 115.039 58.0114 115.029C58.051 115.029 58.1004 115.029 58.1599 115.019C58.2193 115.019 58.2886 115.019 58.358 115.009C58.5065 114.999 58.6848 114.98 58.8928 114.95C59.0512 114.931 59.2196 114.911 59.3978 114.881C59.5167 114.862 59.6257 114.842 59.7544 114.813C59.8633 114.793 59.9723 114.773 60.0911 114.744C60.319 114.695 60.5666 114.636 60.8339 114.567C61.3984 114.41 62.0323 114.214 62.7157 113.948C62.8147 113.909 62.9236 113.86 63.0326 113.821C64.4489 113.251 65.8453 112.23 66.9348 111.297C67.123 111.13 67.3012 110.973 67.4696 110.816C67.5587 110.737 67.6379 110.658 67.7172 110.59C67.8756 110.442 68.0242 110.295 68.1629 110.167C68.361 109.971 68.5393 109.794 68.6779 109.647C68.7968 109.519 68.8958 109.421 68.9651 109.342C69.0345 109.274 69.0741 109.225 69.0741 109.225C69.1731 109.107 69.3514 109.097 69.4702 109.195C69.4999 109.215 69.5198 109.244 69.5396 109.274C69.5498 109.313 69.5596 109.342 69.5696 109.382Z" fill="white"/>
<path d="M76.136 123.18C76.0864 123.239 76.0072 123.268 75.9379 123.268C75.8586 123.268 75.7894 123.239 75.7299 123.19C75.7101 123.17 75.6606 123.101 75.5813 122.993C74.9078 121.972 72.0654 117.327 71.1641 115.824C69.7379 113.457 68.6782 111.572 68.2722 110.845C68.1633 110.639 68.0939 110.521 68.0939 110.521C68.0245 110.384 68.0741 110.217 68.2127 110.138C68.3415 110.069 68.5099 110.118 68.5891 110.256C68.5891 110.256 68.6287 110.315 68.6881 110.433C69.005 111.002 70.1044 112.996 71.6396 115.539C73.343 118.348 75.5021 121.854 76.0171 122.64C76.0766 122.728 76.1062 122.777 76.126 122.797C76.2449 122.895 76.2449 123.062 76.136 123.18Z" fill="white"/>
<path d="M74.6107 124.349C74.6008 124.358 74.5909 124.378 74.5711 124.378C74.5215 124.417 74.4622 124.437 74.4027 124.437C74.3829 124.437 74.3631 124.437 74.3433 124.427C74.2938 124.417 74.2442 124.398 74.2046 124.358C74.1849 124.339 74.1452 124.28 74.0759 124.182C74.0363 124.133 73.9967 124.074 73.9571 124.005C73.9472 123.995 73.9472 123.985 73.9373 123.975C73.8482 123.848 73.7491 123.691 73.6302 123.514C73.5411 123.367 73.4322 123.2 73.3232 123.023C73.0657 122.61 72.7686 122.129 72.4418 121.599C72.3428 121.442 72.2437 121.284 72.1447 121.118C71.1543 119.477 70.0054 117.553 69.2527 116.178C68.0147 113.938 67.3116 112.534 67.0243 111.945C66.9253 111.729 66.8758 111.621 66.8659 111.621C66.8164 111.503 66.8461 111.375 66.9352 111.297C66.955 111.277 66.9748 111.257 67.0046 111.248C67.1431 111.179 67.3214 111.248 67.3808 111.385C67.3808 111.385 67.4106 111.444 67.47 111.572C67.7077 112.063 68.4109 113.497 69.7479 115.912C70.5898 117.445 71.7584 119.409 72.7389 121.019C72.7587 121.049 72.7686 121.068 72.7785 121.098C73.2539 121.854 73.6698 122.522 73.9868 123.023C74.1749 123.327 74.3334 123.573 74.4325 123.73C74.4523 123.759 74.4721 123.779 74.4919 123.799C74.5414 123.887 74.5811 123.946 74.6008 123.966C74.7098 124.074 74.7098 124.231 74.6107 124.349Z" fill="white"/>
<path d="M70.9858 122.335C70.9462 122.355 70.9066 122.365 70.8571 122.365C70.7581 122.365 70.659 122.316 70.6095 122.218C70.6095 122.218 70.5798 122.169 70.55 122.09C70.2331 121.501 68.9159 119.055 67.6482 116.885C66.4894 114.911 65.8555 113.536 65.6278 113.006C65.5684 112.858 65.5387 112.78 65.5287 112.77C65.4693 112.632 65.5485 112.466 65.6872 112.407C65.8357 112.357 65.9942 112.426 66.0536 112.564C66.0536 112.564 66.0734 112.603 66.1031 112.672C66.2616 113.065 66.8955 114.508 68.1334 116.61C69.4012 118.79 70.7283 121.245 71.0353 121.835C71.075 121.913 71.1047 121.962 71.1047 121.962C71.1839 122.09 71.1245 122.267 70.9858 122.335Z" fill="white"/>
<path d="M69.1833 123.062C69.1238 123.121 69.0545 123.151 68.9753 123.151C68.906 123.151 68.8268 123.121 68.7673 123.072C68.7376 123.052 68.7079 123.003 68.6485 122.895C68.4603 122.581 68.0345 121.756 66.8757 119.409C66.4894 118.623 66.0932 117.837 65.7763 117.199C64.9543 115.579 64.3106 114.371 64.0729 113.948C64.0134 113.84 63.9837 113.772 63.9837 113.772C63.9045 113.634 63.954 113.467 64.0927 113.389C64.2313 113.32 64.3997 113.369 64.4789 113.506C64.4789 113.506 64.5087 113.565 64.568 113.673C64.7958 114.106 65.4495 115.304 66.2715 116.944C66.5983 117.592 66.9846 118.378 67.3807 119.163C68.1235 120.656 69.0347 122.502 69.1734 122.679L69.1833 122.689C69.2824 122.797 69.2824 122.944 69.1833 123.062Z" fill="white"/>
<path d="M68.3019 126.44C68.2523 126.49 68.1929 126.509 68.1236 126.509C68.0444 126.509 67.9552 126.47 67.9057 126.411C67.8859 126.391 67.8562 126.352 67.8166 126.274C67.6383 125.93 67.153 124.83 65.7665 121.668C64.7662 119.37 63.6371 116.767 63.3598 116.266C62.9834 115.559 62.7457 114.931 62.617 114.577C62.5575 114.41 62.5378 114.302 62.5279 114.292C62.4784 114.145 62.5675 113.988 62.7161 113.949C62.8646 113.899 63.0231 113.988 63.0627 114.135C63.0726 114.135 63.0924 114.223 63.142 114.371C63.2608 114.705 63.4985 115.323 63.855 116.001C64.1423 116.531 65.2317 119.026 66.2815 121.442C66.5588 122.09 66.8559 122.748 67.1332 123.376C67.2125 123.553 67.2818 123.72 67.3611 123.887C67.7572 124.8 68.094 125.557 68.2524 125.891C68.302 125.979 68.3217 126.038 68.3416 126.058C68.4405 126.175 68.4207 126.342 68.3019 126.44Z" fill="white"/>
<path d="M67.8166 126.274C67.7968 126.529 67.6483 127.501 66.8559 127.806C66.8559 127.786 66.846 127.776 66.846 127.757C66.8262 127.707 64.7761 122.532 63.4886 119.497C62.5081 117.179 61.7058 115.598 61.3889 114.98C61.7752 114.872 62.1812 114.734 62.617 114.577C62.7458 114.93 62.9835 115.559 63.3598 116.266C63.6372 116.767 64.7663 119.369 65.7666 121.668C67.153 124.83 67.6383 125.93 67.8166 126.274Z" fill="#FFB300"/>
<path d="M66.8559 127.806C66.8856 127.933 66.8162 128.071 66.6875 128.12C66.6578 128.14 66.6182 128.14 66.5884 128.14C66.4795 128.14 66.3705 128.071 66.3309 127.963C66.3309 127.963 66.321 127.943 66.3111 127.904H66.3012C66.0832 127.334 64.1817 122.571 62.9734 119.713C61.9334 117.268 61.1115 115.667 60.8242 115.137C60.7648 115.019 60.7252 114.95 60.7252 114.95C60.6459 114.813 60.6955 114.646 60.8341 114.567C60.9728 114.498 61.1412 114.547 61.2204 114.675C61.2204 114.675 61.2798 114.783 61.3887 114.98C61.7056 115.598 62.5079 117.179 63.4884 119.497C64.7759 122.532 66.826 127.707 66.8458 127.757C66.8459 127.776 66.8559 127.786 66.8559 127.806Z" fill="white"/>
<path d="M71.499 131.141C70.5231 131.141 69.6295 131.125 69.1811 131.095C68.8121 131.069 68.5288 130.936 68.3397 130.699C67.9591 130.224 68.0461 129.462 68.1888 128.589C68.3537 127.581 68.1782 127.103 68.1762 127.098C68.1216 126.955 68.1927 126.794 68.3358 126.738C68.4819 126.683 68.6405 126.75 68.6985 126.892C68.7231 126.952 68.9335 127.514 68.7439 128.678C68.6318 129.362 68.5428 130.056 68.7802 130.353C68.8682 130.463 69.0123 130.524 69.2203 130.538C70.2285 130.608 73.7119 130.591 74.9552 130.509C75.3043 130.486 75.5215 130.416 75.5993 130.298C75.7565 130.062 75.5282 129.412 75.2869 128.724C74.8106 127.358 73.9721 124.324 73.9363 124.195C73.8956 124.046 73.9836 123.893 74.1336 123.853C74.283 123.809 74.4377 123.9 74.4789 124.047C74.4871 124.079 75.3479 127.193 75.8179 128.541C76.1434 129.47 76.3789 130.14 76.068 130.606C75.8252 130.97 75.3377 131.043 74.9924 131.066C74.256 131.114 72.8033 131.141 71.499 131.141Z" fill="white"/>
<path d="M68.9737 130.166C68.9345 130.166 68.8953 130.158 68.8581 130.141C68.7193 130.078 68.6555 129.919 68.7164 129.78C68.744 129.717 69.0181 129.15 70.1276 128.644C71.0425 128.226 71.7732 128.517 72.5475 128.827C72.7632 128.913 72.9871 129.003 73.2264 129.08C74.0369 129.343 74.6076 127.954 74.6129 127.94C74.6704 127.798 74.8344 127.729 74.978 127.785C75.1221 127.842 75.1923 128.003 75.1352 128.146C75.1043 128.225 74.3586 130.041 73.0505 129.61C72.7995 129.528 72.564 129.434 72.3376 129.344C71.6224 129.058 71.059 128.834 70.3627 129.15C69.4526 129.566 69.232 130.003 69.2296 130.007C69.1812 130.107 69.0791 130.166 68.9737 130.166Z" fill="white"/>
<path d="M12.4956 131.328C10.997 131.328 9.74687 131.013 9.449 130.326C9.05294 129.413 9.8997 128.372 10.7184 127.365C10.966 127.061 11.2102 126.761 11.41 126.474C11.6218 126.169 11.7766 125.644 11.94 125.089C12.369 123.632 12.9566 121.637 15.2488 121.201C15.3973 121.17 15.5482 121.27 15.5781 121.421C15.6072 121.573 15.5075 121.719 15.3552 121.748C13.3995 122.121 12.9111 123.781 12.4797 125.244C12.2955 125.871 12.1359 126.412 11.8723 126.79C11.6654 127.088 11.4129 127.399 11.1561 127.715C10.4747 128.552 9.70293 129.501 9.96552 130.106C10.2977 130.873 13.43 131.071 16.0564 130.216C18.4758 129.429 18.8472 128.001 18.8617 127.94C18.8844 127.847 18.954 127.77 19.0455 127.74C19.058 127.735 19.367 127.632 20.3425 127.41C22.4002 126.937 23.775 126.23 24.115 125.469C24.5783 124.431 23.2151 123.094 23.2015 123.081C23.1691 123.05 23.1449 123.011 23.1304 122.968C23.1304 122.967 22.9902 122.548 22.7087 121.741C22.422 120.912 22.32 120.22 22.3156 120.19C22.2933 120.038 22.3997 119.897 22.5534 119.874C22.7063 119.856 22.8494 119.959 22.8717 120.111C22.8727 120.117 22.9718 120.784 23.2402 121.559C23.4602 122.191 23.5946 122.587 23.643 122.731C23.9215 123.016 25.1963 124.423 24.6285 125.695C24.0932 126.895 22.0713 127.584 20.4691 127.953C19.8661 128.091 19.5256 128.181 19.3583 128.228C19.1876 128.689 18.5154 130.002 16.2314 130.745C15.0704 131.123 13.7022 131.328 12.4956 131.328Z" fill="white"/>
<path d="M23.6941 92.5292C23.6842 92.0087 23.4664 91.7337 23.2881 91.5962C23.5753 90.4865 24.635 85.5171 21.1984 82.5709C20.8715 82.2958 20.5645 82.0503 20.2674 81.854C20.2476 81.8343 20.2277 81.8146 20.1981 81.8048C18.3559 80.5478 17.0189 80.5772 16.177 80.862C15.2163 81.1861 14.5132 82.0209 14.3052 83.0815C13.9585 84.81 12.562 88.8955 12.3243 89.5633C12.1362 89.6909 11.7697 90.0249 11.6212 90.7123C11.4826 91.3899 11.6807 92.1167 11.7896 92.4408C11.6212 92.6372 11.3438 93.0301 11.3438 93.4229C11.3438 93.7371 11.4627 94.0416 11.5519 94.2282C11.3637 94.5228 11.0468 95.2299 11.2646 96.2316C11.4726 97.1842 11.5716 97.5378 11.6112 97.6655L11.5815 120.931C11.3933 121.344 10.3534 123.73 11.6112 124.692C11.6608 124.732 11.7201 124.751 11.7796 124.751C11.8786 124.751 11.9578 124.712 12.0173 124.634C12.047 124.584 12.0866 124.535 12.1262 124.476C12.5421 123.877 13.1265 123.17 13.701 122.63C13.7604 122.561 13.8297 122.502 13.8891 122.453C13.9089 122.424 13.9188 122.414 13.9287 122.414C13.9387 122.404 13.9584 122.394 13.9683 122.385C14.0278 122.335 14.0872 122.286 14.1466 122.247C14.5824 121.884 14.9786 121.687 15.2757 121.756L15.2856 121.766C15.2856 121.766 15.2856 121.766 15.2955 121.766C15.6818 121.864 16.6028 122.512 18.4648 125.626C18.5539 125.783 18.6133 125.871 18.6232 125.891C18.7718 126.058 19.574 126.195 20.2771 126.195C20.2771 126.195 20.287 126.205 20.297 126.195H20.396C20.4158 126.195 20.4258 126.185 20.4456 126.185C20.4555 126.195 20.4654 126.195 20.4654 126.195C20.4753 126.185 20.4852 126.185 20.4951 126.185C20.5942 126.185 20.6833 126.185 20.7724 126.175C21.4558 126.097 21.9114 125.851 22.1392 125.459C22.1491 125.449 22.159 125.449 22.159 125.439C22.159 125.429 22.169 125.419 22.1789 125.4C22.3472 125.076 22.4265 123.465 22.4463 120.853V120.843C22.4463 120.676 22.4562 120.509 22.4463 120.332C22.4562 120.195 22.4562 120.057 22.4562 119.91C22.4661 118.535 22.4562 116.934 22.4364 115.127V115.117C22.4265 113.968 22.4166 112.741 22.4067 111.444C22.4067 111.258 22.4067 111.071 22.3967 110.875V110.305C22.3967 110.069 22.3967 109.834 22.3868 109.598V109.028C22.3571 106.367 22.3373 104.039 22.3571 102.615C22.3571 102.409 22.3671 102.222 22.3671 102.056C22.3769 101.81 22.3868 101.604 22.3967 101.456C22.4166 101.211 22.4265 100.995 22.4463 100.798C22.4562 100.592 22.476 100.406 22.4958 100.239C22.5948 99.178 22.6741 98.903 22.6939 98.8441C22.7038 98.8244 22.7038 98.8146 22.7137 98.8048C22.7236 98.7655 23.0505 97.97 23.1396 97.1745C23.209 96.5951 23.0505 96.1041 22.9415 95.8389C23.199 95.613 23.6248 95.1515 23.6248 94.6211C23.6248 94.2283 23.4863 93.9631 23.3377 93.8059C23.4862 93.5309 23.7041 93.0497 23.6941 92.5292ZM22.4364 95.5148C22.4364 95.5148 22.4364 95.5148 22.4265 95.5246C22.3175 95.613 22.2779 95.7701 22.3472 95.888C22.3472 95.888 22.3868 95.9567 22.4265 96.0746C22.5156 96.2906 22.6344 96.6834 22.5849 97.1156C22.5056 97.8325 22.1986 98.5789 22.1888 98.5887C22.0897 98.8244 21.9808 99.4726 21.8322 101.417C21.753 102.468 21.7926 106.102 21.8421 110.305C21.9016 116.296 21.9808 124.496 21.6837 125.144C21.5153 125.458 21.0894 125.586 20.614 125.616C20.4258 125.635 20.2376 125.645 20.0495 125.625C19.6038 125.606 19.1977 125.537 19.0294 125.488C19.0095 125.449 18.9798 125.399 18.9501 125.341C18.8214 125.125 18.7025 124.928 18.5738 124.732C18.3856 124.427 18.2073 124.142 18.0191 123.877C16.9297 122.237 16.068 121.373 15.4045 121.206C15.3946 121.206 15.3946 121.206 15.3846 121.206C15.3748 121.196 15.3649 121.196 15.355 121.196C15.3252 121.186 15.3054 121.186 15.2757 121.186C14.7409 121.137 14.1268 121.501 13.5524 122.002C13.4336 122.1 13.3048 122.218 13.186 122.335C12.9879 122.522 12.7997 122.718 12.6413 122.915C12.6313 122.925 12.6313 122.925 12.6413 122.925C12.255 123.357 11.948 123.759 11.7499 124.034C11.2547 123.268 11.8292 121.707 12.1163 121.118C12.1362 121.078 12.1461 121.029 12.1461 120.99L12.1758 97.6164C12.1758 97.5869 12.1658 97.5476 12.156 97.5182C12.156 97.5084 12.0669 97.2726 11.8192 96.1138C11.6707 95.4558 11.8093 94.9647 11.9381 94.6898C12.0173 94.5228 12.0866 94.4344 12.0965 94.4246C12.1658 94.3558 12.1758 94.2478 12.1461 94.1593C12.1461 94.1593 12.1461 94.1495 12.1362 94.1495C12.1262 94.1397 12.1262 94.1397 12.1262 94.1397C12.1362 94.1299 12.1262 94.1201 12.1163 94.1004C12.1163 94.0906 11.9084 93.7469 11.9084 93.4228C11.9084 93.2853 11.9975 93.0987 12.1064 92.9416C12.1758 92.8434 12.255 92.755 12.3144 92.6862C12.3739 92.6273 12.4036 92.539 12.3739 92.4505C12.3838 92.4309 12.3739 92.4113 12.3639 92.3916C12.3639 92.3818 12.0173 91.5372 12.1659 90.83C12.1956 90.7122 12.2253 90.614 12.2649 90.5256C12.364 90.2801 12.4927 90.1328 12.5818 90.064C12.6313 90.0248 12.6709 90.0051 12.6709 90.0051C12.7402 89.9756 12.7996 89.9167 12.8194 89.8382C12.8888 89.6516 14.4734 85.0947 14.8498 83.1796C15.0281 82.3252 15.5926 81.6476 16.3651 81.3824C16.375 81.3824 16.3849 81.3726 16.3948 81.3726C16.5929 81.3038 16.8009 81.2744 17.0188 81.2645C17.3555 81.2351 17.722 81.2842 18.1082 81.3922C18.2865 81.4413 18.4648 81.51 18.643 81.5886C18.9996 81.736 19.366 81.9323 19.7424 82.1779C19.9008 82.2761 20.0493 82.3841 20.2078 82.5019C20.4158 82.6493 20.6238 82.8162 20.8317 82.993C20.9605 83.1009 21.0794 83.2188 21.1982 83.3269C21.3368 83.4741 21.4755 83.6313 21.5944 83.7885C21.941 84.2009 22.1985 84.6428 22.4164 85.1045C22.4164 85.1045 22.4164 85.1045 22.4164 85.1143C22.5253 85.3795 22.6343 85.6348 22.7136 85.9098V85.9196C23.5653 88.6792 22.7037 91.6059 22.6937 91.6451C22.674 91.6942 22.674 91.7434 22.6937 91.7925C22.7136 91.8808 22.7829 91.9594 22.8819 91.9889C22.9018 91.9987 23.0503 92.0576 23.1098 92.3424C23.1196 92.4014 23.1295 92.4602 23.1295 92.5388C23.1395 93.0495 22.8522 93.5405 22.7631 93.6682C22.7532 93.6977 22.7433 93.7075 22.7433 93.7075C22.6938 93.7665 22.6839 93.8548 22.7037 93.9334C22.7235 94.012 22.7829 94.0807 22.8522 94.12C22.8522 94.12 22.9018 94.1397 22.9513 94.2084C23.0008 94.287 23.0602 94.4147 23.0602 94.6209C23.0603 94.9845 22.6147 95.3969 22.4364 95.5148Z" fill="white"/>
<path d="M12.6215 122.836C12.6215 122.866 12.6215 122.895 12.6413 122.915C12.6314 122.925 12.6314 122.925 12.6413 122.925C12.2551 123.357 11.9481 123.759 11.75 124.034C11.2548 123.268 11.8292 121.707 12.1164 121.118C12.1362 121.078 12.1462 121.029 12.1462 120.99L12.1758 97.6164C12.1758 97.5869 12.1659 97.5477 12.1561 97.5182C12.1561 97.5085 12.0669 97.2727 11.8193 96.1138C11.6708 95.4558 11.8094 94.9648 11.9381 94.6898C12.0768 94.7684 12.3145 94.8862 12.6809 95.0335L12.6314 118.397L12.6215 122.836Z" fill="#FFB300"/>
<path d="M20.0495 125.625C19.6037 125.606 19.1977 125.537 19.0294 125.488C19.0095 125.449 18.9798 125.4 18.9501 125.341C18.8214 125.125 18.7025 124.928 18.5737 124.732C18.5837 124.712 18.5837 124.692 18.5837 124.673L18.6431 96.2023C19.069 96.2317 19.475 96.2415 19.8514 96.2415H19.8613L20.0495 125.625Z" fill="#FFB300"/>
<path d="M22.4166 85.1047C22.4166 85.1047 22.4166 85.1047 22.4166 85.1145C22.2779 85.468 21.3569 87.9331 20.9706 89.1214C20.6339 90.1526 20.4853 91.3212 20.4358 91.7927C19.8713 91.7828 19.3068 91.7435 18.7422 91.6944C18.8017 91.2721 19.0294 90.0544 19.8317 87.8348C20.6537 85.6153 21.337 84.2601 21.5946 83.7887C21.9412 84.2011 22.1986 84.6431 22.4166 85.1047Z" fill="#FFB300"/>
<path d="M16.3949 81.3728C16.0384 82.5808 14.9291 86.185 14.2556 87.5304C13.592 88.8366 13.2355 89.8972 13.1067 90.3097C12.9285 90.2409 12.7601 90.1526 12.5819 90.0642C12.6314 90.0249 12.6709 90.0052 12.6709 90.0052C12.7403 89.9757 12.7997 89.9168 12.8195 89.8383C12.8889 89.6517 14.4734 85.0948 14.8499 83.1798C15.0281 82.3253 15.5927 81.6477 16.3652 81.3825C16.3751 81.3826 16.385 81.3728 16.3949 81.3728Z" fill="#FFB300"/>
<path d="M19.7425 82.1781C19.4553 82.8753 18.4748 85.2127 17.7022 86.9412C16.9594 88.6402 16.3255 90.6142 16.1176 91.282C15.7016 91.1936 15.2856 91.0856 14.8795 90.9579C15.0281 90.4276 15.5134 88.8268 16.2562 87.9233C17.1376 86.843 18.3657 82.5709 18.6431 81.5888C18.9997 81.7362 19.3661 81.9325 19.7425 82.1781Z" fill="#FFB300"/>
<path d="M23.1296 92.539C23.1395 93.0497 22.8523 93.5407 22.7632 93.6684C21.8421 93.7666 18.5144 94.0514 15.87 93.5506C13.5624 93.1184 12.6611 92.6373 12.3739 92.4507C12.3838 92.431 12.3739 92.4114 12.3639 92.3917C12.3639 92.3819 12.0173 91.5373 12.1659 90.8302C12.1956 90.7124 12.2253 90.6141 12.2649 90.5258C13.5722 91.174 14.8993 91.6061 16.2265 91.881C18.0092 92.2641 19.782 92.3721 21.5152 92.3721C22.0501 92.3721 22.5848 92.3622 23.1098 92.3426C23.1197 92.4016 23.1296 92.4605 23.1296 92.539Z" fill="#FFB300"/>
<path d="M15.9393 119.036C15.5827 119.016 15.2064 118.977 14.8399 118.898C14.7805 118.888 14.7211 118.869 14.6716 118.859C14.7805 114.371 14.7904 98.2056 14.7904 95.6621C15.0975 95.7406 15.4243 95.8093 15.7908 95.8781L15.9393 119.036Z" fill="#FFB300"/>
<path d="M23.4466 92.048C23.4466 92.2051 23.3277 92.3328 23.1693 92.3426H23.1098C22.5849 92.3622 22.0501 92.3721 21.5152 92.3721C21.0597 92.3721 20.6041 92.3622 20.1484 92.3524C19.7919 92.3328 19.4354 92.3131 19.0789 92.2837C18.8114 92.264 18.544 92.2346 18.2767 92.2051C18.1479 92.1854 18.0092 92.1756 17.8805 92.156C17.8409 92.156 17.8111 92.1461 17.7716 92.1461C17.2863 92.0773 16.7911 91.9988 16.3058 91.8907C16.2761 91.8907 16.2562 91.8907 16.2265 91.8809C14.8994 91.6059 13.5723 91.1739 12.265 90.5256C12.2253 90.506 12.1758 90.4863 12.1362 90.4667C11.9976 90.3979 11.9381 90.231 12.0075 90.0935C12.0768 89.9561 12.2452 89.9069 12.3838 89.9757C12.4531 90.0052 12.5126 90.0444 12.5819 90.064C12.7602 90.1524 12.9285 90.2408 13.1068 90.3096C13.2851 90.3882 13.4633 90.4569 13.6317 90.5256C13.6317 90.5355 13.6317 90.5355 13.6317 90.5355C13.8694 90.6238 14.1071 90.7122 14.3448 90.781C14.523 90.8498 14.7013 90.9087 14.8796 90.9578C15.2856 91.0854 15.7016 91.1935 16.1176 91.2818C16.2959 91.331 16.4742 91.3605 16.6623 91.3997C17.1674 91.4979 17.6824 91.5764 18.1875 91.6354C18.3757 91.655 18.554 91.6747 18.7421 91.6943C19.3067 91.7435 19.8712 91.7827 20.4357 91.7925C20.6239 91.8024 20.8121 91.8024 21.0003 91.8024C21.5747 91.822 22.1392 91.8121 22.6938 91.7925C22.8523 91.7925 23.0009 91.7925 23.1494 91.7827C23.1594 91.7827 23.1594 91.7827 23.1594 91.7827C23.3178 91.7828 23.4366 91.9007 23.4466 92.048Z" fill="white"/>
<path d="M23.3376 93.8845C23.3575 94.0318 23.2484 94.1693 23.09 94.1889C23.0801 94.1889 23.0306 94.1988 22.9514 94.2085C22.5156 94.2577 21.129 94.3951 19.475 94.3951C18.2964 94.3951 16.9693 94.3263 15.7709 94.1005C13.5326 93.6684 12.5224 93.2069 12.1064 92.9417C11.9282 92.8435 11.8589 92.7649 11.839 92.7452C11.7697 92.6569 11.7498 92.539 11.7895 92.4408C11.8093 92.4114 11.8291 92.3721 11.8589 92.3524C11.9777 92.2444 12.1559 92.2542 12.255 92.3721C12.255 92.3721 12.2946 92.4016 12.3739 92.4507C12.661 92.6373 13.5624 93.1184 15.87 93.5506C18.5144 94.0514 21.8421 93.7667 22.7632 93.6684C22.9217 93.6488 23.0108 93.639 23.0207 93.639C23.1693 93.6194 23.3178 93.7273 23.3376 93.8845Z" fill="white"/>
<path d="M22.8325 95.7308C22.8623 95.8879 22.7632 96.0254 22.6048 96.0549C22.5849 96.0549 22.5255 96.0647 22.4265 96.0745C22.1096 96.1236 21.3964 96.212 20.4258 96.2316C20.2476 96.2415 20.0594 96.2415 19.8613 96.2415H19.8514C19.475 96.2415 19.069 96.2316 18.6431 96.2022C18.4549 96.2022 18.2668 96.1825 18.0786 96.1629C17.5537 96.1236 16.999 96.0647 16.4246 95.9763C16.3949 95.9763 16.3652 95.9665 16.3454 95.9665C16.1473 95.937 15.969 95.8977 15.7908 95.8781C15.4243 95.8093 15.0975 95.7406 14.7904 95.6621C14.5923 95.6227 14.4042 95.5737 14.2259 95.5246C13.8495 95.4264 13.5227 95.3282 13.2454 95.2398C13.0275 95.1612 12.8393 95.0924 12.6809 95.0335C12.3144 94.8862 12.0767 94.7683 11.9381 94.6898C11.849 94.6309 11.7995 94.6014 11.7896 94.5916C11.6608 94.4934 11.641 94.3166 11.7301 94.1988C11.8192 94.0711 11.9975 94.0515 12.1263 94.1399C12.1263 94.1399 12.1262 94.1399 12.1362 94.1496C12.1461 94.1496 12.1461 94.1595 12.1461 94.1595C12.2154 94.1988 12.4828 94.3559 13.0177 94.5622C13.0474 94.5719 13.0672 94.5818 13.0969 94.5916L13.1266 94.6014C13.8101 94.8568 14.8995 95.1711 16.5039 95.4264C17.1477 95.5246 17.7617 95.5934 18.3361 95.6326C18.346 95.6326 18.346 95.6326 18.3559 95.6326L18.4153 95.6425C20.4952 95.7701 22.0601 95.5639 22.4265 95.5246C22.4364 95.5148 22.4364 95.5148 22.4364 95.5148C22.4859 95.505 22.5156 95.505 22.5156 95.505C22.6641 95.4755 22.8127 95.5835 22.8325 95.7308Z" fill="white"/>
<path d="M21.7035 83.5824C21.7035 83.5824 21.6639 83.6512 21.5946 83.7886C21.337 84.26 20.6537 85.6153 19.8317 87.8348C19.0294 90.0543 18.8016 91.2721 18.7422 91.6944C18.7224 91.8025 18.7224 91.8614 18.7224 91.8614C18.7125 92.0087 18.5937 92.1167 18.4451 92.1167C18.4351 92.1167 18.4351 92.1167 18.4252 92.1167C18.2767 92.107 18.1578 91.9793 18.1677 91.8222C18.1677 91.8123 18.1677 91.7534 18.1875 91.6356C18.247 91.1937 18.4648 89.9464 19.3067 87.6483C20.2971 84.9377 21.0795 83.5334 21.1984 83.3272C21.2082 83.3075 21.2181 83.2977 21.2181 83.2977C21.2974 83.1602 21.4658 83.1209 21.6044 83.1995C21.7331 83.278 21.7827 83.445 21.7035 83.5824Z" fill="white"/>
<path d="M20.3466 82.1683C20.3466 82.1683 20.2971 82.2959 20.208 82.5021C19.8614 83.337 18.9403 85.5171 18.2173 87.167C17.5042 88.7973 16.8901 90.6829 16.6623 91.3998C16.6128 91.5864 16.5732 91.6944 16.5732 91.6944C16.5435 91.8122 16.4247 91.8908 16.3058 91.8908C16.2761 91.8908 16.2562 91.8908 16.2265 91.881C16.078 91.8319 15.9888 91.6748 16.0384 91.5275C16.0384 91.5275 16.0681 91.4391 16.1176 91.2819C16.3256 90.6141 16.9595 88.6401 17.7023 86.9411C18.4748 85.2127 19.4553 82.8753 19.7425 82.178C19.802 82.0406 19.8317 81.9718 19.8317 81.962C19.8911 81.8146 20.0495 81.7459 20.1981 81.8048C20.2278 81.8146 20.2476 81.8343 20.2675 81.854C20.3565 81.9228 20.3961 82.0602 20.3466 82.1683Z" fill="white"/>
<path d="M18.6926 81.3924C18.6827 81.4121 18.6728 81.4808 18.6431 81.5888C18.3657 82.5709 17.1377 86.8429 16.2562 87.9233C15.5134 88.8268 15.028 90.4276 14.8795 90.9579C14.8498 91.0659 14.83 91.1347 14.83 91.1347C14.8003 91.2623 14.6815 91.3508 14.5626 91.3508C14.5328 91.3508 14.513 91.3508 14.4932 91.3409C14.3446 91.3016 14.2456 91.1543 14.2852 91.0071C14.2852 90.9874 14.305 90.9088 14.3446 90.7811C14.513 90.1821 15.0181 88.5519 15.8203 87.5698C16.6325 86.568 17.8803 82.237 18.1081 81.3924C18.1379 81.304 18.1478 81.2549 18.1478 81.2549C18.1874 81.1077 18.3459 81.0192 18.4944 81.0585C18.6432 81.0978 18.7322 81.2451 18.6926 81.3924Z" fill="white"/>
<path d="M17.0585 81.1272C17.0585 81.1469 17.0387 81.1862 17.0189 81.2647C16.7812 82.0798 15.5234 86.2537 14.7608 87.7857C14.0972 89.1017 13.7406 90.1624 13.6317 90.5257C13.6317 90.5356 13.6317 90.5356 13.6317 90.5356C13.602 90.6142 13.5921 90.6632 13.5921 90.6632C13.5524 90.7811 13.4435 90.8597 13.3148 90.8597C13.295 90.8597 13.2653 90.8597 13.2455 90.8498C13.0969 90.8106 13.0078 90.6534 13.0474 90.5061C13.0474 90.4963 13.0672 90.4275 13.1068 90.3097C13.2355 89.8972 13.5921 88.8366 14.2557 87.5304C14.9292 86.185 16.0384 82.5808 16.3949 81.3728C16.4742 81.1272 16.5237 80.9799 16.5237 80.9701C16.5633 80.8228 16.7218 80.7442 16.8703 80.7835C17.0189 80.8228 17.108 80.9799 17.0585 81.1272Z" fill="white"/>
<path d="M22.9514 85.2618C22.9414 85.2717 22.8523 85.527 22.7136 85.9101V85.9198C22.3769 86.8136 21.7926 88.4144 21.5054 89.2982C21.1983 90.241 21.0497 91.3213 21.0003 91.8026C20.9804 91.9498 20.9705 92.0481 20.9705 92.0481C20.9606 92.1954 20.8418 92.3034 20.6933 92.3034C20.6834 92.3034 20.6834 92.3034 20.6734 92.3034C20.515 92.2936 20.406 92.1562 20.4159 92.0088C20.4159 91.999 20.4258 91.9205 20.4358 91.7928C20.4853 91.3214 20.6339 90.1527 20.9705 89.1215C21.3568 87.9332 22.2779 85.4682 22.4165 85.1146C22.4165 85.1048 22.4165 85.1048 22.4165 85.1048C22.4264 85.0851 22.4264 85.0655 22.4264 85.0655C22.4859 84.928 22.6443 84.8494 22.7929 84.8985C22.9316 84.9574 23.0108 85.1145 22.9514 85.2618Z" fill="white"/>
<path d="M20.614 125.616V125.92C20.614 126.038 20.5447 126.136 20.4457 126.185C20.4258 126.185 20.4159 126.195 20.3961 126.195C20.3763 126.205 20.3565 126.205 20.3366 126.205C20.3268 126.205 20.3069 126.205 20.297 126.195C20.2871 126.205 20.2772 126.195 20.2772 126.195C20.1485 126.166 20.0494 126.058 20.0494 125.92V125.625L19.8612 96.2415V96.0353C19.8612 95.8781 19.99 95.7505 20.1385 95.7505C20.1484 95.7505 20.1484 95.7505 20.1484 95.7505C20.297 95.7505 20.4257 95.8781 20.4257 96.0254V96.2316L20.614 125.616Z" fill="white"/>
<path d="M18.6432 95.9076V96.2022L18.5837 124.673C18.5837 124.692 18.5837 124.712 18.5738 124.732C18.5441 124.859 18.4352 124.948 18.2964 124.948C18.1479 124.948 18.0192 124.83 18.0192 124.673V123.877L18.0291 119.458V118.888L18.0786 96.1629V95.9075C18.0786 95.77 18.1975 95.6423 18.3362 95.6324C18.3461 95.6324 18.3461 95.6324 18.3559 95.6324L18.4154 95.6423C18.5441 95.6719 18.6432 95.7799 18.6432 95.9076Z" fill="white"/>
<path d="M16.5039 119.045V119.232C16.5039 119.389 16.385 119.517 16.2266 119.517C16.0681 119.517 15.9492 119.389 15.9393 119.242V119.036L15.7908 95.8781V95.6817C15.7908 95.5246 15.9096 95.4067 16.0681 95.3969C16.2265 95.3969 16.3454 95.5246 16.3454 95.6817V95.9665L16.5039 119.045Z" fill="white"/>
<path d="M14.7905 95.3282V95.6621C14.7905 98.2057 14.7806 114.371 14.6717 118.859V119.045C14.6717 119.193 14.5429 119.32 14.3944 119.32C14.3845 119.32 14.3845 119.32 14.3845 119.32C14.226 119.311 14.1071 119.183 14.1071 119.036C14.1071 118.937 14.1171 118.829 14.1171 118.712C14.2161 113.949 14.226 97.5477 14.226 95.5247V95.3282C14.226 95.1711 14.3547 95.0434 14.5132 95.0434C14.6617 95.0434 14.7905 95.1711 14.7905 95.3282Z" fill="white"/>
<path d="M13.2455 94.8273V95.2398L13.1959 118.309V118.957L13.186 122.335V122.846C13.186 122.993 13.0573 123.121 12.8988 123.121C12.8295 123.121 12.7701 123.092 12.7205 123.052C12.6809 123.023 12.6512 122.974 12.6413 122.925C12.6314 122.925 12.6314 122.925 12.6413 122.915C12.6215 122.895 12.6215 122.866 12.6215 122.836L12.6314 118.397L12.6809 95.0335V94.8272C12.6809 94.6799 12.8096 94.5522 12.9681 94.5522C12.988 94.5522 12.9979 94.5522 13.0177 94.5621C13.0474 94.5718 13.0673 94.5817 13.097 94.5915L13.1267 94.6013C13.1959 94.6505 13.2455 94.7389 13.2455 94.8273Z" fill="white"/>
<path d="M52.0421 106.972C51.9377 106.972 51.837 106.914 51.7887 106.814C51.3603 105.928 50.9453 105.051 50.5347 104.183C48.1496 99.1461 45.8971 94.3882 42.0273 89.9593C41.9258 89.8432 41.9383 89.6668 42.0554 89.5661C42.1719 89.4664 42.3499 89.4769 42.4519 89.5949C46.3729 94.0814 48.6414 98.8738 51.0434 103.946C51.4535 104.812 51.8675 105.688 52.2954 106.572C52.3626 106.711 52.3036 106.878 52.1634 106.944C52.1243 106.963 52.0832 106.972 52.0421 106.972Z" fill="white"/>
<path d="M144.323 121.135C143.494 121.135 142.659 121.106 141.811 121.05C126.452 120.02 109.875 110.082 93.8421 100.469C78.9189 91.5227 64.8227 83.0717 52.6515 82.2368C39.0175 81.2968 29.8741 90.1423 23.8976 110.061C22.4706 114.817 22.9126 119.762 22.9173 119.811C22.9329 119.98 22.8525 120.136 22.7373 120.16C22.6214 120.179 22.5159 120.064 22.5 119.896C22.4804 119.687 22.0359 114.733 23.5122 109.812C36.7803 65.5921 64.5746 82.256 94.0015 99.8971C110.001 109.489 126.544 119.408 141.83 120.433C159.103 121.573 171.574 108.047 181.243 84.7834C181.304 84.6378 181.646 84.1986 181.743 84.287C181.842 84.3763 181.804 84.6377 181.743 84.7834C172.462 107.115 160.524 121.135 144.323 121.135Z" fill="white"/>
<path d="M22.2145 83.0406C22.1555 83.0406 22.0964 83.0223 22.0457 82.984C21.9219 82.8919 21.8967 82.7173 21.9896 82.5946C22.0186 82.5562 24.9535 78.7085 30.3949 74.3706C35.7473 70.1003 37.0951 68.0474 37.1081 68.0273C37.1908 67.8978 37.3635 67.858 37.496 67.9415C37.6266 68.0235 37.6657 68.1951 37.5836 68.3251C37.5294 68.4099 36.1961 70.4576 30.747 74.8041C25.365 79.0959 22.4678 82.8909 22.4393 82.9283C22.3842 83.0012 22.2996 83.0406 22.2145 83.0406Z" fill="white"/>
<path d="M62.0515 101.061C61.9031 101.061 61.7787 100.946 61.7711 100.798C61.5529 96.7773 60.4431 89.6802 59.8473 85.8679C59.8236 85.7155 59.9286 85.5726 60.0819 85.5495C60.2308 85.5313 60.3793 85.6301 60.4025 85.7816C61.0002 89.6045 62.113 96.7188 62.332 100.767C62.3408 100.921 62.2218 101.053 62.0666 101.061C62.0617 101.06 62.0564 101.061 62.0515 101.061ZM59.3043 81.0189C59.1693 81.0189 59.0499 80.9211 59.0276 80.7849C58.3327 76.5813 58.234 75.7316 57.7596 71.6507C57.7418 71.4983 57.8525 71.3601 58.0063 71.3419C58.1596 71.3285 58.2998 71.4349 58.3177 71.5874C58.7911 75.6567 58.8893 76.5036 59.5818 80.6947C59.607 80.8463 59.5035 80.9901 59.3502 81.015C59.3347 81.0169 59.3192 81.0189 59.3043 81.0189Z" fill="white"/>
<path d="M54.6168 70.9822C51.3085 70.9822 46.3869 70.8787 43.8069 70.3243C39.7545 69.4535 37.5207 67.7684 37.4278 67.697C37.305 67.603 37.2823 67.428 37.377 67.3061C37.4714 67.1848 37.6479 67.1613 37.7711 67.2558C37.7929 67.2726 40.0068 68.9375 43.9258 69.7796C47.8835 70.6307 57.8461 70.3905 57.9467 70.389C58.1048 70.4006 58.231 70.507 58.2349 70.6604C58.2388 70.8143 58.1164 70.9419 57.9612 70.9458C57.8133 70.9496 56.4675 70.9822 54.6168 70.9822Z" fill="white"/>
<path d="M55.1337 72.9541C52.4566 72.9541 47.8822 72.8697 44.2809 72.37C38.7597 71.6047 37.5202 69.5475 37.4699 69.4607C37.393 69.3269 37.4404 69.1566 37.5749 69.0804C37.7103 69.0027 37.882 69.0516 37.9584 69.1845C37.9686 69.2017 39.1572 71.0973 44.3588 71.8176C49.7219 72.5628 57.2776 72.3767 57.3544 72.3758C57.3569 72.3748 57.3592 72.3748 57.3617 72.3748C57.5135 72.3748 57.6388 72.4956 57.6426 72.6462C57.6465 72.8006 57.5241 72.9281 57.3689 72.932C57.3437 72.933 56.4777 72.9541 55.1337 72.9541Z" fill="white"/>
<path d="M36.8383 66.1581C36.7411 66.1581 36.6468 66.1082 36.5946 66.0195C36.1947 65.3352 36.5656 63.9969 37.304 61.3306C37.6367 60.1285 38.0511 58.6328 38.485 56.8562C39.7824 51.5439 38.5227 43.7203 38.5096 43.6417C38.485 43.4901 38.5889 43.3468 38.7422 43.3218C38.8921 43.2979 39.0392 43.4 39.0648 43.5525C39.0779 43.6317 40.356 51.5645 39.0314 56.9876C38.5952 58.7724 38.1798 60.2724 37.8461 61.4784C37.2155 63.7542 36.7992 65.2576 37.0811 65.7395C37.159 65.8729 37.113 66.0436 36.9791 66.1207C36.9346 66.1461 36.8858 66.1581 36.8383 66.1581Z" fill="white"/>
<path d="M28.0345 40.5444C27.8754 40.5444 27.8421 40.518 27.8169 40.4983C27.7497 40.4456 27.7066 40.3573 27.7066 40.2725C27.7066 40.084 27.918 39.9493 28.0867 40.0116C28.669 39.9948 32.783 39.0928 34.4861 38.7001C34.6564 38.5237 35.1511 38.0858 36.4534 37.2994C38.0976 36.3043 38.6722 36.231 38.7708 36.2267C38.928 36.2118 39.0576 36.3384 39.0644 36.4919C39.0716 36.6429 38.956 36.7714 38.8051 36.7825C38.7805 36.7859 38.248 36.8664 36.746 37.7751C35.1931 38.7131 34.8735 39.1035 34.8605 39.1197C34.8213 39.1691 34.7623 39.2084 34.7004 39.2228C29.8746 40.341 28.4751 40.5444 28.0345 40.5444Z" fill="white"/>
<path d="M27.7768 44.0167C27.726 44.0167 27.6748 44.0032 27.6283 43.9744C27.4968 43.8929 27.4566 43.7208 27.5389 43.5903C28.2526 42.4572 28.0921 40.9001 28.0902 40.8843C28.0738 40.7313 28.185 40.5942 28.3393 40.5774C28.4921 40.5592 28.6323 40.6709 28.6492 40.8234C28.657 40.8948 28.8344 42.5857 28.0157 43.8857C27.9625 43.9702 27.8706 44.0167 27.7768 44.0167Z" fill="white"/>
<path d="M32.9281 46.7044C32.8666 46.7044 32.8052 46.6848 32.7535 46.644C32.6316 46.5486 32.6113 46.3731 32.708 46.2527C32.7066 46.2527 33.0795 45.6437 32.4759 43.621C31.8477 41.5216 30.9367 40.739 30.8399 40.6613C30.7403 40.6186 30.6706 40.5203 30.6706 40.4057C30.6706 40.2518 30.7964 40.1271 30.9516 40.1271C31.2703 40.1271 32.3564 41.2617 33.0146 43.4627C33.698 45.7525 33.2458 46.4771 33.1481 46.5989C33.0929 46.6685 33.0108 46.7044 32.9281 46.7044Z" fill="white"/>
<path d="M27.7768 40.0538C27.6303 40.0538 27.5064 39.9406 27.4968 39.7934C27.3705 37.8916 27.8402 33.7331 29.5409 32.2729C31.3118 30.7519 29.9036 28.6333 29.8427 28.5441C29.7561 28.4166 29.7895 28.2434 29.9181 28.1571C30.0453 28.0718 30.2203 28.1039 30.3079 28.2314C30.3253 28.2573 32.0599 30.8473 29.9084 32.6939C28.4953 33.9076 27.9169 37.6408 28.0577 39.7569C28.0679 39.9104 27.9503 40.0432 27.7956 40.0533C27.7893 40.0538 27.7831 40.0538 27.7768 40.0538Z" fill="white"/>
<path d="M26.2288 39.4606C24.6798 39.4606 23.5139 39.0592 22.0505 38.3558C21.9113 38.2886 21.8528 38.1218 21.9205 37.9832C21.9882 37.8446 22.1555 37.7865 22.2962 37.8541C24.1276 38.735 25.3951 39.0999 27.6414 38.8007C27.7991 38.7835 27.9369 38.8876 27.9577 39.0396C27.9785 39.192 27.8706 39.3326 27.7168 39.3532C27.1757 39.4257 26.6853 39.4606 26.2288 39.4606Z" fill="white"/>
<path d="M25.884 36.6559C25.2669 36.6559 24.6339 36.6007 24.1648 36.4276C23.2827 36.102 22.7774 35.7869 22.7029 35.5175C22.6622 35.3688 22.7502 35.2159 22.9002 35.1751C23.0486 35.1329 23.2019 35.2211 23.2445 35.3679C23.2305 35.3367 23.4234 35.5592 24.3611 35.9049C25.4898 36.3226 27.8919 35.939 27.916 35.9346C28.0655 35.9078 28.2139 36.0118 28.2386 36.1643C28.2638 36.3164 28.1602 36.4593 28.0069 36.4842C27.9412 36.4952 26.9358 36.6559 25.884 36.6559Z" fill="white"/>
<path d="M38.8869 48.7597C38.8535 48.7597 38.8197 48.754 38.7868 48.7415C38.7583 48.7305 38.7327 48.7156 38.7099 48.6979C38.3066 48.5219 35.0737 47.6021 33.84 47.2511C33.0518 47.0253 31.703 47.2065 30.1405 47.4151C27.7801 47.7297 24.8423 48.121 22.7067 47.1529C19.0817 45.5105 22.3479 36.5868 22.4886 36.2075C22.4963 36.1884 22.8275 35.3842 22.7008 34.5254C22.5553 33.5519 22.6254 32.8365 22.6283 32.8067C22.6438 32.6528 22.7822 32.5449 22.9359 32.5573C23.0902 32.5727 23.2028 32.7093 23.1874 32.8623C23.187 32.869 23.1221 33.5433 23.257 34.4443C23.4069 35.4609 23.0274 36.3735 23.0114 36.4118C22.9833 36.4881 19.7853 45.2165 22.9398 46.6456C24.9303 47.5466 27.6572 47.1831 30.0656 46.8628C31.6909 46.6465 33.0953 46.4595 33.9948 46.7151C39.0348 48.1493 39.0565 48.1925 39.1378 48.3536C39.1731 48.4232 39.1775 48.5075 39.1494 48.5804C39.1069 48.6917 39 48.7597 38.8869 48.7597Z" fill="white"/>
<path d="M26.9885 31.9162C26.4329 31.9162 26.0335 31.6534 26.0088 31.6371C25.8806 31.5503 25.8473 31.3772 25.9343 31.2496C26.0218 31.1235 26.1959 31.089 26.325 31.1758C26.3487 31.1921 26.9483 31.5738 27.6191 31.1801C28.0089 30.9509 27.9727 30.549 27.8904 30.0853C27.8479 29.846 27.8111 29.6394 27.9663 29.4955C28.0974 29.3737 28.2889 29.2874 28.5104 29.1872C29.2425 28.8563 30.349 28.3561 30.334 26.1738C30.333 26.0199 30.4578 25.8943 30.613 25.8933C30.6135 25.8933 30.6145 25.8933 30.615 25.8933C30.7693 25.8933 30.895 26.0165 30.896 26.17C30.9139 28.7134 29.5018 29.3517 28.7436 29.6941C28.6197 29.7502 28.5008 29.8039 28.421 29.8518C28.4273 29.894 28.4365 29.9463 28.4442 29.989C28.5148 30.387 28.6618 31.2152 27.9055 31.6597C27.579 31.8514 27.2647 31.9162 26.9885 31.9162Z" fill="white"/>
<path d="M22.6768 34.1182C22.6749 34.1182 22.6725 34.1182 22.67 34.1182C20.9548 34.0779 19.9865 32.6753 20.0146 30.2704C20.033 28.6865 21.2787 27.458 22.4379 26.836C23.143 26.4576 24.0792 26.1694 24.5972 26.4969C25.4299 27.0239 27.5036 28.9943 27.5911 29.0783C27.7033 29.1848 27.7067 29.3612 27.5994 29.472C27.492 29.5828 27.3136 29.5861 27.2023 29.4801C27.181 29.46 25.0813 27.4647 24.2945 26.9669C24.1194 26.8547 23.511 26.894 22.7054 27.3265C21.6864 27.8727 20.5921 28.9349 20.5766 30.2771C20.5626 31.4846 20.8179 33.5173 22.6836 33.561C22.8388 33.5648 22.9617 33.6923 22.9578 33.8463C22.9538 33.9978 22.8291 34.1182 22.6768 34.1182Z" fill="white"/>
<path d="M21.7918 32.4269C21.6999 32.4269 21.6105 32.3828 21.5563 32.3012C20.8135 31.1787 21.1119 29.5329 22.2212 28.6333C23.1135 27.9097 24.6184 27.6757 26.1669 29.1949C26.2772 29.3032 26.2781 29.4797 26.1688 29.589C26.0585 29.6979 25.8806 29.6984 25.7713 29.5909C24.6828 28.5235 23.4888 28.3254 22.5772 29.0649C21.7976 29.6969 21.3657 30.9969 22.0264 31.9953C22.1115 32.1243 22.0752 32.2969 21.9456 32.3813C21.8982 32.412 21.8445 32.4269 21.7918 32.4269Z" fill="white"/>
<path d="M28.285 28.4942C28.2019 28.4942 28.1196 28.4578 28.064 28.3878C28.0529 28.3738 26.9425 26.9794 25.763 26.1306C25.0057 25.5863 22.7996 27.0768 21.5881 28.1446C21.4735 28.2477 21.2956 28.2372 21.1916 28.1217C21.0886 28.007 21.0987 27.8306 21.2148 27.7285C21.5693 27.4153 24.7175 24.6973 26.0928 25.6794C27.3371 26.5747 28.4591 27.984 28.506 28.0435C28.6017 28.1648 28.5805 28.3398 28.4585 28.4348C28.4069 28.475 28.346 28.4942 28.285 28.4942Z" fill="white"/>
<path d="M22.8006 27.1352C22.7252 27.1352 22.6497 27.1055 22.5946 27.046C22.4892 26.9333 22.4959 26.7568 22.6095 26.6523C23.0994 26.201 25.6035 23.9731 26.8468 24.3663C27.8217 24.6766 29.7982 26.3986 29.7039 26.8566C29.6729 27.0076 29.5225 27.1026 29.3726 27.0738C29.2624 27.0517 29.1802 26.9678 29.1555 26.8657C28.9906 26.5967 27.6448 25.2055 26.6747 24.8967C25.9502 24.67 24.0343 26.1033 22.9916 27.0609C22.9374 27.1108 22.8688 27.1352 22.8006 27.1352Z" fill="white"/>
<path d="M30.6155 26.4504C30.6024 26.4504 30.5898 26.4494 30.5768 26.448C30.4448 26.4298 30.3471 26.3238 30.335 26.1977C30.2736 25.9853 29.6454 24.6948 28.3397 24.3419C26.9523 23.9655 25.4149 25.252 25.3995 25.2655C25.282 25.3648 25.1045 25.3518 25.0034 25.2353C24.9024 25.1188 24.9159 24.9428 25.0335 24.8426C25.105 24.7812 26.8117 23.3508 28.4878 23.8039C30.1441 24.2518 30.929 25.9541 30.8936 26.2097C30.8742 26.3493 30.7533 26.4504 30.6155 26.4504Z" fill="white"/>
<path d="M56.3045 47.4041C56.2852 47.4041 56.2654 47.4022 56.2455 47.3979C55.9636 47.3384 49.2904 45.9061 45.2776 42.8107C41.2967 39.7393 35.8756 33.8933 35.8214 33.8348C35.7164 33.7211 35.7242 33.5452 35.8383 33.4411C35.9529 33.3361 36.1309 33.3442 36.2354 33.4579C36.2896 33.5164 41.6792 39.3283 45.6229 42.3704C49.5328 45.3867 56.2949 46.8387 56.3626 46.8531C56.5144 46.8848 56.6111 47.033 56.5787 47.1835C56.5506 47.3144 56.4341 47.4041 56.3045 47.4041Z" fill="white"/>
<path d="M36.0284 33.9249C35.9616 33.9249 35.8949 33.9019 35.8417 33.8544C35.7256 33.7523 35.7154 33.5758 35.8184 33.4613C35.8813 33.1333 35.9828 32.8215 36.6304 32.2001C37.556 31.3091 38.72 30.549 38.7689 30.5174C38.9004 30.433 39.073 30.4689 39.1582 30.5975C39.2433 30.7265 39.207 30.8991 39.0774 30.9835C39.0657 30.9912 37.908 31.7469 37.0216 32.6C36.4495 33.1496 36.4098 33.3678 36.3857 33.4987C36.3692 33.5879 36.347 33.7102 36.2381 33.8315C36.1826 33.8933 36.1057 33.9249 36.0284 33.9249Z" fill="white"/>
<path d="M33.1137 31.8395C33.0769 31.8395 33.0397 31.8323 33.004 31.8169C32.8613 31.757 32.7946 31.5935 32.855 31.452C32.8739 31.4079 33.328 30.362 34.3387 29.4763C35.4021 28.5446 36.2711 28.676 36.3069 28.6822C36.4602 28.7072 36.5637 28.851 36.538 29.0025C36.5134 29.1541 36.3659 29.2595 36.2184 29.2322C36.1845 29.2308 35.552 29.1565 34.711 29.894C33.7999 30.6924 33.3763 31.6601 33.3724 31.6697C33.3265 31.7756 33.223 31.8395 33.1137 31.8395Z" fill="white"/>
<path d="M35.8335 33.8036C35.7987 33.8036 35.7633 33.7973 35.729 33.7835C35.0331 33.5072 32.5547 31.6514 31.8767 30.6205C31.2026 29.5967 31.1949 28.8621 31.1949 28.8314C31.1949 28.6775 31.3206 28.5527 31.4759 28.5527C31.6312 28.5527 31.7569 28.6774 31.7569 28.8314C31.7569 28.8352 31.7733 29.4442 32.3478 30.316C32.9504 31.2329 35.3238 33.0225 35.938 33.2666C36.0821 33.3236 36.1523 33.4858 36.0942 33.6286C36.0506 33.7374 35.9447 33.8036 35.8335 33.8036Z" fill="white"/>
<path d="M56.2658 40.285C55.8581 40.285 55.0496 40.2111 52.7056 39.4961C49.8925 38.6397 44.7394 35.1578 41.9616 33.0263C39.5054 31.1412 36.0525 29.1075 36.0182 29.0874C35.8847 29.0088 35.8402 28.838 35.9195 28.7057C35.9989 28.5733 36.1696 28.5287 36.3045 28.6079C36.3393 28.6285 39.8217 30.679 42.3059 32.5851C45.0508 34.6922 50.1295 38.1289 52.8709 38.9633C55.4601 39.7536 56.0994 39.7354 56.4021 39.7248L56.5017 39.7229C56.657 39.7229 56.7827 39.8476 56.7827 40.0015C56.7827 40.1555 56.657 40.2802 56.5017 40.2802L56.4191 40.2821C56.3737 40.2836 56.3238 40.285 56.2658 40.285Z" fill="white"/>
<path d="M49.0317 37.426C48.9838 37.426 48.9345 37.4135 48.89 37.3876C48.7561 37.3099 48.7111 37.1392 48.7899 37.0064C49.5114 35.787 48.9447 33.3711 48.9389 33.3466C48.9026 33.197 48.996 33.0469 49.1473 33.0114C49.2982 32.9755 49.4496 33.0685 49.4854 33.2181C49.5115 33.326 50.1092 35.878 49.2745 37.2884C49.2223 37.3771 49.1284 37.426 49.0317 37.426Z" fill="white"/>
<path d="M63.647 9.72983C63.647 9.7986 63.6172 9.86725 63.5677 9.91643C63.5182 9.96554 58.5167 15.2786 51.9206 18.873C45.3542 22.4478 39.9962 25.011 39.9367 25.0405C39.907 25.0503 39.8674 25.0602 39.8278 25.0602L38.7879 25.0798L38.471 25.0896H38.4115C38.3719 25.0896 38.3323 25.0798 38.3026 25.07C38.263 25.0602 38.2333 25.0405 38.2135 25.011C38.1937 24.9914 38.1738 24.9717 38.1639 24.9423L38.1541 24.9324C38.1442 24.9226 38.1442 24.9226 38.1442 24.9128C38.1442 24.903 38.1342 24.8932 38.1342 24.8833C38.1243 24.8637 38.1243 24.844 38.1243 24.8244C38.1243 24.785 38.1342 24.7458 38.1442 24.7164C38.1541 24.6771 38.1738 24.6476 38.2036 24.628C38.2333 24.5887 38.2531 24.569 38.2927 24.5592C38.3224 24.5493 38.362 24.5395 38.4016 24.5395H38.6096L39.7486 24.5101C40.3329 24.2253 45.4533 21.7602 51.6532 18.3819C57.7342 15.0722 62.4386 10.2797 63.0824 9.61188C63.0725 9.27796 63.023 8.80655 62.8844 8.48246C62.8348 8.33514 62.7655 8.21725 62.6763 8.14854C62.6467 8.1191 62.5872 8.0896 62.4981 8.06999C61.8543 7.85389 59.8834 7.62802 58.1404 7.52004C50.9303 12.8134 43.7399 17.6552 37.0151 22.0941C36.9656 22.1236 36.916 22.1629 36.8665 22.1924C36.7378 22.2807 36.5595 22.2415 36.4803 22.1137C36.3912 21.9861 36.4209 21.8093 36.5497 21.7307C36.5694 21.7111 36.5992 21.7013 36.619 21.6816C43.3834 17.2131 50.6332 12.342 57.8829 7.00929C57.9424 6.97002 58.0116 6.95035 58.0711 6.95035C59.0912 7.01913 62.4685 7.24493 63.033 7.7164C63.6569 8.23705 63.647 9.5825 63.647 9.72983Z" fill="white"/>
<path d="M63.0626 8.33527C63.0527 8.3451 62.9933 8.38444 62.8844 8.48259C61.7058 9.41558 54.7234 14.9447 49.3158 18.3034C43.4229 21.9568 39.9367 23.97 39.907 23.9896C39.8674 24.0093 39.8179 24.029 39.7782 24.029L38.4115 24.0977L38.045 24.1173H38.0352C37.8866 24.1173 37.7579 23.9995 37.7479 23.8522C37.7479 23.695 37.8668 23.5674 38.0153 23.5575H38.1143L39.6792 23.479C40.1644 23.1941 43.5517 21.2202 49.0187 17.832C54.3569 14.5224 61.2304 9.07182 62.498 8.07012C62.6267 7.96214 62.6961 7.91296 62.706 7.90313C62.8248 7.80491 63.0031 7.82458 63.1022 7.94247C63.2013 8.06029 63.1814 8.23705 63.0626 8.33527Z" fill="white"/>
<path d="M31.9164 29.0409C31.8951 29.0409 31.8738 29.0385 31.8521 29.0337C31.7012 28.9987 31.6073 28.8486 31.6422 28.699C31.6456 28.6846 31.9778 27.224 31.4232 26.0995C30.91 25.0599 30.2582 25.0254 30.2306 25.0244C30.0773 25.0191 29.9545 24.893 29.9569 24.741C29.9598 24.589 30.0822 24.4672 30.2355 24.4672C30.2766 24.4672 31.2515 24.483 31.9281 25.855C32.5723 27.1608 32.2057 28.7586 32.1897 28.8262C32.1591 28.9541 32.0435 29.0409 31.9164 29.0409Z" fill="white"/>
<path d="M35.1361 28.7795C34.7227 28.7795 34.4601 28.7603 34.4335 28.758C34.315 28.7489 34.2153 28.6673 34.1844 28.5537C34.1757 28.5234 33.3323 25.5154 32.0174 24.563C30.7765 23.6634 29.3824 24.4422 29.3233 24.4758C29.1908 24.552 29.0172 24.5074 28.9398 24.3741C28.8619 24.2413 28.9074 24.071 29.0409 23.9938C29.1125 23.9526 30.806 22.9964 32.3491 24.1132C33.6287 25.0397 34.4513 27.4963 34.6694 28.2122C35.1477 28.2319 36.4456 28.2457 37.7803 27.9437C38.0458 27.8842 38.233 27.747 38.352 27.5255C38.7369 26.8105 38.3331 25.3983 38.1455 24.9145C38.0898 24.7711 38.1619 24.6095 38.3065 24.5544C38.4516 24.5002 38.6141 24.5702 38.6697 24.7141C38.7011 24.7946 39.4323 26.7003 38.8481 27.7874C38.6508 28.1552 38.3331 28.3912 37.9051 28.4876C36.8272 28.7306 35.7919 28.7795 35.1361 28.7795Z" fill="white"/>
<path d="M35.5568 25.6357C35.419 25.6357 35.2986 25.5336 35.2778 25.3945C35.2232 25.0239 33.7264 22.6794 31.5962 22.0589C29.5603 21.4595 27.7207 24.1425 27.7028 24.1698C27.6167 24.2974 27.4421 24.331 27.3126 24.2461C27.1839 24.1603 27.1496 23.9871 27.2356 23.8591C27.3208 23.7353 29.3262 20.8188 31.7548 21.5238C34.0906 22.2043 35.7652 24.7645 35.8359 25.3256C35.8547 25.4771 35.7468 25.6128 35.5941 25.6334C35.5815 25.6347 35.5694 25.6357 35.5568 25.6357Z" fill="white"/>
<path d="M62.4981 8.07013C61.2304 9.07183 54.357 14.5224 49.0187 17.8321C43.5516 21.2202 40.1645 23.1942 39.6793 23.479L38.1144 23.5576C37.8371 23.1058 37.4706 22.5853 37.0151 22.0943C43.7399 17.6553 50.9302 12.8136 58.1404 7.52017C59.8835 7.62816 61.8543 7.85403 62.4981 8.07013Z" fill="#FFB300"/>
<path d="M38.6888 24.7851C38.6988 24.9226 38.6195 25.0503 38.4709 25.0895H38.4115C38.3719 25.0895 38.3323 25.0798 38.3026 25.0699C38.263 25.0601 38.2332 25.0404 38.2134 25.011C38.1936 24.9913 38.1738 24.9717 38.1638 24.9422L38.154 24.9324C38.1441 24.9225 38.1441 24.9225 38.1441 24.9127C38.1441 24.9029 38.1342 24.8931 38.1342 24.8833C38.0153 24.4021 36.6188 21.7406 34.4697 20.9451C33.4199 20.5523 32.1224 20.9451 31.1221 21.4263C30.2802 21.829 29.6266 22.2906 29.4978 22.4084C29.4781 22.4477 29.4483 22.4772 29.4088 22.4968C29.2701 22.5753 29.1017 22.5361 29.0225 22.3986C28.963 22.3004 28.9829 22.153 29.0621 22.0647C29.072 22.0549 29.0918 22.0352 29.1117 22.0156C29.5573 21.6129 32.4394 19.5997 34.6678 20.4246C35.4106 20.6995 36.0643 21.1611 36.6189 21.6816C36.7575 21.8191 36.8863 21.9468 37.0151 22.0941C37.4707 22.5851 37.8371 23.1057 38.1144 23.5574C38.2333 23.7538 38.3323 23.9404 38.4115 24.0975C38.5007 24.2743 38.5601 24.4216 38.6096 24.5395C38.6394 24.6082 38.6592 24.6671 38.6691 24.7163C38.679 24.7261 38.679 24.7359 38.679 24.7457C38.6888 24.7557 38.6888 24.7754 38.6888 24.7851Z" fill="white"/>
<path d="M33.9223 26.825C33.8212 26.825 33.7235 26.7708 33.6732 26.6758C33.6012 26.5392 33.6544 26.3708 33.7917 26.2994C34.8038 25.7733 36.1903 25.0531 36.9694 24.0173C37.0617 23.8931 37.2387 23.8672 37.3625 23.9602C37.4873 24.0523 37.5129 24.2269 37.4201 24.3501C36.5646 25.4881 35.1129 26.2423 34.0529 26.7933C34.0113 26.8149 33.9663 26.825 33.9223 26.825Z" fill="white"/>
<path d="M34.0896 27.6685C33.9407 27.6685 33.8164 27.5524 33.8091 27.4033C33.8013 27.2498 33.9208 27.1189 34.076 27.1117C35.1868 27.058 36.7953 26.0174 37.5826 25.2957C37.6952 25.1911 37.8737 25.1983 37.9796 25.3115C38.085 25.4242 38.0778 25.6007 37.9637 25.7052C37.173 26.4302 35.4257 27.6041 34.1031 27.668C34.0988 27.6685 34.094 27.6685 34.0896 27.6685Z" fill="white"/>
<path d="M63.0342 30.3745C62.2189 30.3745 61.5893 30.2326 61.5501 30.2235C61.3987 30.1889 61.3049 30.0393 61.3397 29.8892C61.3741 29.7391 61.5254 29.6461 61.6768 29.6806C61.6899 29.6835 63.0265 29.9827 64.2568 29.6816C64.3642 29.6552 64.4347 29.6288 64.4797 29.6073C64.1891 29.4006 63.0004 29.0074 60.4973 28.9988C56.6981 28.9839 52.5576 29.2237 52.3352 29.2592C52.1843 29.2846 52.0378 29.1839 52.0107 29.0343C51.9837 28.8847 52.0789 28.7418 52.2293 28.712C52.4624 28.6659 56.6963 28.4262 60.4993 28.4415C62.5565 28.4487 64.9943 28.7494 65.0939 29.5728C65.1195 29.7842 65.0185 30.0686 64.3917 30.2226C63.9269 30.3361 63.4559 30.3745 63.0342 30.3745Z" fill="white"/>
<path d="M48.2585 34.0774C48.1893 34.0774 48.1197 34.0515 48.0655 34.0002C48.0326 33.9686 47.2589 33.2056 46.8956 30.7183C46.5571 28.3912 47.0204 24.8441 48.5457 22.854C50.1778 20.7258 53.1447 18.5186 58.0038 20.0986C61.3802 21.1954 63.112 23.8692 63.1512 28.0455C63.1527 28.1994 63.0279 28.3318 62.8727 28.3332C62.8717 28.3332 62.8707 28.3332 62.8698 28.3332C62.716 28.3332 62.5908 28.2167 62.5893 28.0637V28.0503C62.5753 26.593 62.5341 22.1568 57.8288 20.6281C53.2811 19.1507 50.514 21.2069 48.9935 23.1917C47.6123 24.9928 47.1254 28.3927 47.4518 30.6388C47.7821 32.8998 48.4509 33.5941 48.4577 33.6009C48.566 33.7097 48.567 33.8853 48.4591 33.9941C48.404 34.0491 48.331 34.0774 48.2585 34.0774Z" fill="white"/>
<path d="M53.9213 31.6889L54.0635 31.4486L53.9098 31.6826C53.4996 31.4476 52.118 30.5897 51.5629 29.3957C50.9767 28.1317 51.1543 27.6872 51.2577 27.5548C51.3042 27.4949 51.3733 27.4565 51.4492 27.4483L52.092 27.3793C52.0818 27.1396 52.0668 26.7842 52.0566 26.5372C51.3641 26.5775 49.3746 26.7497 47.9756 26.8768L47.8788 27.6186L50.4012 27.4339C50.5531 27.4248 50.6909 27.538 50.7025 27.6915C50.7136 27.8449 50.5976 27.9787 50.4428 27.9902L47.5771 28.1997C47.4881 28.205 47.4102 28.1743 47.3522 28.1134C47.2941 28.0525 47.2666 27.9691 47.2777 27.8861L47.447 26.5842C47.4634 26.4547 47.5688 26.354 47.6999 26.342C52.3675 25.9148 52.397 25.9397 52.516 26.049C52.5745 26.1018 52.6083 26.1775 52.6083 26.2557C52.6093 26.3358 52.6644 27.6161 52.6644 27.6161C52.6707 27.7628 52.5609 27.8895 52.4139 27.9053L51.7045 27.9816C51.7108 28.1317 51.7611 28.4889 52.0735 29.1626C52.559 30.207 53.8168 30.9858 54.1907 31.1997L53.9213 31.6889Z" fill="white"/>
<path d="M64.8057 32.7694C64.8057 32.7694 64.7958 32.7891 64.776 32.8284C64.7165 32.8873 64.6473 32.9168 64.568 32.9168C64.5482 32.9168 64.4095 32.9168 64.1223 32.8579C64.0728 32.8481 64.0233 32.8284 63.9639 32.8186C63.9143 32.8088 63.8549 32.7989 63.7955 32.7891C63.6073 32.7597 63.3696 32.7203 63.1023 32.6811C62.2109 32.5535 60.953 32.3767 59.5567 32.2293C59.3685 32.2195 59.1803 32.1999 58.9921 32.1704C58.1701 32.1016 57.3084 32.0329 56.4567 32.0035C56.2685 31.9838 56.0903 31.974 55.9021 31.974C55.6841 31.9641 55.4663 31.9543 55.2484 31.9543C54.9018 31.9445 54.565 31.9445 54.2382 31.9445C53.9807 31.9347 53.7331 31.9347 53.4855 31.9347C52.7626 31.9347 52.1088 31.9445 51.5245 31.9543C51.2076 31.9641 50.9203 31.974 50.6431 31.9838C49.6824 32.0133 48.9792 32.0526 48.5731 32.0918C48.5632 32.0918 48.5632 32.0918 48.5632 32.0918C48.4444 32.0918 48.3553 32.1016 48.2958 32.1114C48.2165 32.1114 48.177 32.1213 48.177 32.1213C48.0284 32.1213 47.8898 32.0231 47.87 31.8659C47.8601 31.7088 47.9691 31.5812 48.1275 31.5615C48.1473 31.5615 50.1381 31.3749 53.4361 31.3749C53.644 31.3749 53.8619 31.3749 54.0897 31.3847C54.4661 31.3847 54.8524 31.3847 55.2584 31.3946C55.5753 31.4044 55.9022 31.4142 56.229 31.424C56.2488 31.424 56.2686 31.4338 56.2885 31.4338C57.3086 31.4731 58.3386 31.5516 59.3092 31.6499C59.3389 31.6499 59.3686 31.6597 59.3982 31.6597C60.4382 31.7579 61.3989 31.8856 62.211 31.9936C61.488 31.2571 61.28 30.0491 61.2701 29.9902C61.2404 29.8429 61.3493 29.6956 61.4979 29.6661C61.5276 29.6661 61.5574 29.6661 61.5772 29.676C61.696 29.6858 61.7951 29.7742 61.8248 29.9018C61.8248 29.9117 61.8545 30.059 61.9139 30.2849C61.9139 30.2849 61.9139 30.2849 61.9139 30.2947C62.0624 30.7857 62.3992 31.6303 63.043 31.9053C63.4787 32.1017 63.8254 32.2097 64.073 32.2687C64.3107 32.308 64.479 32.3374 64.5582 32.3571C64.6078 32.3571 64.6573 32.3669 64.6969 32.3964C64.7068 32.4062 64.7167 32.4062 64.7266 32.4161C64.7464 32.4259 64.7663 32.4456 64.7762 32.4652C64.7959 32.4848 64.8158 32.5143 64.8257 32.5437C64.8552 32.6124 64.8453 32.7007 64.8057 32.7694Z" fill="white"/>
<path d="M62.9141 35.9809C62.8744 36.0987 62.7655 36.1773 62.6466 36.1773C62.6169 36.1773 62.5872 36.1675 62.5575 36.1576C62.5575 36.1576 62.4783 36.1282 62.3198 36.0889C62.0326 36.0103 61.4977 35.8826 60.8243 35.755C60.6461 35.7255 60.448 35.6961 60.24 35.6665C59.9231 35.6273 59.5764 35.588 59.2199 35.5586C59.1308 35.5487 59.0218 35.5487 58.9129 35.5389C58.7347 35.5291 58.5266 35.5193 58.3088 35.4996C58.0711 35.4898 57.8136 35.48 57.5362 35.4701C57.041 35.4505 56.5458 35.4308 56.0803 35.4013C56.0704 35.4013 56.0704 35.4013 56.0605 35.4013C56.0506 35.4013 56.0011 35.4013 55.9219 35.3916C55.8526 35.3916 55.7833 35.3916 55.7238 35.3817C55.4861 35.3719 55.2682 35.3621 55.0405 35.3424C53.9213 35.2737 52.9111 35.1951 52.089 35.0773H52.0791C51.782 35.0477 51.5245 34.9986 51.2769 34.9496C51.2571 34.9496 51.2372 34.9398 51.2175 34.9398H51.2075C50.6133 34.8121 50.1775 34.6648 49.9794 34.4782C49.8705 34.38 49.7615 34.2818 49.6526 34.1737C49.6526 34.1737 49.6526 34.1737 49.6526 34.1639C49.3951 33.9184 49.1574 33.6533 48.9494 33.4077V33.3979C48.5335 32.9265 48.2364 32.5435 48.2165 32.5141C48.1274 32.3864 48.1472 32.2096 48.276 32.1212C48.2859 32.1114 48.2859 32.1114 48.2958 32.1114C48.375 32.0623 48.4741 32.0524 48.5632 32.0917C48.5632 32.0917 48.5632 32.0917 48.5731 32.0917C48.6128 32.1114 48.6425 32.1409 48.6722 32.1801C48.6822 32.1899 49.5438 33.3291 50.3559 34.0657C50.4846 34.1835 50.8115 34.2916 51.2571 34.3701C51.4453 34.4192 51.6632 34.4585 51.9009 34.4879C52.5744 34.5862 53.3964 34.6647 54.2284 34.7237C54.6047 34.7531 54.9811 34.7728 55.3574 34.8022L55.922 34.8317H55.9814C56.0507 34.8415 56.0903 34.8415 56.0903 34.8415C56.635 34.871 57.1402 34.8907 57.5561 34.9103C57.9027 34.9299 58.2395 34.9496 58.5266 34.9594C58.7347 34.979 58.9228 34.9889 59.0813 34.9987C59.1408 34.9987 59.2001 35.0085 59.2596 35.0085C59.725 35.038 60.1509 35.0969 60.557 35.1558H60.5669C60.8145 35.1951 61.0423 35.2344 61.2503 35.2737C61.904 35.4013 62.3793 35.529 62.5973 35.5879C62.6765 35.6075 62.7161 35.6272 62.726 35.6272C62.8744 35.6764 62.9636 35.8335 62.9141 35.9809Z" fill="white"/>
<path d="M64.8057 32.7694C64.8057 32.7694 64.7958 32.7891 64.776 32.8284C64.4591 33.3882 62.1119 37.5719 61.6761 38.5343C61.4482 39.0253 60.9134 39.4477 60.2102 39.6932C59.7645 39.8503 59.2793 39.9191 58.784 39.9191H58.7147C58.7048 39.9191 58.7048 39.9191 58.6949 39.9191C58.685 39.9191 58.685 39.9191 58.6751 39.9191C57.853 39.8994 57.0013 39.6834 56.1892 39.2708C55.3473 38.8387 54.4758 38.1709 53.7132 37.4932C53.7032 37.4932 53.7032 37.4932 53.6934 37.4835C53.6835 37.4736 53.6835 37.4736 53.6835 37.4638C52.4554 36.3835 51.4847 35.2541 51.2174 34.9398H51.2075C51.2075 34.93 51.1976 34.9202 51.1976 34.9103C51.1876 34.9006 51.1777 34.8907 51.1678 34.8809C51.158 34.871 51.148 34.8612 51.148 34.8612C51.1381 34.8514 51.1381 34.8416 51.1282 34.8318C51.1183 34.8219 51.1183 34.8121 51.1183 34.8023C51.0985 34.7728 51.0886 34.7335 51.0886 34.6942V34.6647C51.0886 34.6353 51.0985 34.596 51.1183 34.5665C51.1183 34.5468 51.1282 34.5371 51.1381 34.5174C51.158 34.4977 51.1678 34.4781 51.1876 34.4683C51.3065 34.3701 51.4847 34.3897 51.5838 34.5076C51.5838 34.5174 51.6433 34.5763 51.7323 34.6843C51.8116 34.7825 51.9304 34.92 52.079 35.0772H52.0889C52.485 35.5289 53.109 36.1869 53.832 36.8548C53.9706 36.9726 54.1093 37.1003 54.2579 37.228C54.9511 37.827 55.7038 38.3967 56.4466 38.7699C56.4764 38.7895 56.516 38.7993 56.5457 38.8091C56.7141 38.8976 56.8824 38.9761 57.0607 39.035C57.5459 39.2216 58.0412 39.3296 58.5167 39.3492C58.7246 39.3689 58.9227 39.3689 59.1307 39.3591C59.4378 39.3296 59.7348 39.2609 60.0221 39.1626C60.5767 38.9761 61.0026 38.652 61.1611 38.2984C61.3393 37.9154 61.8049 37.0414 62.3198 36.0887C62.4089 35.9218 62.4981 35.7549 62.5971 35.5879C63.1913 34.5076 63.8153 33.4076 64.1223 32.8577C64.2312 32.6613 64.3006 32.5336 64.3204 32.5042C64.3699 32.4157 64.4591 32.3568 64.5581 32.3568C64.6076 32.3568 64.6572 32.3667 64.6968 32.3961C64.7067 32.4059 64.7165 32.4059 64.7264 32.4158C64.7463 32.4256 64.7661 32.4453 64.776 32.4649C64.7958 32.4846 64.8156 32.5141 64.8256 32.5434C64.8552 32.6123 64.8453 32.7007 64.8057 32.7694Z" fill="white"/>
<path d="M54.3273 31.8463C54.3273 31.8463 54.2976 31.8758 54.2382 31.9446C54.05 32.1508 53.5745 32.6811 53.1091 33.182C52.9804 33.3194 52.8516 33.4668 52.7228 33.5945C52.5644 33.781 52.4158 33.948 52.297 34.0659C52.1286 34.2426 51.9999 34.3801 51.9008 34.4882C51.8315 34.5668 51.7721 34.6355 51.7324 34.6846C51.6334 34.8024 51.5938 34.8515 51.5938 34.8515C51.5343 34.9203 51.4552 34.9596 51.366 34.9596C51.3363 34.9596 51.3065 34.9596 51.2769 34.9497C51.2472 34.9399 51.2273 34.9301 51.1977 34.9104C51.1877 34.9006 51.1778 34.8908 51.1679 34.881C51.158 34.8711 51.1382 34.8515 51.1283 34.8319C51.0985 34.7827 51.0788 34.714 51.0887 34.6551C51.0887 34.6256 51.0985 34.5961 51.1184 34.5667C51.1184 34.547 51.1283 34.5373 51.1382 34.5176C51.1382 34.5078 51.1778 34.4685 51.257 34.3703C51.3659 34.2426 51.5541 34.0266 51.881 33.6828C51.9899 33.565 52.1286 33.4177 52.2771 33.2508C52.396 33.1133 52.5247 32.9757 52.6535 32.8382C52.9506 32.5142 53.2577 32.1802 53.4855 31.9347C53.6142 31.7973 53.7132 31.6892 53.7925 31.6107C53.8618 31.5223 53.9113 31.4732 53.9113 31.4732L54.0005 31.5518L54.3273 31.8463Z" fill="white"/>
<path d="M52.2771 33.2508C52.1286 33.4177 51.9899 33.5649 51.881 33.6828C51.5542 34.0266 51.366 34.2426 51.257 34.3703C50.8113 34.2917 50.4845 34.1837 50.3557 34.0659C49.5436 33.3293 48.682 32.1901 48.6721 32.1803C48.6424 32.141 48.6127 32.1115 48.573 32.0919C48.9791 32.0526 49.6822 32.0134 50.643 31.9839C50.8807 32.1704 51.5542 32.691 52.2771 33.2508Z" fill="#FFB300"/>
<path d="M56.3576 35.1363C56.3477 35.2836 56.2289 35.4015 56.0803 35.4015C56.0703 35.4015 56.0703 35.4015 56.0604 35.4015C56.0505 35.4015 56.001 35.4015 55.9218 35.3917C55.8722 35.3819 55.8129 35.372 55.7435 35.3622C55.5752 35.3328 55.3672 35.2934 55.1394 35.215C54.981 35.1559 54.8125 35.0873 54.6441 34.9988C54.5551 34.9497 54.4064 34.8515 54.2282 34.7239C53.8419 34.4488 53.2873 34.0266 52.7228 33.5945C52.5743 33.4865 52.4257 33.3686 52.277 33.2508C51.5541 32.691 50.8806 32.1705 50.6429 31.9839C50.5934 31.9446 50.5636 31.9249 50.5537 31.9151C50.4349 31.8169 50.4152 31.6499 50.5142 31.5223C50.6132 31.4045 50.7816 31.3848 50.9103 31.4829C51.0688 31.6106 51.2866 31.7776 51.5244 31.9544C51.8611 32.2195 52.2573 32.5337 52.6534 32.8382C52.8119 32.956 52.9605 33.0739 53.109 33.1819C53.9311 33.8104 54.6838 34.3702 54.9214 34.5077C55.0699 34.5863 55.2284 34.655 55.377 34.7041C55.5949 34.7729 55.793 34.8024 55.9218 34.822C55.9415 34.822 55.9614 34.8318 55.9812 34.8318C56.0505 34.8416 56.0901 34.8416 56.0901 34.8416C56.2487 34.8515 56.3675 34.989 56.3576 35.1363Z" fill="white"/>
<path d="M62.3198 36.0889C61.8049 37.0416 61.3393 37.9156 61.1611 38.2986C61.0026 38.6522 60.5767 38.9763 60.0221 39.1629C59.7348 39.2611 59.4378 39.3298 59.1307 39.3593L60.8243 35.7551C61.4977 35.8827 62.0327 36.0104 62.3198 36.0889Z" fill="#FFB300"/>
<path d="M63.9243 32.6615L63.7956 32.7891L61.2502 35.2738L60.8838 35.6273L60.8243 35.755L59.1308 39.3592L58.9426 39.7619C58.9029 39.8502 58.804 39.9092 58.7148 39.919C58.7049 39.919 58.7049 39.919 58.695 39.919C58.6851 39.919 58.6851 39.919 58.6752 39.919C58.6455 39.919 58.6058 39.9092 58.5761 39.8993C58.4275 39.8306 58.3681 39.6636 58.4375 39.5261L58.5167 39.3494L60.24 35.6666L60.3885 35.3523C60.4084 35.313 60.4282 35.2934 60.448 35.2639L60.5569 35.1559H60.5669L63.1023 32.6811L63.5282 32.2686C63.647 32.1605 63.8154 32.1605 63.9342 32.2686C64.0333 32.3766 64.0333 32.5534 63.9243 32.6615Z" fill="white"/>
<path d="M59.5962 31.974L59.5566 32.2293L59.0812 34.9988L59.0316 35.3032C59.0217 35.3327 59.0118 35.3523 59.0019 35.3818L58.9128 35.5389L57.0607 39.0351L57.0211 39.1137C56.9716 39.2021 56.8725 39.261 56.7735 39.261C56.7239 39.261 56.6843 39.2512 56.6447 39.2217C56.5061 39.1529 56.4466 38.986 56.5259 38.8485L56.5457 38.8092L58.3086 35.4996L58.4869 35.1656L58.5265 34.9594L58.992 32.1703L59.0415 31.8856C59.0713 31.7481 59.1901 31.6596 59.309 31.6499H59.3684C59.3783 31.6499 59.3882 31.6596 59.3981 31.6596C59.5368 31.699 59.626 31.8365 59.5962 31.974Z" fill="white"/>
<path d="M58.9921 32.1704L58.5266 34.9595C58.2393 34.9497 57.9027 34.93 57.556 34.9103C57.14 34.8907 56.6349 34.8711 56.0902 34.8416C56.0902 34.8416 56.0506 34.8416 55.9813 34.8318C55.9615 34.8318 55.9417 34.822 55.9219 34.822L56.4567 32.0034C57.3084 32.0329 58.17 32.1017 58.9921 32.1704Z" fill="#FFB300"/>
<path d="M55.0404 35.3425L53.832 36.855C53.1091 36.1871 52.4851 35.5291 52.0889 35.0774C52.911 35.1953 53.9212 35.2738 55.0404 35.3425Z" fill="#FFB300"/>
<path d="M56.5061 31.758L56.4566 32.0035L55.9218 34.8221V34.8319L55.8624 35.1462C55.8624 35.1953 55.8426 35.2346 55.8128 35.2738L55.7434 35.3622L55.7237 35.3819L54.2579 37.2282L54.0895 37.4344C54.0301 37.5032 53.9509 37.5424 53.8717 37.5424C53.8122 37.5424 53.7627 37.5228 53.7132 37.4933C53.7032 37.4933 53.7032 37.4933 53.6934 37.4835C53.6835 37.4737 53.6835 37.4737 53.6835 37.4638C53.5745 37.3656 53.5647 37.1986 53.6438 37.0906L53.832 36.8549L55.0403 35.3425L55.1394 35.2149L55.3276 34.9791L55.3573 34.8024L55.3771 34.7041L55.902 31.9739L55.9614 31.6499C55.9911 31.5222 56.1001 31.4338 56.2289 31.4239C56.2487 31.4239 56.2685 31.4338 56.2883 31.4338C56.4368 31.4633 56.5359 31.6008 56.5061 31.758Z" fill="white"/>
<path d="M57.5618 69.9187C57.4627 69.9187 57.3665 69.8669 57.3152 69.7748C57.2403 69.6396 57.2896 69.4703 57.4255 69.3959C57.4415 69.3868 59.3807 68.177 60.7618 61.1672C62.1651 54.0452 62.7358 51.5429 65.3873 46.3141C66.047 45.0131 66.1606 43.7817 65.7249 42.6538C64.8245 40.3233 61.8673 39.1518 61.8373 39.1403C61.6931 39.0842 61.6216 38.9225 61.6781 38.7792C61.7342 38.6358 61.8977 38.5639 62.0418 38.6214C62.1728 38.6718 65.2572 39.8903 66.2486 42.4519C66.7443 43.7328 66.6233 45.1162 65.8893 46.5644C63.2711 51.728 62.7058 54.2091 61.313 61.2736C59.8652 68.6239 57.7847 69.8361 57.6967 69.8841C57.6542 69.9076 57.6073 69.9187 57.5618 69.9187Z" fill="white"/>
<path d="M41.153 67.5382C40.5345 67.5382 39.8831 67.5128 39.1935 67.4605C39.0387 67.449 38.9227 67.3152 38.9348 67.1618C38.9464 67.0079 39.076 66.8808 39.236 66.9053C50.1193 67.7291 51.4062 61.8654 53.3584 52.9902C53.7342 51.2821 54.123 49.516 54.6105 47.6578C54.6496 47.5091 54.802 47.4176 54.9528 47.4583C55.1033 47.4967 55.1932 47.6492 55.154 47.7978C54.67 49.6454 54.2821 51.4063 53.9078 53.1087C52.0822 61.4046 50.7311 67.5382 41.153 67.5382Z" fill="white"/>
<path d="M58.2002 59.8134C58.0895 59.8134 57.9845 59.7482 57.9401 59.6403C55.9636 54.8513 56.2142 48.2136 56.2257 47.9335C56.232 47.7805 56.3679 47.6788 56.5182 47.6664C56.673 47.6731 56.7939 47.8026 56.7876 47.9565C56.7847 48.0236 56.5308 54.7539 58.4604 59.4293C58.5189 59.5717 58.4502 59.7343 58.3066 59.7928C58.2718 59.8067 58.236 59.8134 58.2002 59.8134Z" fill="white"/>
<path d="M14.2995 129.99C13.7341 129.99 13.3071 129.826 12.825 129.641C12.5962 129.553 12.3491 129.458 12.0599 129.371C10.9109 129.025 10.5724 129.331 10.57 129.334C10.4723 129.455 10.2992 129.463 10.1797 129.367C10.0598 129.269 10.0472 129.088 10.1454 128.969C10.229 128.868 10.7213 128.384 12.2229 128.838C12.527 128.929 12.7872 129.029 13.0281 129.121C13.8884 129.452 14.4078 129.65 15.9171 129.042C16.8267 128.676 17.5207 128.15 18.2547 127.594C19.1064 126.949 19.987 126.282 21.2061 125.913C23.1778 125.317 23.3939 123.351 23.3958 123.332C23.4108 123.178 23.5443 123.063 23.7029 123.082C23.8572 123.096 23.9704 123.233 23.9549 123.386C23.9457 123.482 23.6966 125.743 21.37 126.446C20.2476 126.786 19.4453 127.394 18.5961 128.037C17.8645 128.59 17.1081 129.164 16.1288 129.558C15.3455 129.875 14.7739 129.99 14.2995 129.99Z" fill="white"/>
<path d="M56.3035 47.4041C56.2493 47.4041 56.1942 47.3888 56.1459 47.3557C56.0177 47.2694 55.9844 47.0957 56.0719 46.9687C56.0787 46.9586 56.8447 45.7785 56.2175 43.6824C55.599 41.6094 54.1017 40.0154 53.8958 39.8428C53.8092 39.7953 53.7507 39.7038 53.7507 39.5987C53.7507 39.4447 53.8764 39.3201 54.0317 39.3201C54.361 39.3201 56.1097 41.3566 56.7563 43.5241C57.4647 45.8902 56.5749 47.2266 56.5362 47.2823C56.482 47.3614 56.3935 47.4041 56.3035 47.4041Z" fill="white"/>
<path d="M62.0158 51.414C61.5515 51.414 60.7468 51.262 59.4518 50.5935C57.571 49.6224 56.1575 48.2639 56.231 47.8913C56.261 47.7403 56.4066 47.6391 56.5608 47.6717C56.6628 47.6914 56.7417 47.7642 56.7726 47.8554C56.8916 48.039 57.8278 49.1266 59.7109 50.0996C61.6047 51.0774 62.275 50.8251 62.2817 50.8218C62.4195 50.7647 62.5859 50.8246 62.6493 50.9598C62.7126 51.0946 62.6633 51.2529 62.5303 51.3214C62.4751 51.3497 62.3175 51.414 62.0158 51.414Z" fill="white"/>
<path d="M23.8724 29.3518C22.9613 29.3518 22.2283 30.0785 22.2283 30.9723C22.2283 31.8659 22.9612 32.5927 23.8724 32.5927C24.7836 32.5927 25.5264 31.866 25.5264 30.9723C25.5265 30.0785 24.7837 29.3518 23.8724 29.3518ZM23.8724 32.0329C23.2782 32.0329 22.783 31.5517 22.783 30.9723C22.783 30.383 23.2783 29.9117 23.8724 29.9117C24.4766 29.9117 24.9619 30.3831 24.9619 30.9723C24.9619 31.5517 24.4766 32.0329 23.8724 32.0329Z" fill="white"/>
<path d="M24.9619 30.9723C24.9619 31.5517 24.4766 32.0329 23.8725 32.0329C23.2782 32.0329 22.7831 31.5517 22.7831 30.9723C22.7831 30.383 23.2783 29.9117 23.8725 29.9117C24.4766 29.9116 24.9619 30.383 24.9619 30.9723Z" fill="#FFB300"/>
<path d="M23.3339 100.898C22.9747 100.898 22.5559 100.861 22.1642 100.732C22.0166 100.685 21.9369 100.526 21.9852 100.38C22.0341 100.235 22.1932 100.154 22.3402 100.203C23.141 100.466 24.1353 100.273 24.1459 100.271C24.2982 100.241 24.4462 100.339 24.4762 100.49C24.5072 100.64 24.4085 100.787 24.2566 100.818C24.2296 100.823 23.8408 100.898 23.3339 100.898Z" fill="white"/>
<path d="M23.3349 102.737C22.9751 102.737 22.5563 102.699 22.1642 102.571C22.0166 102.523 21.9369 102.366 21.9852 102.219C22.0341 102.073 22.1908 101.994 22.3402 102.042C23.141 102.302 24.1362 102.112 24.1459 102.11C24.2992 102.075 24.4457 102.178 24.4767 102.328C24.5067 102.479 24.4085 102.626 24.2562 102.656C24.2291 102.662 23.8413 102.737 23.3349 102.737Z" fill="white"/>
<path d="M23.2416 109.684C22.8822 109.684 22.4644 109.646 22.0732 109.518C21.9257 109.471 21.8459 109.313 21.8943 109.166C21.9431 109.021 22.0998 108.942 22.2492 108.989C23.0491 109.25 24.0448 109.057 24.0555 109.056C24.2078 109.027 24.3557 109.124 24.3858 109.275C24.4167 109.425 24.318 109.572 24.1662 109.603C24.1392 109.608 23.7494 109.684 23.2416 109.684Z" fill="white"/>
<path d="M23.1159 111.522C22.7929 111.522 22.4157 111.484 22.0626 111.352C21.9175 111.298 21.8436 111.137 21.8982 110.994C21.9524 110.849 22.1158 110.774 22.2599 110.83C22.9471 111.087 23.8103 110.899 23.8185 110.897C23.967 110.862 24.1208 110.956 24.1546 111.107C24.189 111.256 24.0947 111.406 23.9433 111.44C23.9191 111.445 23.5709 111.522 23.1159 111.522Z" fill="white"/>
<path d="M18.554 119.065C18.5937 119.212 18.4945 119.36 18.346 119.399C18.3262 119.399 18.2173 119.428 18.0291 119.458C17.6725 119.517 17.0486 119.595 16.3256 119.595C15.8205 119.595 15.2758 119.556 14.7211 119.438C13.9783 119.281 13.5029 119.104 13.1959 118.957C12.8097 118.761 12.6908 118.594 12.6512 118.505C12.6413 118.466 12.6314 118.436 12.6314 118.397C12.6314 118.289 12.6908 118.191 12.7997 118.142C12.9483 118.083 13.1067 118.142 13.1761 118.289C13.1761 118.289 13.186 118.299 13.1959 118.309C13.2355 118.338 13.3148 118.397 13.493 118.486C13.6317 118.545 13.8298 118.633 14.117 118.711C14.2754 118.761 14.4537 118.81 14.6716 118.859C14.7211 118.869 14.7805 118.888 14.8399 118.898C15.2064 118.977 15.5827 119.016 15.9393 119.036C16.1374 119.045 16.3255 119.045 16.5038 119.045C17.1772 119.026 17.7517 118.947 18.029 118.888C18.1479 118.869 18.2172 118.849 18.2172 118.849C18.3658 118.82 18.5243 118.908 18.554 119.065Z" fill="white"/>
<path d="M70.55 122.09C70.4312 122.149 70.3123 122.208 70.1836 122.267C69.8271 122.424 69.5002 122.561 69.1833 122.689L69.1734 122.679C69.0348 122.502 68.1235 120.656 67.3807 119.163C66.9846 118.378 66.5983 117.592 66.2715 116.944C65.4495 115.304 64.7958 114.106 64.568 113.673C64.9345 113.467 65.2811 113.251 65.6278 113.006C65.8556 113.536 66.4894 114.911 67.6482 116.885C68.916 119.055 70.2331 121.501 70.55 122.09Z" fill="#FFB300"/>
<path d="M75.4526 123.386C75.5021 123.475 75.6209 123.73 75.5615 123.926C75.5417 123.975 75.502 124.064 75.3634 124.133C75.0069 124.309 74.6305 123.956 74.4919 123.799C74.472 123.779 74.4522 123.759 74.4324 123.73C74.3334 123.573 74.1749 123.327 73.9867 123.023C73.6698 122.522 73.2538 121.854 72.7784 121.098C72.7685 121.069 72.7587 121.049 72.7388 121.019C71.7583 119.409 70.5896 117.445 69.7478 115.913C68.4108 113.497 67.7076 112.063 67.4699 111.572C67.767 111.316 68.0344 111.071 68.2722 110.845C68.6782 111.572 69.7379 113.457 71.1641 115.824C72.0654 117.327 74.9078 121.972 75.5813 122.993H75.5714C75.5021 123.023 75.4427 123.092 75.4229 123.16C75.4031 123.239 75.413 123.318 75.4526 123.386Z" fill="#FFB300"/>
<path d="M72.6894 121.412C72.6101 121.481 72.521 121.54 72.4417 121.599C71.8277 122.061 71.174 122.443 70.4114 122.777C69.2824 123.278 68.3811 123.612 67.361 123.887C67.2917 123.917 67.2124 123.936 67.1332 123.956C67.1134 123.966 67.0836 123.966 67.0639 123.966C66.9351 123.966 66.8261 123.887 66.7865 123.759C66.7469 123.612 66.836 123.455 66.9846 123.416C67.0341 123.406 67.0836 123.386 67.1331 123.376C67.658 123.239 68.1434 123.082 68.6484 122.895C68.8267 122.826 69.005 122.768 69.1832 122.689C69.5001 122.561 69.827 122.424 70.1835 122.267C70.3123 122.208 70.4312 122.149 70.55 122.09C70.7184 122.011 70.8768 121.923 71.0352 121.835C71.4314 121.618 71.7879 121.383 72.1445 121.118C72.2138 121.069 72.2732 121.019 72.3426 120.97C72.4614 120.872 72.6396 120.902 72.7388 121.019C72.7586 121.049 72.7684 121.069 72.7784 121.098C72.8181 121.206 72.7785 121.334 72.6894 121.412Z" fill="white"/>
<path d="M4.70061 131.745C4.54876 131.745 4.4235 131.624 4.41962 131.472C4.41575 131.319 4.53811 131.191 4.69332 131.188L25.1232 130.671C25.1257 130.67 25.128 130.67 25.1305 130.67C25.2823 130.67 25.4076 130.79 25.4115 130.942C25.4153 131.095 25.2929 131.223 25.1377 131.227L4.70783 131.744C4.7054 131.745 4.70298 131.745 4.70061 131.745Z" fill="white"/>
<path d="M53.7705 129.013C53.6176 129.013 53.4923 128.892 53.4895 128.739C53.4866 128.586 53.6104 128.458 53.7656 128.455L61.728 128.314C61.8798 128.285 62.0104 128.434 62.0137 128.588C62.0166 128.742 61.8928 128.87 61.7376 128.872L53.7752 129.013C53.7739 129.013 53.7719 129.013 53.7705 129.013Z" fill="white"/>
<path d="M65.3347 131.469C65.1828 131.469 65.0575 131.348 65.0537 131.196C65.0498 131.043 65.1722 130.915 65.3274 130.911L85.7558 130.394C85.7583 130.393 85.7606 130.393 85.7631 130.393C85.9149 130.393 86.0402 130.514 86.044 130.666C86.0479 130.819 85.9256 130.947 85.7704 130.951L65.3419 131.468C65.3395 131.469 65.3371 131.469 65.3347 131.469Z" fill="white"/>
<path d="M0.28104 126.926C0.128265 126.926 0.00300525 126.805 4.95796e-05 126.652C-0.00284041 126.499 0.120976 126.371 0.276181 126.368L8.23856 126.227C8.24001 126.227 8.24198 126.227 8.24342 126.227C8.39626 126.227 8.52144 126.349 8.52439 126.501C8.52728 126.655 8.40348 126.783 8.24828 126.785L0.285899 126.926C0.284454 126.926 0.282485 126.926 0.28104 126.926Z" fill="white"/>
<path d="M181.571 84.8294C181.57 84.8294 181.568 84.8294 181.566 84.8283C181.41 84.825 181.287 84.6786 181.291 84.5024C181.816 56.5674 144.093 52.988 113.782 50.112C95.5217 48.3792 81.098 47.0108 79.5872 40.6407C78.6921 36.868 82.3534 31.8624 91.1093 24.8889C91.2365 24.786 91.4116 24.8223 91.5005 24.9677C91.5895 25.1124 91.5586 25.3117 91.4313 25.4129C83.0129 32.1177 79.3163 37.0447 80.1297 40.4739C81.5379 46.4103 96.5018 47.8305 113.829 49.4746C144.374 52.3726 182.389 55.9796 181.852 84.5157C181.849 84.6908 181.724 84.8294 181.571 84.8294Z" fill="white"/>
<path d="M156.441 46C156.041 46 155.841 45.8 155.841 45.4V14.608C155.841 14.208 156.041 14.008 156.441 14.008H170.073C170.457 14.008 170.777 14.136 171.033 14.392L175.833 19.192C176.105 19.464 176.241 19.784 176.241 20.152V45.4C176.241 45.8 176.041 46 175.641 46H168.849C168.449 46 168.249 45.8 168.249 45.4V20.392H163.833V45.4C163.833 45.8 163.633 46 163.233 46H156.441ZM192.749 46C192.589 46 192.413 45.976 192.221 45.928C192.045 45.88 191.877 45.84 191.717 45.808L187.445 44.752L182.549 43.12C182.069 42.96 181.829 42.496 181.829 41.728V25.768C181.829 25.384 181.965 25.064 182.237 24.808L187.037 20.008C187.309 19.736 187.629 19.6 187.997 19.6H195.677C196.045 19.6 196.365 19.736 196.637 20.008L201.437 24.808C201.709 25.064 201.845 25.384 201.845 25.768V35.608H188.957L188.789 38.8L192.197 39.928L198.317 40.36C198.589 40.408 198.725 40.592 198.725 40.912V45.4C198.725 45.8 198.525 46 198.125 46H192.749ZM191.789 31.84H192.245C193.029 31.84 193.653 31.544 194.117 30.952C194.597 30.36 194.837 29.56 194.837 28.552V28.072C194.837 27.08 194.597 26.288 194.117 25.696C193.653 25.104 193.029 24.808 192.245 24.808H191.765C190.997 24.808 190.381 25.104 189.917 25.696C189.469 26.288 189.245 27.08 189.245 28.072V28.552C189.245 29.56 189.469 30.36 189.917 30.952C190.381 31.544 191.005 31.84 191.789 31.84ZM207.369 46C206.969 46 206.769 45.8 206.769 45.4V36.28C206.769 36.136 206.777 36.008 206.793 35.896C206.825 35.768 206.897 35.656 207.009 35.56L210.129 33.04V32.2L206.913 29.632C206.801 29.536 206.729 29.432 206.697 29.32C206.681 29.192 206.673 29.056 206.673 28.912V20.2C206.673 19.8 206.873 19.6 207.273 19.6H213.681C214.081 19.6 214.281 19.8 214.281 20.2V29.632H218.649V20.2C218.649 19.8 218.849 19.6 219.249 19.6H225.633C226.033 19.6 226.233 19.8 226.233 20.2V28.912C226.233 29.056 226.225 29.192 226.209 29.32C226.193 29.432 226.121 29.536 225.993 29.632L222.801 32.2V33.04L226.089 35.56C226.217 35.64 226.289 35.744 226.305 35.872C226.321 36 226.329 36.136 226.329 36.28V45.4C226.329 45.8 226.129 46 225.729 46H219.321C218.921 46 218.721 45.8 218.721 45.4V35.56H214.353V45.4C214.353 45.8 214.153 46 213.753 46H207.369Z" fill="#FFB300"/>
<path d="M88.2633 88C87.9299 88 87.7633 87.8333 87.7633 87.5V66.66H84.2633C83.9299 66.66 83.7633 66.4933 83.7633 66.16V61.84C83.7633 61.5067 83.9299 61.34 84.2633 61.34H97.9233C98.2566 61.34 98.4233 61.5067 98.4233 61.84V66.16C98.4233 66.4933 98.2566 66.66 97.9233 66.66H94.4233V87.5C94.4233 87.8333 94.2566 88 93.9233 88H88.2633ZM108.216 88C107.91 88 107.643 87.8867 107.416 87.66L103.416 83.66C103.19 83.4467 103.076 83.18 103.076 82.86V71.14C103.076 70.82 103.19 70.5533 103.416 70.34L107.416 66.34C107.643 66.1133 107.91 66 108.216 66H114.276C114.596 66 114.863 66.1133 115.076 66.34L119.076 70.34C119.303 70.5533 119.416 70.82 119.416 71.14V82.86C119.416 83.18 119.303 83.4467 119.076 83.66L115.076 87.66C114.863 87.8867 114.596 88 114.276 88H108.216ZM110.556 83.34H111.956C112.383 83.34 112.676 83.2533 112.836 83.08C112.996 82.9067 113.076 82.6 113.076 82.16V71.84C113.076 71.4 112.996 71.0933 112.836 70.92C112.676 70.7467 112.383 70.66 111.956 70.66H110.556C110.116 70.66 109.816 70.7467 109.656 70.92C109.496 71.0933 109.416 71.4 109.416 71.84V82.16C109.416 82.6 109.496 82.9067 109.656 83.08C109.816 83.2533 110.116 83.34 110.556 83.34ZM129.216 88C128.896 88 128.629 87.8867 128.416 87.66L124.416 83.66C124.189 83.4467 124.076 83.18 124.076 82.86V66.5C124.076 66.1667 124.242 66 124.576 66H129.916C130.249 66 130.416 66.1667 130.416 66.5V82.06C130.416 82.6867 130.722 83 131.336 83H134.076V66.5C134.076 66.1667 134.242 66 134.576 66H139.916C140.249 66 140.416 66.1667 140.416 66.5V87.5C140.416 87.8333 140.249 88 139.916 88H129.216ZM145.591 88C145.258 88 145.091 87.8333 145.091 87.5V66.5C145.091 66.1667 145.258 66 145.591 66H148.631C148.885 66 149.105 66.1133 149.291 66.34L151.251 68.6L153.431 66.24C153.578 66.08 153.765 66 153.991 66H156.151C156.485 66 156.651 66.1667 156.651 66.5V70.8C156.651 71.0133 156.638 71.16 156.611 71.24C156.585 71.3067 156.511 71.38 156.391 71.46L151.431 75.12V87.5C151.431 87.8333 151.265 88 150.931 88H145.591Z" fill="white"/>
</svg>
