<svg width="210" height="210" viewBox="0 0 210 210" fill="none" xmlns="http://www.w3.org/2000/svg">
<g clip-path="url(#clip0_1_1262)">
<path d="M122.5 0C74.2527 0 35.0002 39.2525 35.0002 87.5C35.0002 103.705 39.4365 118.886 47.1365 131.915L6.40521 172.655C-2.12604 181.186 -2.12604 195.064 6.40521 203.586C10.6665 207.848 16.2665 209.983 21.8752 209.983C27.484 209.983 33.0752 207.848 37.3452 203.586L78.0852 162.846C91.114 170.555 106.304 174.991 122.509 174.991C170.756 174.991 210.009 135.739 210.009 87.4913C210.009 39.2438 170.748 0 122.5 0ZM31.159 197.409C26.049 202.519 17.7102 202.519 12.6002 197.409C7.49021 192.299 7.48146 183.969 12.6002 178.85L52.0715 139.361C57.2952 146.44 63.5602 152.705 70.639 157.929L31.159 197.409ZM122.5 166.25C79.074 166.25 43.7502 130.926 43.7502 87.5C43.7502 44.0738 79.074 8.75 122.5 8.75C165.926 8.75 201.25 44.0738 201.25 87.5C201.25 130.926 165.926 166.25 122.5 166.25ZM175 87.5C175 116.454 151.454 140 122.5 140C93.5465 140 70.0002 116.454 70.0002 87.5C70.0002 58.5463 93.5465 35 122.5 35C124.915 35 126.875 36.96 126.875 39.375C126.875 41.79 124.915 43.75 122.5 43.75C98.3765 43.75 78.7502 63.3763 78.7502 87.5C78.7502 111.624 98.3765 131.25 122.5 131.25C146.624 131.25 166.25 111.624 166.25 87.5C166.25 85.085 168.21 83.125 170.625 83.125C173.04 83.125 175 85.085 175 87.5Z" fill="#C64242" fill-opacity="0.4"/>
</g>
<defs>
<clipPath id="clip0_1_1262">
<rect width="210" height="210" fill="white"/>
</clipPath>
</defs>
</svg>
