<svg width="123" height="120" viewBox="0 0 123 120" fill="none" xmlns="http://www.w3.org/2000/svg">
<g clip-path="url(#clip0_82_34)">
<path d="M23.59 0H99.29C105.543 0.0105763 111.537 2.49934 115.959 6.92103C120.381 11.3427 122.869 17.3368 122.88 23.59V96.21C122.867 102.462 120.377 108.455 115.956 112.876C111.535 117.297 105.542 119.787 99.29 119.8H23.59C20.492 119.799 17.4246 119.187 14.5639 117.997C11.7033 116.808 9.1056 115.066 6.92 112.87L6.54 112.45C2.34876 108.082 0.00587054 102.264 0 96.21L0 23.59C0.0105763 17.3368 2.49934 11.3427 6.92103 6.92103C11.3427 2.49934 17.3368 0.0105763 23.59 0ZM55.06 38.05C55.06 36.3579 55.7322 34.7351 56.9287 33.5387C58.1251 32.3422 59.7479 31.67 61.44 31.67C63.1321 31.67 64.7549 32.3422 65.9513 33.5387C67.1478 34.7351 67.82 36.3579 67.82 38.05V53.51H83.29C84.1498 53.476 85.0075 53.6159 85.8119 53.9215C86.6162 54.227 87.3506 54.6918 87.9709 55.2881C88.5912 55.8844 89.0847 56.5998 89.4219 57.3914C89.759 58.183 89.9327 59.0346 89.9327 59.895C89.9327 60.7554 89.759 61.607 89.4219 62.3986C89.0847 63.1902 88.5912 63.9056 87.9709 64.5019C87.3506 65.0982 86.6162 65.563 85.8119 65.8685C85.0075 66.1741 84.1498 66.314 83.29 66.28H67.82V81.75C67.82 83.4421 67.1478 85.0649 65.9513 86.2613C64.7549 87.4578 63.1321 88.13 61.44 88.13C59.7479 88.13 58.1251 87.4578 56.9287 86.2613C55.7322 85.0649 55.06 83.4421 55.06 81.75V66.28H39.59C38.7303 66.314 37.8725 66.1741 37.0681 65.8685C36.2638 65.563 35.5294 65.0982 34.9091 64.5019C34.2888 63.9056 33.7953 63.1902 33.4581 62.3986C33.121 61.607 32.9473 60.7554 32.9473 59.895C32.9473 59.0346 33.121 58.183 33.4581 57.3914C33.7953 56.5998 34.2888 55.8844 34.9091 55.2881C35.5294 54.6918 36.2638 54.227 37.0681 53.9215C37.8725 53.6159 38.7303 53.476 39.59 53.51H55.06V38.05ZM99.29 12.77H23.59C20.7236 12.7805 17.9776 13.9239 15.9507 15.9507C13.9239 17.9776 12.7805 20.7236 12.77 23.59V96.21C12.7655 98.9458 13.8023 101.581 15.67 103.58L15.95 103.84C16.9522 104.844 18.1432 105.641 19.4544 106.183C20.7656 106.725 22.1711 107.003 23.59 107H99.29C102.156 106.987 104.9 105.843 106.926 103.816C108.953 101.79 110.097 99.0456 110.11 96.18V23.59C110.099 20.7236 108.956 17.9776 106.929 15.9507C104.902 13.9239 102.156 12.7805 99.29 12.77Z" fill="#C64242" fill-opacity="0.4"/>
</g>
<defs>
<clipPath id="clip0_82_34">
<rect width="122.88" height="119.8" fill="white"/>
</clipPath>
</defs>
</svg>
