<svg width="210" height="210" viewBox="0 0 210 210" fill="none" xmlns="http://www.w3.org/2000/svg">
<path d="M48.125 61.25C65.0125 61.25 78.75 47.5125 78.75 30.625C78.75 13.7375 65.0125 0 48.125 0C31.2375 0 17.5 13.7375 17.5 30.625C17.5 47.5125 31.2375 61.25 48.125 61.25ZM48.125 17.5C55.3613 17.5 61.25 23.3888 61.25 30.625C61.25 37.8613 55.3613 43.75 48.125 43.75C40.8887 43.75 35 37.8613 35 30.625C35 23.3888 40.8887 17.5 48.125 17.5ZM43.75 87.5C29.2775 87.5 17.5 99.2775 17.5 113.75C17.5 118.589 13.58 122.5 8.75 122.5C3.92 122.5 0 118.589 0 113.75C0 89.6263 19.6263 70 43.75 70C48.58 70 52.5 73.9112 52.5 78.75C52.5 83.5888 48.58 87.5 43.75 87.5ZM105 148.75C105 153.589 101.08 157.5 96.25 157.5H87.5C73.0275 157.5 61.25 169.277 61.25 183.75C61.25 188.589 57.33 192.5 52.5 192.5C47.67 192.5 43.75 188.589 43.75 183.75C43.75 159.626 63.3763 140 87.5 140H96.25C101.08 140 105 143.911 105 148.75ZM135.625 61.25C152.512 61.25 166.25 47.5125 166.25 30.625C166.25 13.7375 152.512 0 135.625 0C118.738 0 105 13.7375 105 30.625C105 47.5125 118.738 61.25 135.625 61.25ZM135.625 17.5C142.861 17.5 148.75 23.3888 148.75 30.625C148.75 37.8613 142.861 43.75 135.625 43.75C128.389 43.75 122.5 37.8613 122.5 30.625C122.5 23.3888 128.389 17.5 135.625 17.5ZM140 70C155.566 70 170.091 78.3825 177.896 91.8662C180.311 96.0575 178.885 101.404 174.702 103.819C173.329 104.624 171.815 105 170.327 105C167.309 105 164.369 103.434 162.741 100.634C158.06 92.5312 149.345 87.5 140 87.5C135.17 87.5 131.25 83.5888 131.25 78.75C131.25 73.9112 135.17 70 140 70ZM210 166.25C210 171.089 206.08 175 201.25 175H175V201.25C175 206.089 171.08 210 166.25 210C161.42 210 157.5 206.089 157.5 201.25V175H131.25C126.42 175 122.5 171.089 122.5 166.25C122.5 161.411 126.42 157.5 131.25 157.5H157.5V131.25C157.5 126.411 161.42 122.5 166.25 122.5C171.08 122.5 175 126.411 175 131.25V157.5H201.25C206.08 157.5 210 161.411 210 166.25ZM91.875 70C74.9875 70 61.25 83.7375 61.25 100.625C61.25 117.512 74.9875 131.25 91.875 131.25C108.762 131.25 122.5 117.512 122.5 100.625C122.5 83.7375 108.762 70 91.875 70ZM91.875 113.75C84.6387 113.75 78.75 107.861 78.75 100.625C78.75 93.3887 84.6387 87.5 91.875 87.5C99.1113 87.5 105 93.3887 105 100.625C105 107.861 99.1113 113.75 91.875 113.75Z" fill="#C64242" fill-opacity="0.4"/>
</svg>
